<svg xmlns="http://www.w3.org/2000/svg" xmlns:xlink="http://www.w3.org/1999/xlink" viewBox="0 0 595.28 841.89"><defs><style>.cls-1,.cls-10,.cls-11,.cls-12,.cls-13,.cls-14,.cls-35,.cls-36,.cls-5,.cls-6,.cls-7,.cls-9{fill:none;}.cls-2{clip-path:url(#clip-path);}.cls-3{fill:#e9dad3;}.cls-4{fill:#f2eceb;}.cls-10,.cls-11,.cls-12,.cls-13,.cls-14,.cls-35,.cls-36,.cls-5,.cls-6,.cls-7,.cls-9{stroke:#ceb3aa;stroke-linecap:round;stroke-linejoin:round;}.cls-5{stroke-width:2.13px;}.cls-6{stroke-width:2.38px;}.cls-7{stroke-width:1.19px;}.cls-8{font-size:22px;font-family:Montserrat-SemiBold, Montserrat SemiBold;font-weight:600;letter-spacing:0.3em;}.cls-15,.cls-16,.cls-18,.cls-20,.cls-21,.cls-24,.cls-8{fill:#8e776e;}.cls-9{stroke-width:1.18px;}.cls-10{stroke-width:0.59px;}.cls-11{stroke-width:0.61px;}.cls-12{stroke-width:0.3px;}.cls-13{stroke-width:1.43px;}.cls-14{stroke-width:0.71px;}.cls-15{font-size:30px;}.cls-15,.cls-16,.cls-18,.cls-21,.cls-24{font-family:Domine-Regular, Domine Regular;}.cls-15,.cls-16,.cls-19{letter-spacing:0.2em;}.cls-16,.cls-18{font-size:20px;}.cls-17{letter-spacing:0.12em;}.cls-21,.cls-24{font-size:16px;}.cls-21,.cls-25{letter-spacing:0.2em;}.cls-22{letter-spacing:0.21em;}.cls-23{letter-spacing:0.19em;}.cls-24{letter-spacing:0.21em;}.cls-26{letter-spacing:0.19em;}.cls-27{letter-spacing:0.2em;}.cls-28{letter-spacing:0.2em;}.cls-29{letter-spacing:0.06em;}.cls-30{letter-spacing:0.2em;}.cls-31{letter-spacing:0.19em;}.cls-32{letter-spacing:0.2em;}.cls-33{letter-spacing:0.16em;}.cls-34{clip-path:url(#clip-path-2);}.cls-35{stroke-width:2.98px;}.cls-36{stroke-width:1.49px;}</style><clipPath id="clip-path"><rect class="cls-1" x="-14.17" y="-14.17" width="623.62" height="870.24"/></clipPath><clipPath id="clip-path-2"><rect class="cls-1" x="-658.17" y="-14.06" width="624" height="870"/></clipPath></defs><title>card-b</title><g id="PRINT_2" data-name="PRINT 2"><g class="cls-2"><rect class="cls-3" x="-14.17" y="-14.17" width="623.62" height="870.24"/><path class="cls-4" d="M76.83,786.4c6.84-7.59,14.28-15,23.6-19.19,7.23-3.25,15.26-4.36,23.18-4.43a92.89,92.89,0,0,1,33.12,5.87c16.48,6.17,31.19,17,48.37,20.88,25.32,5.66,51-4.75,75.82-12.47s53.93-12.23,74.89,3.06c12.95,9.46,20.09,24.67,29.56,37.62,21.79,29.81,58.25,48.32,95.18,48.33C422.8,882.26,361.93,882.42,302,881.79c-55.3-.59-110.62-1.75-165.89.23-17.06.61-34.28,1.5-51.08-1.5-17.67-3.16-45.13-11.63-41.4-33.15C47.68,823.75,61,803.94,76.83,786.4Z"/><path class="cls-5" d="M-20.95,748.3c3.39-11,28.3-25,38.94-29.4,15.35-6.32,33.24-8.48,48.5-.71,17.65,9,23.06,26.78,30.94,43.54,5.45,11.62,13.75,23.49,26.26,28.15,11.8,4.39,24.27,1.43,36.29,4.28,20.11,4.77,32.46,19.61,43.64,35.9a820.36,820.36,0,0,1,43.2,70.33"/><path class="cls-4" d="M372.08-17.09c-3.27,23.84,5.05,45.31,24.61,59.51,19.28,14,46,12.89,64,26.83,14.11,10.9,20.31,31.93,24.86,48.37,9.5,34.28,34,76.82,66.89,93.69,47.61,24.41,80-35.39,96.91-70.58A250.7,250.7,0,0,0,674,30.36a234.81,234.81,0,0,0-13.9-78.16c-1.44-4-3.1-8-6.27-10.8-3-2.58-6.89-3.7-10.7-4.67C598.71-74.49,552.22-74.15,506.85-67q-8.5,1.35-17,3c-36.26,14.62-93.72-6.66-114.82,35.05A53.27,53.27,0,0,0,372.08-17.09Z"/><path class="cls-5" d="M298-31.72C286.59-8,285.2,21.55,299,43.94s44.46,34.47,68.26,23.24c12.07-5.7,21.24-16.31,33.18-22.3,19.51-9.78,42.84-5.75,64.1-.78S508.36,54.7,529,47.62C545.54,42,558.4,28.8,568.88,14.81s19.28-29.3,31.22-42.06"/><path class="cls-6" d="M409.64,776.21a5.14,5.14,0,0,1-3.56,2.85,15.1,15.1,0,0,1-4.7.23,14.5,14.5,0,0,1-2.19-.21,16,16,0,0,1-4.86-2.15.87.87,0,0,1-.53-1.11l.78-5.55a21.57,21.57,0,0,1,.7-3.49,10.33,10.33,0,0,1,1.79-3.35,1.74,1.74,0,0,1,1-.74,1.93,1.93,0,0,1,1.55.74c1.66,1.61,3.17,3.38,4.67,5.14l2.34,2.76c1.23,1.43,2.51,3,2.76,4.86"/><path class="cls-6" d="M445.67,755.51c-4.35,3.14-8.78,6.36-11.84,10.76-1.67,2.39-2.95,5.15-5.28,6.89s-5.13,2.17-7.91,2.35-5.62.12-8.31.86c-.81.23-1.76.51-2.44,0"/><path class="cls-6" d="M446,755.29c-2.38.71-4.9-.18-7.37-.44-6.08-.63-11.85,2.59-16.92,6s-10.19,7.27-16.24,8.14"/><path class="cls-6" d="M461.08,722.09c-1.17,5.09-4.05,9.63-7.39,13.63s-7.19,7.56-10.7,11.41a20.62,20.62,0,0,0-4.68,7"/><path class="cls-6" d="M461.16,721.86c-5.09,5.29-12.48,7.49-19.21,10.41-2.43,1.05-4.8,2.21-7.18,3.38l-10.47,5.13a64.82,64.82,0,0,0-8.52,4.72c-6.39,4.42-11,11-15.39,17.34"/><path class="cls-6" d="M440.55,733.39a81.88,81.88,0,0,1-16.49-.29,16.34,16.34,0,0,0-6.31,0,13.07,13.07,0,0,0-3.58,1.84,51,51,0,0,0-15.46,16.4,10.56,10.56,0,0,0-1.39,3.17,11.76,11.76,0,0,0,0,3.79c.15,1.3.31,2.6.46,3.9"/><path class="cls-7" d="M460.78,722.55c-3.07,4.38-6.24,8.85-10.66,11.87-3,2.06-6.5,3.36-9.55,5.37-3.38,2.24-6.13,5.29-9.35,7.76-2.65,2-5.59,3.65-8.24,5.68-3.62,2.77-6.64,6.26-10.27,9-2.76,2.09-5.91,3.79-8,6.56"/><path class="cls-7" d="M460.13,723.18a85.59,85.59,0,0,1-6.83,6.09c-6.17,4.76-13.5,7.72-20.38,11.39a106.83,106.83,0,0,0-17.56,11.77c-4.76,3.91-9.24,8.32-12.17,13.73"/><path class="cls-7" d="M448.36,741.86c-6.29,4.93-14.94,6.5-20.5,12.25a36.34,36.34,0,0,0-3.92,5.14"/><path class="cls-7" d="M430.47,733.38c-5.21,1.23-10.43,2.85-14.8,5.93a51,51,0,0,0-6,5.27,48.64,48.64,0,0,0-7.21,8.18,16.34,16.34,0,0,0-2.91,10.31"/><path class="cls-7" d="M445.29,755.74c-7.46,2.51-15.55,3.77-22.05,8.22-4.9,3.34-8.8,8.43-14.48,10.11"/><path class="cls-7" d="M438.65,757.87a13.63,13.63,0,0,0-4.28,2.13c-1.83,1.39-3.19,3.29-4.8,4.93a42.56,42.56,0,0,1-4.49,3.78c-2.9,2.23-5.91,4.51-9.46,5.43-.69.18-1.41.3-2.1.5a20.54,20.54,0,0,0-3.65,1.63"/><path class="cls-6" d="M333.35,741.71a9.14,9.14,0,0,1-5.18,5.77c-2.16.9-4.59.93-6.81,1.66a1.58,1.58,0,0,1-.52.12,1.39,1.39,0,0,1-.95-.7c-2.88-3.81-5.39-8.27-5.17-13A4.4,4.4,0,0,1,315,734a3.79,3.79,0,0,1,3.93-2,11.17,11.17,0,0,1,4.33,1.76l7.53,4.4a7,7,0,0,1,1.71,1.25,2.37,2.37,0,0,1,.68,1.94"/><path class="cls-6" d="M341.56,699.43c-1.71,5.31.16,11.26-1.47,16.6-.63,2.05-1.76,3.92-2.52,5.93-.94,2.47-1.32,5.14-2.4,7.55a14.24,14.24,0,0,1-6.38,6.76"/><path class="cls-6" d="M341.56,699.25c-1.18,1.48-2.61,3.08-4.5,3.15a9.73,9.73,0,0,1-2.55-.48c-3.41-.83-7,0-10.24,1.36a12.65,12.65,0,0,0-5.49,3.69,15,15,0,0,0-2,4,41.28,41.28,0,0,0-2.5,8.58,13.92,13.92,0,0,0,1.32,8.7c.66,1.18,1.58,2.31,1.62,3.66"/><path class="cls-6" d="M355.42,678.85l-5.66,4.7c-.95.79-1.91,1.58-2.93,2.27-1.26.85-2.61,1.55-3.92,2.32a27.82,27.82,0,0,0-6.87,5.37,15.45,15.45,0,0,0-3.87,7.72"/><path class="cls-6" d="M355.46,678.73a55.06,55.06,0,0,0-2.54,26.21c.73,4.9,2.07,10.14-.07,14.61-1.35,2.84-3.92,4.89-5.67,7.49-1.09,1.62-1.85,3.43-2.87,5.09a19,19,0,0,1-10.84,8.2"/><path class="cls-6" d="M349.94,682.85a6.64,6.64,0,0,1-4,1.41,52.93,52.93,0,0,1-10,.11c-2.36-.2-4.79-.55-7.05.17-3.47,1.09-5.78,4.54-6.55,8.1s-.27,7.25.23,10.85"/><path class="cls-7" d="M354.88,679.82c-5,8-6.23,17.87-6.25,27.34,0,2,0,3.9-.14,5.84A31.43,31.43,0,0,1,343,727.63,51.43,51.43,0,0,1,332.1,739"/><path class="cls-7" d="M354.67,680.19C349.86,684,345.86,689,344.38,695a41.88,41.88,0,0,0-.94,7.67c-.41,7.17-.68,14.48-3.15,21.22a34.16,34.16,0,0,1-9.73,14"/><path class="cls-7" d="M340.57,700.58c-4.26,6.14-5.76,13.7-7.88,20.86a45.6,45.6,0,0,1-1.71,4.89,27.3,27.3,0,0,1-5.79,8.49"/><path class="cls-7" d="M340.88,700.31c-1.28,1.9-3.66,2.65-5.62,3.82a18,18,0,0,0-7.13,9,53.9,53.9,0,0,0-2.66,11.39c-.23,1.45-.46,2.9-.68,4.35a12.23,12.23,0,0,1-1.43,4.73"/><path class="cls-7" d="M336.84,702.25c-5.07,1.5-10.39,3.15-14,7a10.68,10.68,0,0,0-1.65,2.25,16.51,16.51,0,0,0-1.21,3.37c-1.55,5.56-3.09,11.5-1.32,17"/><path class="cls-7" d="M347.86,684.24l-7,2.57a40.17,40.17,0,0,0-6,2.55,11.17,11.17,0,0,0-3,2.27c-1.59,1.8-2.24,4.21-2.84,6.53-.33,1.29-.67,2.58-1,3.87"/><path class="cls-7" d="M347,684.28a61.67,61.67,0,0,1-13.24,3.22c-1.69.22-3.49.4-4.83,1.45a7.88,7.88,0,0,0-2.26,3.64,34.69,34.69,0,0,0-2.08,10.21"/><path class="cls-6" d="M382.65,749c-2.49,1.54-3.77,4.4-4.95,7.09a76.53,76.53,0,0,1-7,13.19,30.07,30.07,0,0,1-10.92,10c-7.86,3.94-17.29,3.08-25.78.78-1.35-.36-2.89-.74-4.06,0"/><path class="cls-6" d="M329.59,780.27c1.64-1.76,2-4.33,2.07-6.74s-.13-4.88.68-7.15a16.67,16.67,0,0,1,2.5-4.19c4.84-6.6,10.15-13.55,17.9-16.19a16.33,16.33,0,0,1,4.21-.86,26.44,26.44,0,0,1,4.86.29c4.59.54,9.19,1.09,13.77,1.73a13.59,13.59,0,0,1,4.41,1.13c.83.42,1.73,1,2.62.74"/><path class="cls-6" d="M382.39,749.36,377,750.92a43.77,43.77,0,0,0-4.46,1.45c-6.14,2.49-10.81,7.55-16.25,11.32-4.4,3-9.32,5.27-13.85,8.11-1.49.94-2.94,1.94-4.39,2.94L330.38,780"/><path class="cls-7" d="M338.93,757.26l.54,3.54c.64,4.14,1.26,8.43.1,12.46"/><path class="cls-7" d="M352,781.54c-4.26-2.46-7.64-6.36-12.14-8.35"/><path class="cls-7" d="M348.67,748.34c1,4.38,1.74,8.9,1.12,13.35a44.19,44.19,0,0,1-1.47,6.19"/><path class="cls-7" d="M366.29,774.65a46,46,0,0,0-12.66-6.17,8.57,8.57,0,0,0-4.24-.49"/><path class="cls-7" d="M359.5,745.6a15.4,15.4,0,0,1,.5,7.51,45.68,45.68,0,0,1-2,7.34,10.08,10.08,0,0,1-1.44,3.12"/><path class="cls-7" d="M373.46,764.69a16.38,16.38,0,0,0-5.11-3,15.54,15.54,0,0,0-2.14-.41c-2.49-.38-5.27-.68-7.32.79"/><path class="cls-6" d="M265.18,764.08c3.82,4.09,9.85,5.13,14.62,8.06a30.34,30.34,0,0,1,7.62,7.12c2.39,3,4.56,6.62,4.13,10.44-.3,2.55-1.74,5-1.32,7.51"/><path class="cls-6" d="M265.27,764a5.13,5.13,0,0,1,.83,3.92,34.82,34.82,0,0,1-1.05,4,19,19,0,0,0,.6,11.1,23.15,23.15,0,0,0,6.3,9.23,15.44,15.44,0,0,0,4.69,3.06c4.15,1.62,8.93.64,13.13,2.09"/><path class="cls-6" d="M289.94,797.18c-3.63-1.67-5.21-5.87-7.85-8.87-.94-1.07-2-2-3-3-4.72-5-6.35-12.34-11-17.46a7.15,7.15,0,0,1-1.73-2.41"/><path class="cls-7" d="M289.42,783.33a4.58,4.58,0,0,1,.06,2.62,37.8,37.8,0,0,1-3.05,8.66"/><path class="cls-7" d="M286.44,793.83a33.53,33.53,0,0,0-4.37.13c-1.33.12-2.64.32-3.95.52l-2,.31"/><path class="cls-7" d="M282.56,789.55a7.8,7.8,0,0,0-4.26-.12,25.59,25.59,0,0,1-4.25.68,8.14,8.14,0,0,1-4.37-1.23"/><path class="cls-7" d="M282.8,789c.54-2.36,1.39-4.64,1.84-7a11.27,11.27,0,0,0-.65-7.1"/><path class="cls-7" d="M279.44,772.31a3.12,3.12,0,0,1,.56,1.29c.91,3.84-.33,7.82-.53,11.76"/><path class="cls-7" d="M279.22,785.41a12.32,12.32,0,0,0-5.07-1.71c-.75-.06-1.51,0-2.27-.07a12.22,12.22,0,0,1-6.62-2.38"/><path class="cls-7" d="M275.6,779.66a15.73,15.73,0,0,0-.33-9.5"/><path class="cls-7" d="M275.18,779.37l-3-.71c-2.62-.61-5.32-1.26-7.49-2.86"/><path class="cls-7" d="M272,774.14a15.85,15.85,0,0,1-6.92-1.67"/><path class="cls-7" d="M272,773.76a6.33,6.33,0,0,0,.1-4.76"/><path class="cls-6" d="M354.29,791.67c-1.42,1.4-1.32,3.67-1.49,5.66-.41,4.78-2.87,9.12-5.27,13.27-1,1.71-2,3.41-3.08,5A36.81,36.81,0,0,1,323,830.36"/><path class="cls-6" d="M354.38,791.63c-7.09.74-14.45,0-21.19,2.27a24.21,24.21,0,0,0-11.16,8,13.35,13.35,0,0,0-2.82,5.73,18.88,18.88,0,0,0-.22,3,35.18,35.18,0,0,0,.4,7.33,34.45,34.45,0,0,0,1,3.71q1.31,4.17,2.6,8.36"/><path class="cls-6" d="M354.29,791.67a61.4,61.4,0,0,0-14.7,7.65,33.74,33.74,0,0,0-4.23,3.29,22.41,22.41,0,0,0-5,6.92c-3,6.55-2.82,14.46-7,20.36"/><path class="cls-7" d="M336.9,823.44a13.12,13.12,0,0,1-2.58.34l-8.43.54"/><path class="cls-7" d="M325.69,824q-3.13-3-6.4-5.88"/><path class="cls-7" d="M327.6,818.24a6.87,6.87,0,0,0-1.19-2.29,26.66,26.66,0,0,0-6.81-6.63"/><path class="cls-7" d="M327.76,817.71a17.06,17.06,0,0,1,3.46-.81,34.22,34.22,0,0,1,5.71-.58,11.46,11.46,0,0,1,5.52,1.34"/><path class="cls-7" d="M329.51,811.32c.18-2.43-.89-4.77-2.12-6.88a10.42,10.42,0,0,0-3.77-4.17"/><path class="cls-7" d="M346.07,811.14a10.93,10.93,0,0,0-5.75-2,32.55,32.55,0,0,0-6.16.24c-1.5.16-3.16.4-4.09,1.58"/><path class="cls-7" d="M334.31,803.2a8.55,8.55,0,0,0,.69-6.83,3.92,3.92,0,0,0-1.12-2"/><path class="cls-7" d="M350,806.29a12.35,12.35,0,0,0-9-3.91,24.26,24.26,0,0,0-5.59.91"/><path class="cls-7" d="M352.13,800a6.69,6.69,0,0,0-2.9-1.83,19.43,19.43,0,0,0-3.38-.75,7.19,7.19,0,0,0-3.13,0"/><path class="cls-7" d="M344.75,792.28a5.83,5.83,0,0,1-1.77,4.14"/><path class="cls-6" d="M402.94,855.43c1.69-4.3,4.8-7.86,7.2-11.81s4.15-8.76,2.71-13.15a13.34,13.34,0,0,0-2-3.7,34,34,0,0,0-4.92-5.12q-4-3.58-8.35-6.79a29.41,29.41,0,0,0-4.38-2.82,34.31,34.31,0,0,0-4.71-1.79c-2.37-.77-4.9-1.54-7.32-.92-.53.14-1.17.33-1.59,0"/><path class="cls-6" d="M379.57,809.26c.19,2.29-.61,4.53-1,6.78a16,16,0,0,0,1.93,11.69,26.59,26.59,0,0,0,4.33,4.67c2.45,2.27,4.84,4.6,7.22,6.94l4.95,4.84a17.36,17.36,0,0,1,3.29,3.92,17,17,0,0,1,1.25,3.24l1.23,3.93"/><path class="cls-6" d="M402.84,855.56l.36-8.06a21.35,21.35,0,0,0-.16-4.86,15.84,15.84,0,0,0-4.27-7.64c-2-2.18-4.33-4-6.4-6.15a37.25,37.25,0,0,1-5.68-7.49c-1.07-1.85-2-3.79-3-5.67A50.29,50.29,0,0,0,380,810"/><path class="cls-7" d="M383.4,815.76c.24,1.55-.7,3-1.46,4.38a11.88,11.88,0,0,0-1.71,6.66"/><path class="cls-7" d="M384.08,815.92a6.44,6.44,0,0,0,3.91.15,35.57,35.57,0,0,0,3.77-1.28,9.39,9.39,0,0,1,2.2-.52,5.29,5.29,0,0,1,3.84,1.29"/><path class="cls-7" d="M405.45,820.85a7.48,7.48,0,0,0-2.71-1,9.64,9.64,0,0,0-4.6.79,26.72,26.72,0,0,1-4.47,1.51,9.29,9.29,0,0,1-6.74-1.41"/><path class="cls-7" d="M386.13,821a5.31,5.31,0,0,1-.07,3.18c-.21.62-.52,1.19-.77,1.78a8.75,8.75,0,0,0-.17,6.27"/><path class="cls-7" d="M391.19,827.84c-.38,1.64-.75,3.29-1.13,4.93a10.79,10.79,0,0,0-.38,2.7,3.61,3.61,0,0,0,1,2.49"/><path class="cls-7" d="M412.76,834.49a4.46,4.46,0,0,0-1.27-4,7.31,7.31,0,0,0-3.85-1.92,21.8,21.8,0,0,0-4.35-.29h-6.57a12.66,12.66,0,0,1-5.2-.72"/><path class="cls-7" d="M397.5,833.68a10.62,10.62,0,0,1-.29,4.59c-.46,1.59-1.29,3.23-.82,4.81"/><path class="cls-7" d="M398,833.88a7,7,0,0,0,2.37.38,22.05,22.05,0,0,1,6.61,1.45,10.35,10.35,0,0,1,2.9,1.59,5,5,0,0,1,1.76,2.74"/><path class="cls-7" d="M402.22,840.73a4.6,4.6,0,0,1-.65,2.79c-.46.86-1.06,1.64-1.52,2.5a1.86,1.86,0,0,0-.27,1.42"/><path class="cls-7" d="M402.5,841.47c2.16,1.17,4.67,1.68,6.69,3.09"/><path class="cls-6" d="M321.06,749.23c-5.42,15.25-10.93,30.49-17.49,45.29a340.74,340.74,0,0,1-43.48,72.23c-7.16,9.13-14.85,18-20.3,28.2-5.11,9.62-8.31,20.54-15.8,28.45"/><path class="cls-6" d="M330.58,780c-6.47,2.79-11.53,8-17.43,11.85a15.11,15.11,0,0,1-5.46,2.45,9.07,9.07,0,0,0-1.55.32c-1.15.4-2,1.43-3,2"/><path class="cls-6" d="M290.08,797.25c.18,1.32.4,2.64.66,4a16.68,16.68,0,0,0,2.72,7,21,21,0,0,1,1.28,1.7,2.72,2.72,0,0,1,.38,2"/><path class="cls-6" d="M394.77,776.85a229.34,229.34,0,0,0-21.59,20.81c-4.6,5.05-9,10.3-13.89,15-13.93,13.39-31.66,22.06-47,33.85a140.52,140.52,0,0,1-11.83,8.8,93.37,93.37,0,0,1-12.93,6.26l-35,14.8"/><path class="cls-6" d="M323.08,830.28a12.68,12.68,0,0,0-2.34,7.83,4.2,4.2,0,0,1-.39,2.71"/><path class="cls-6" d="M379.91,809.68a6.3,6.3,0,0,0-3.75-1.87,17.35,17.35,0,0,0-4.26,0c-1.19.11-2.38.22-3.56.36a21,21,0,0,1-4.41.2"/><path class="cls-6" d="M116.7,111.51a5.12,5.12,0,0,1-3.56,2.85,15.41,15.41,0,0,1-4.7.24,15.93,15.93,0,0,1-2.19-.22,15.77,15.77,0,0,1-4.86-2.15,1.16,1.16,0,0,1-.48-.42,1.12,1.12,0,0,1,0-.68c.26-1.86.53-3.71.79-5.56a20.41,20.41,0,0,1,.69-3.48,10.13,10.13,0,0,1,1.79-3.35,1.75,1.75,0,0,1,1-.75,1.93,1.93,0,0,1,1.55.74c1.66,1.61,3.17,3.38,4.67,5.14l2.35,2.76c1.22,1.44,2.5,3,2.75,4.86"/><path class="cls-6" d="M152.73,90.81c-4.35,3.14-8.78,6.37-11.84,10.77-1.66,2.38-2.95,5.14-5.28,6.89s-5.13,2.16-7.91,2.34-5.62.12-8.31.86c-.81.23-1.76.51-2.43,0"/><path class="cls-6" d="M153,90.59c-2.38.71-4.9-.18-7.37-.44-6.08-.63-11.85,2.59-16.92,6s-10.19,7.27-16.24,8.14"/><path class="cls-6" d="M168.15,57.4C167,62.48,164.1,67,160.75,71s-7.19,7.56-10.7,11.41a20.62,20.62,0,0,0-4.68,7"/><path class="cls-6" d="M168.22,57.16c-5.09,5.29-12.47,7.5-19.21,10.41-2.43,1.05-4.8,2.21-7.18,3.38l-10.47,5.13a64.82,64.82,0,0,0-8.52,4.72c-6.39,4.42-11,11-15.39,17.34"/><path class="cls-6" d="M147.61,68.7a82.62,82.62,0,0,1-16.49-.29,16.15,16.15,0,0,0-6.31,0,12.58,12.58,0,0,0-3.57,1.83,51.05,51.05,0,0,0-15.47,16.4,10.78,10.78,0,0,0-1.39,3.17,11.76,11.76,0,0,0,0,3.79c.15,1.31.31,2.61.46,3.91"/><path class="cls-7" d="M167.84,57.85c-3.07,4.38-6.24,8.86-10.65,11.87-3,2.07-6.51,3.36-9.56,5.38-3.38,2.23-6.13,5.28-9.35,7.75-2.64,2-5.59,3.65-8.24,5.68-3.62,2.77-6.64,6.27-10.27,9-2.76,2.08-5.91,3.78-8,6.56"/><path class="cls-7" d="M167.19,58.49a83.76,83.76,0,0,1-6.83,6.08C154.19,69.33,146.86,72.29,140,76a107.25,107.25,0,0,0-17.56,11.77c-4.75,3.91-9.23,8.33-12.17,13.73"/><path class="cls-7" d="M155.42,77.16c-6.29,4.94-14.94,6.5-20.5,12.25A35.86,35.86,0,0,0,131,94.56"/><path class="cls-7" d="M137.53,68.68c-5.2,1.23-10.43,2.85-14.8,5.93a50.14,50.14,0,0,0-6,5.28,49.08,49.08,0,0,0-7.21,8.17,16.36,16.36,0,0,0-2.91,10.31"/><path class="cls-7" d="M152.36,91c-7.47,2.51-15.56,3.77-22.06,8.22-4.89,3.34-8.79,8.43-14.48,10.11"/><path class="cls-7" d="M145.71,93.17a13.63,13.63,0,0,0-4.28,2.13c-1.83,1.39-3.19,3.3-4.8,4.93a41.57,41.57,0,0,1-4.49,3.78c-2.9,2.23-5.91,4.51-9.46,5.43-.69.18-1.4.3-2.09.5a19.31,19.31,0,0,0-3.65,1.64"/><path class="cls-6" d="M40.41,77a9.14,9.14,0,0,1-5.18,5.77c-2.16.89-4.59.92-6.81,1.66a1.56,1.56,0,0,1-.52.11,1.4,1.4,0,0,1-.95-.69c-2.87-3.82-5.39-8.28-5.17-13.05a4.66,4.66,0,0,1,.28-1.53,3.79,3.79,0,0,1,3.93-2,11.17,11.17,0,0,1,4.33,1.76l7.53,4.4a7.3,7.3,0,0,1,1.71,1.25,2.38,2.38,0,0,1,.68,1.94"/><path class="cls-6" d="M48.63,34.73C46.91,40,48.79,46,47.15,51.33c-.63,2.06-1.75,3.92-2.52,5.93-.94,2.47-1.32,5.14-2.4,7.55a14.28,14.28,0,0,1-6.37,6.77"/><path class="cls-6" d="M48.62,34.56C47.44,36,46,37.63,44.12,37.7a9.73,9.73,0,0,1-2.55-.48c-3.41-.82-7,0-10.24,1.36a12.73,12.73,0,0,0-5.49,3.7,15.09,15.09,0,0,0-2,4,41.9,41.9,0,0,0-2.5,8.58,13.92,13.92,0,0,0,1.32,8.7c.66,1.18,1.58,2.32,1.62,3.67"/><path class="cls-6" d="M62.48,14.15l-5.66,4.7a35.79,35.79,0,0,1-2.93,2.27c-1.25.86-2.61,1.56-3.92,2.32a27.82,27.82,0,0,0-6.87,5.37,15.49,15.49,0,0,0-3.87,7.72"/><path class="cls-6" d="M62.52,14A55.06,55.06,0,0,0,60,40.24c.73,4.9,2.07,10.15-.07,14.62-1.35,2.83-3.92,4.88-5.67,7.49-1.08,1.61-1.84,3.42-2.86,5.08a19,19,0,0,1-10.85,8.2"/><path class="cls-6" d="M57,18.15a6.67,6.67,0,0,1-4,1.41,52.93,52.93,0,0,1-10,.11c-2.36-.2-4.79-.55-7,.17-3.47,1.09-5.78,4.54-6.54,8.1s-.28,7.25.22,10.85"/><path class="cls-7" d="M61.94,15.12c-5,8-6.22,17.87-6.24,27.35,0,1.94,0,3.89-.14,5.83a31.51,31.51,0,0,1-5.5,14.63,51.48,51.48,0,0,1-10.9,11.35"/><path class="cls-7" d="M61.73,15.49c-4.81,3.77-8.8,8.85-10.29,14.78a41.88,41.88,0,0,0-.94,7.66c-.4,7.17-.68,14.48-3.15,21.22a34.19,34.19,0,0,1-9.73,14.06"/><path class="cls-7" d="M47.63,35.88c-4.26,6.14-5.76,13.7-7.88,20.86A46.55,46.55,0,0,1,38,61.64a27.26,27.26,0,0,1-5.79,8.48"/><path class="cls-7" d="M47.94,35.61c-1.28,1.9-3.65,2.65-5.62,3.82a18,18,0,0,0-7.13,9,53.9,53.9,0,0,0-2.66,11.39c-.23,1.45-.45,2.9-.68,4.36a12.23,12.23,0,0,1-1.43,4.72"/><path class="cls-7" d="M43.9,37.55c-5.07,1.5-10.39,3.15-14,7a10.68,10.68,0,0,0-1.65,2.25A16.72,16.72,0,0,0,27,50.18c-1.54,5.56-3.09,11.5-1.32,17"/><path class="cls-7" d="M54.92,19.54l-7,2.57a40.17,40.17,0,0,0-6,2.55,11.2,11.2,0,0,0-3,2.28c-1.58,1.79-2.23,4.2-2.84,6.52-.33,1.29-.67,2.58-1,3.87"/><path class="cls-7" d="M54.06,19.59A61.06,61.06,0,0,1,40.82,22.8c-1.69.22-3.48.4-4.82,1.45a7.85,7.85,0,0,0-2.27,3.65,34.56,34.56,0,0,0-2.08,10.2"/><path class="cls-6" d="M89.71,84.33c-2.49,1.54-3.77,4.41-4.95,7.09a76.53,76.53,0,0,1-7,13.19,30.07,30.07,0,0,1-10.92,10c-7.86,4-17.29,3.08-25.78.79-1.35-.37-2.89-.74-4.06,0"/><path class="cls-6" d="M36.65,115.57c1.65-1.75,2-4.33,2.07-6.74s-.13-4.88.68-7.15a17.35,17.35,0,0,1,2.5-4.19c4.84-6.59,10.16-13.55,17.9-16.18A15.94,15.94,0,0,1,64,80.44a26.39,26.39,0,0,1,4.86.29c4.59.55,9.19,1.1,13.77,1.73a13.85,13.85,0,0,1,4.41,1.13c.83.42,1.73,1,2.62.75"/><path class="cls-6" d="M89.45,84.66,84,86.22a43.77,43.77,0,0,0-4.46,1.45C73.42,90.16,68.76,95.22,63.31,99c-4.4,3.06-9.32,5.27-13.85,8.12C48,108,46.52,109,45.07,110q-3.81,2.64-7.63,5.27"/><path class="cls-7" d="M46,92.56l.54,3.54c.64,4.14,1.26,8.44.11,12.46"/><path class="cls-7" d="M59,116.84c-4.26-2.46-7.63-6.36-12.14-8.35"/><path class="cls-7" d="M55.73,83.64c1,4.38,1.74,8.91,1.12,13.36a44.05,44.05,0,0,1-1.47,6.18"/><path class="cls-7" d="M73.35,110a46.26,46.26,0,0,0-12.65-6.17,8.62,8.62,0,0,0-4.25-.48"/><path class="cls-7" d="M66.56,80.9a15.53,15.53,0,0,1,.51,7.51,46.78,46.78,0,0,1-2,7.34,9.46,9.46,0,0,1-1.44,3.12"/><path class="cls-7" d="M80.52,100a16.62,16.62,0,0,0-5.1-2.94,14.33,14.33,0,0,0-2.15-.42C70.78,96.26,68,96,66,97.42"/><path class="cls-6" d="M61.36,127c-1.43,1.41-1.33,3.67-1.5,5.66-.41,4.79-2.87,9.12-5.27,13.28-1,1.7-2,3.4-3.08,5A36.9,36.9,0,0,1,30,165.67"/><path class="cls-6" d="M61.44,126.93c-7.09.74-14.45,0-21.19,2.27a24.28,24.28,0,0,0-11.16,8,13.46,13.46,0,0,0-2.82,5.73,17.85,17.85,0,0,0-.21,3,35.18,35.18,0,0,0,.39,7.33,33.83,33.83,0,0,0,1,3.71c.87,2.79,1.74,5.57,2.6,8.36"/><path class="cls-6" d="M61.36,127a61.32,61.32,0,0,0-14.71,7.66,32.63,32.63,0,0,0-4.23,3.29,22.25,22.25,0,0,0-5,6.91c-3,6.55-2.82,14.46-7,20.36"/><path class="cls-7" d="M44,158.75a13.91,13.91,0,0,1-2.57.33l-8.44.54"/><path class="cls-7" d="M32.75,159.28q-3.13-3-6.4-5.88"/><path class="cls-7" d="M34.66,153.54a6.89,6.89,0,0,0-1.18-2.28,26.7,26.7,0,0,0-6.81-6.64"/><path class="cls-7" d="M34.83,153a16.82,16.82,0,0,1,3.45-.81,34.33,34.33,0,0,1,5.71-.58A11.36,11.36,0,0,1,49.51,153"/><path class="cls-7" d="M36.57,146.62c.18-2.43-.89-4.77-2.12-6.87a10.44,10.44,0,0,0-3.77-4.18"/><path class="cls-7" d="M53.13,146.44a10.93,10.93,0,0,0-5.75-2,31.77,31.77,0,0,0-6.16.25c-1.5.15-3.16.39-4.09,1.57"/><path class="cls-7" d="M41.37,138.5a8.52,8.52,0,0,0,.7-6.82,3.9,3.9,0,0,0-1.13-2"/><path class="cls-7" d="M57,141.59a12.38,12.38,0,0,0-9-3.91,24.26,24.26,0,0,0-5.59.91"/><path class="cls-7" d="M59.2,135.31a6.88,6.88,0,0,0-2.91-1.83,20.39,20.39,0,0,0-3.38-.75,7.19,7.19,0,0,0-3.13,0"/><path class="cls-7" d="M51.82,127.58A5.87,5.87,0,0,1,50,131.72"/><path class="cls-6" d="M110,190.74c1.7-4.3,4.8-7.87,7.2-11.82s4.15-8.76,2.71-13.15a13.08,13.08,0,0,0-2-3.7A33.55,33.55,0,0,0,113,157q-4-3.57-8.35-6.79a29.69,29.69,0,0,0-4.38-2.82,33.83,33.83,0,0,0-4.71-1.79c-2.37-.76-4.9-1.54-7.32-.91-.53.13-1.17.32-1.59,0"/><path class="cls-6" d="M86.63,144.56c.19,2.29-.61,4.53-1,6.79A15.93,15.93,0,0,0,87.52,163a26.94,26.94,0,0,0,4.34,4.66c2.44,2.27,4.83,4.6,7.21,6.94l5,4.84a17.58,17.58,0,0,1,3.29,3.92,17.22,17.22,0,0,1,1.25,3.24l1.23,3.93"/><path class="cls-6" d="M109.9,190.86l.36-8.05a22,22,0,0,0-.15-4.87,15.86,15.86,0,0,0-4.28-7.64c-2-2.17-4.33-4-6.4-6.15a37.34,37.34,0,0,1-5.68-7.49c-1.07-1.85-2-3.79-3-5.66a47.32,47.32,0,0,0-3.66-5.71"/><path class="cls-7" d="M90.46,151.07c.24,1.55-.7,3-1.46,4.37a11.8,11.8,0,0,0-1.7,6.67"/><path class="cls-7" d="M91.14,151.22a6.39,6.39,0,0,0,3.92.15,38.64,38.64,0,0,0,3.76-1.27,8.49,8.49,0,0,1,2.2-.52,5.32,5.32,0,0,1,3.85,1.28"/><path class="cls-7" d="M112.51,156.16a7.32,7.32,0,0,0-2.71-1,9.77,9.77,0,0,0-4.6.79,25.56,25.56,0,0,1-4.47,1.51A9.29,9.29,0,0,1,94,156.06"/><path class="cls-7" d="M93.19,156.3a5.34,5.34,0,0,1-.07,3.19c-.2.61-.52,1.18-.77,1.78a8.72,8.72,0,0,0-.17,6.26"/><path class="cls-7" d="M98.25,163.14c-.38,1.64-.75,3.29-1.13,4.93a10.81,10.81,0,0,0-.38,2.71,3.57,3.57,0,0,0,1,2.48"/><path class="cls-7" d="M119.82,169.79a4.43,4.43,0,0,0-1.27-4,7.22,7.22,0,0,0-3.85-1.93,21.75,21.75,0,0,0-4.35-.29h-6.57a12.49,12.49,0,0,1-5.2-.72"/><path class="cls-7" d="M104.56,169a10.79,10.79,0,0,1-.28,4.59c-.46,1.58-1.3,3.22-.82,4.8"/><path class="cls-7" d="M105.09,169.18a6.93,6.93,0,0,0,2.37.38,22.45,22.45,0,0,1,6.61,1.46,10,10,0,0,1,2.89,1.59,5,5,0,0,1,1.77,2.73"/><path class="cls-7" d="M109.28,176a4.65,4.65,0,0,1-.65,2.8c-.46.85-1.06,1.63-1.51,2.49a1.83,1.83,0,0,0-.28,1.42"/><path class="cls-7" d="M109.56,176.77c2.17,1.18,4.67,1.68,6.69,3.09"/><path class="cls-6" d="M28.12,84.53C22.7,99.78,17.19,115,10.63,129.82a341.11,341.11,0,0,1-43.47,72.23c-7.17,9.13-14.85,18-20.3,28.21-5.12,9.61-8.32,20.53-15.81,28.44"/><path class="cls-6" d="M37.64,115.29c-6.46,2.79-11.53,8-17.43,11.85a14.94,14.94,0,0,1-5.46,2.45,10.15,10.15,0,0,0-1.55.32c-1.15.4-2,1.43-3,2"/><path class="cls-6" d="M-2.86,132.55c.18,1.32.4,2.64.66,3.95a16.77,16.77,0,0,0,2.72,7,17.44,17.44,0,0,1,1.28,1.69,2.72,2.72,0,0,1,.38,2"/><path class="cls-6" d="M101.83,112.15A230.61,230.61,0,0,0,80.24,133c-4.6,5-9,10.3-13.89,15-13.93,13.4-31.66,22.06-47,33.85a138.37,138.37,0,0,1-11.83,8.8,94,94,0,0,1-12.93,6.27l-35,14.79"/><path class="cls-6" d="M30.14,165.58a12.69,12.69,0,0,0-2.34,7.84,4.22,4.22,0,0,1-.39,2.71"/><path class="cls-6" d="M87,145a6.35,6.35,0,0,0-3.75-1.87,17.27,17.27,0,0,0-4.25,0q-1.8.17-3.57.36a21,21,0,0,1-4.41.2"/></g><text class="cls-8" transform="translate(223.26 189.46)">THÂN MỜI</text><path class="cls-9" d="M278.9,725a7.27,7.27,0,0,0,3.25,2.81,37.91,37.91,0,0,1,6.16,4.1,15,15,0,0,1,4.36,5.9c1.55,4.07.64,8.68-.92,12.76a2.53,2.53,0,0,0-.2,2"/><path class="cls-9" d="M291.63,752.73a5,5,0,0,0-3.22-1.36,11.12,11.12,0,0,1-3.5-.7,8.5,8.5,0,0,1-1.94-1.44c-3-2.72-6.17-5.7-7.08-9.66a8,8,0,0,1-.21-2.12,13.72,13.72,0,0,1,.38-2.38c.51-2.24,1-4.48,1.56-6.71a6.75,6.75,0,0,1,.78-2.12c.25-.39.6-.8.5-1.25"/><path class="cls-9" d="M279.05,725.11c.16.92.33,1.84.49,2.76.14.76.28,1.53.49,2.27.92,3.16,3.18,5.72,4.77,8.6,1.28,2.32,2.13,4.86,3.3,7.25.39.78.81,1.54,1.23,2.31l2.21,4"/><path class="cls-10" d="M280.75,747l1.77-.09a14.66,14.66,0,0,1,6.16.58"/><path class="cls-10" d="M293.39,741.76c-1.43,2-3.53,3.44-4.74,5.57"/><path class="cls-10" d="M276.84,741.7a18.28,18.28,0,0,1,6.64.12,21.88,21.88,0,0,1,3,1"/><path class="cls-10" d="M290.72,734.34a22.5,22.5,0,0,0-3.69,5.93,4.32,4.32,0,0,0-.46,2.07"/><path class="cls-10" d="M276,736.21a7.77,7.77,0,0,1,3.74.14,22.74,22.74,0,0,1,3.52,1.34,5,5,0,0,1,1.47.87"/><path class="cls-10" d="M286.16,730.3a8.11,8.11,0,0,0-1.71,2.36,7.79,7.79,0,0,0-.32,1c-.3,1.21-.6,2.57,0,3.65"/><path class="cls-9" d="M460.9,806.55a7.25,7.25,0,0,0-3.75,2.08,37.29,37.29,0,0,1-6,4.38,15,15,0,0,1-7,2.08c-4.36.06-8.38-2.38-11.67-5.24a2.52,2.52,0,0,0-1.82-.87"/><path class="cls-9" d="M430.44,809a4.87,4.87,0,0,0,2.39-2.56,11.46,11.46,0,0,1,1.85-3,8.38,8.38,0,0,1,2-1.33c3.59-1.89,7.47-3.85,11.49-3.34a7.78,7.78,0,0,1,2.07.53,12.49,12.49,0,0,1,2.11,1.18c1.93,1.24,3.86,2.48,5.77,3.76a6.7,6.7,0,0,1,1.72,1.46c.28.37.55.83,1,.9"/><path class="cls-9" d="M460.71,806.64l-2.76-.49a22.48,22.48,0,0,0-2.31-.31c-3.27-.22-6.46,1-9.7,1.53-2.63.4-5.3.33-7.95.61-.86.09-1.72.23-2.59.36l-4.55.7"/><path class="cls-10" d="M439.6,800.74l-.52,1.69a14.61,14.61,0,0,1-2.66,5.59"/><path class="cls-10" d="M440.15,814.4c-1.37-2-2-4.5-3.61-6.36"/><path class="cls-10" d="M445.88,798.87a18.21,18.21,0,0,1-2.39,6.2,22.38,22.38,0,0,1-2,2.44"/><path class="cls-10" d="M448,814.43a22.5,22.5,0,0,0-4.31-5.49,4.16,4.16,0,0,0-1.79-1.14"/><path class="cls-10" d="M451.31,800a7.81,7.81,0,0,1-1.4,3.46,24.74,24.74,0,0,1-2.47,2.85,5,5,0,0,1-1.32,1.08"/><path class="cls-10" d="M453.4,811.54a8.21,8.21,0,0,0-1.64-2.42,7.87,7.87,0,0,0-.87-.65c-1-.71-2.2-1.45-3.43-1.24"/><path class="cls-9" d="M172.35,134.34a7.31,7.31,0,0,0-3.74,2.09,38.63,38.63,0,0,1-6,4.38,15.06,15.06,0,0,1-7,2.07c-4.36.06-8.38-2.37-11.67-5.24a2.56,2.56,0,0,0-1.82-.87"/><path class="cls-9" d="M141.9,136.78a5,5,0,0,0,2.39-2.56,11.11,11.11,0,0,1,1.85-3.05,8.83,8.83,0,0,1,2-1.33c3.59-1.89,7.47-3.84,11.5-3.34a8,8,0,0,1,2.06.53,13.22,13.22,0,0,1,2.11,1.18c1.93,1.24,3.86,2.48,5.77,3.76a7,7,0,0,1,1.73,1.46c.28.37.54.84,1,.9"/><path class="cls-9" d="M172.16,134.43,169.4,134a19.87,19.87,0,0,0-2.3-.32c-3.28-.22-6.46,1-9.71,1.53-2.62.41-5.3.33-7.94.61-.87.1-1.73.23-2.59.36l-4.55.7"/><path class="cls-10" d="M151.05,128.53c-.17.57-.34,1.13-.52,1.7a14.42,14.42,0,0,1-2.66,5.58"/><path class="cls-10" d="M151.6,142.19c-1.36-2-2-4.49-3.6-6.36"/><path class="cls-10" d="M157.34,126.66a18.49,18.49,0,0,1-2.4,6.21,23.14,23.14,0,0,1-2,2.44"/><path class="cls-10" d="M159.49,142.23a22.55,22.55,0,0,0-4.31-5.5,4.16,4.16,0,0,0-1.79-1.14"/><path class="cls-10" d="M162.77,127.79a7.66,7.66,0,0,1-1.41,3.46,22.94,22.94,0,0,1-2.47,2.85,4.74,4.74,0,0,1-1.32,1.08"/><path class="cls-10" d="M164.85,139.33a8.18,8.18,0,0,0-1.63-2.42,9.37,9.37,0,0,0-.87-.65,4.94,4.94,0,0,0-3.44-1.23"/><path class="cls-11" d="M104.7,40.72a3.66,3.66,0,0,0-1.92,1.07A19.83,19.83,0,0,1,99.71,44a7.7,7.7,0,0,1-3.61,1.07,9.4,9.4,0,0,1-6-2.7,1.28,1.28,0,0,0-.93-.44"/><path class="cls-11" d="M89.06,42a2.55,2.55,0,0,0,1.22-1.32,6,6,0,0,1,1-1.56,4.44,4.44,0,0,1,1-.68c1.85-1,3.84-2,5.91-1.72a3.84,3.84,0,0,1,1.06.27,6.47,6.47,0,0,1,1.09.61c1,.63,2,1.27,3,1.93a3.55,3.55,0,0,1,.89.75c.14.19.28.43.51.46"/><path class="cls-11" d="M104.61,40.76l-1.42-.25c-.39-.06-.79-.13-1.19-.16-1.68-.11-3.31.53-5,.79-1.35.21-2.73.17-4.08.31-.45,0-.89.12-1.34.19L89.27,42"/><path class="cls-12" d="M93.76,37.73l-.27.87a7.4,7.4,0,0,1-1.36,2.87"/><path class="cls-12" d="M94,44.75a34.84,34.84,0,0,0-1.85-3.27"/><path class="cls-12" d="M97,36.77A9.45,9.45,0,0,1,95.76,40a11.21,11.21,0,0,1-1,1.25"/><path class="cls-12" d="M98.1,44.77a11.72,11.72,0,0,0-2.22-2.83,2.18,2.18,0,0,0-.92-.58"/><path class="cls-12" d="M99.78,37.35a4,4,0,0,1-.72,1.78,11.76,11.76,0,0,1-1.27,1.46,2.78,2.78,0,0,1-.68.56"/><path class="cls-12" d="M100.85,43.28A4.24,4.24,0,0,0,100,42a3.79,3.79,0,0,0-.45-.34,2.53,2.53,0,0,0-1.76-.63"/><path class="cls-13" d="M57.81,238.17c-1.74.18-3.18,1.38-4.52,2.52A45.21,45.21,0,0,1,46.1,246a18.06,18.06,0,0,1-8.49,2.51c-5.26.06-10.1-2.87-14.07-6.32a3,3,0,0,0-2.19-1"/><path class="cls-13" d="M21.08,241.11A5.89,5.89,0,0,0,24,238a13.58,13.58,0,0,1,2.24-3.67,10.29,10.29,0,0,1,2.44-1.6c4.33-2.28,9-4.64,13.86-4a9.78,9.78,0,0,1,2.5.64,16.64,16.64,0,0,1,2.54,1.42c2.33,1.5,4.65,3,7,4.53a8.25,8.25,0,0,1,2.08,1.77c.34.44.66,1,1.22,1.08"/><path class="cls-13" d="M57.58,238.28l-3.32-.58c-.93-.16-1.85-.32-2.78-.39-4-.26-7.79,1.24-11.71,1.85-3.17.49-6.39.4-9.58.74-1,.12-2.08.28-3.12.43l-5.49.85"/><path class="cls-14" d="M32.13,231.17c-.21.68-.42,1.36-.64,2-.74,2.4-1.52,4.87-3.2,6.74"/><path class="cls-14" d="M32.79,247.64c-1.65-2.44-2.44-5.42-4.35-7.66"/><path class="cls-14" d="M39.7,228.91a21.77,21.77,0,0,1-2.89,7.48,26.19,26.19,0,0,1-2.4,3"/><path class="cls-14" d="M42.3,247.68a27.32,27.32,0,0,0-5.19-6.63A5.11,5.11,0,0,0,35,239.68"/><path class="cls-14" d="M46.25,230.27a9.33,9.33,0,0,1-1.69,4.18,28.51,28.51,0,0,1-3,3.43A6,6,0,0,1,40,239.19"/><path class="cls-14" d="M48.77,244.2a9.66,9.66,0,0,0-2-2.92,8.89,8.89,0,0,0-1-.79c-1.25-.85-2.66-1.74-4.15-1.49"/><path class="cls-3" d="M71.79,192.11a6,6,0,1,1-6-6A6,6,0,0,1,71.79,192.11Z"/><path class="cls-3" d="M398.05,714.25a6,6,0,1,1-6-6A6,6,0,0,1,398.05,714.25Z"/><path class="cls-3" d="M83.8,68.13a3,3,0,1,1-3-3A3,3,0,0,1,83.8,68.13Z"/><path class="cls-3" d="M225,103a3,3,0,1,1-3-3A3,3,0,0,1,225,103Z"/><path class="cls-3" d="M254.45,748.5a3,3,0,1,1-3-3A3,3,0,0,1,254.45,748.5Z"/><path class="cls-3" d="M536.25,797.77a3,3,0,1,1-3-3A3,3,0,0,1,536.25,797.77Z"/><path class="cls-3" d="M57.37,757.52a3,3,0,1,1-3-3A3,3,0,0,1,57.37,757.52Z"/><text class="cls-15" transform="translate(274.61 564.42)">15</text><text class="cls-16" transform="translate(191.92 561.49)">JU<tspan class="cls-17" x="28.34" y="0">L</tspan><tspan x="40.1" y="0">Y</tspan></text><text class="cls-18" transform="translate(333.35 561.49)"><tspan class="cls-19">202</tspan><tspan x="42.78" y="0">3</tspan></text><path class="cls-20" d="M265.72,555.62a2,2,0,1,1-2-2A2,2,0,0,1,265.72,555.62Z"/><path class="cls-20" d="M324,555.62a2,2,0,1,1-2-2A2,2,0,0,1,324,555.62Z"/><text class="cls-21" transform="translate(141.41 591.22)">5:30pm | <tspan class="cls-22" x="89.79" y="0">N</tspan><tspan x="103.68" y="0">hà hàng Hoàng </tspan><tspan class="cls-23" x="254.41" y="0">L</tspan><tspan x="264.94" y="0">ong</tspan></text><text class="cls-24" transform="translate(81.92 620.42)">S<tspan class="cls-25" x="11.18" y="0">ố 2, </tspan><tspan class="cls-26" x="54.27" y="0">L</tspan><tspan class="cls-25" x="64.8" y="0">ê </tspan><tspan class="cls-27" x="82.61" y="0">D</tspan><tspan class="cls-28" x="96.51" y="0">uẩn, </tspan><tspan class="cls-29" x="144.62" y="0">P</tspan><tspan class="cls-25" x="154.09" y="0">. </tspan><tspan class="cls-30" x="167.2" y="0">B</tspan><tspan class="cls-25" x="179.13" y="0">ến Ngh</tspan><tspan class="cls-31" x="246.97" y="0">é</tspan><tspan class="cls-25" x="258" y="0">, </tspan><tspan class="cls-32" x="271.1" y="0">Q</tspan><tspan class="cls-25" x="285.37" y="0">uận 1,</tspan><tspan class="cls-33" x="344.89" y="0"> </tspan><tspan class="cls-28" x="350.83" y="0">T</tspan><tspan class="cls-29" x="361.98" y="0">P</tspan><tspan class="cls-25" x="371.45" y="0">.HCM</tspan></text></g><g id="PRINT_1" data-name="PRINT 1"><g class="cls-34"><path class="cls-5" d="M-313.8,919.63c5.64-40.16,15-82.82,38.44-116.69,11.19-16.15,25.9-29.56,44.24-37,23.82-9.7,50.65-3.7,75.6-7.65,32.71-5.17,55.24-28.08,67.48-58,1.85-4.52,3.51-9.32,3.06-14.19s-3.55-9.81-8.31-10.93c-5.89-1.38-11.77,3.74-13.28,9.61s.19,12,2.25,17.74c4,11.09,9.95,22.29,20.18,28.16,5.32,3.05,11.42,4.43,17.42,5.76l35.19,7.84c10.12,2.25,20.45,4.59,29.23,10.09s15.88,14.84,15.79,25.2"/><path class="cls-35" d="M43.73,204.67c-3.87-4.28-6.14-9.73-9.22-14.61s-7.5-9.5-13.21-10.33a16.76,16.76,0,0,0-5.24.16,42.17,42.17,0,0,0-8.46,2.66c-4.15,1.68-8.23,3.55-12.23,5.58a38,38,0,0,0-5.59,3.33,42.31,42.31,0,0,0-4.6,4.28c-2.18,2.23-4.45,4.63-5.09,7.68-.15.68-.29,1.49-.92,1.77"/><path class="cls-35" d="M-20.9,205.19c2.67,1.06,4.73,3.19,7,4.93,4,3,9.13,4.95,14.15,4.33a33.83,33.83,0,0,0,7.62-2.26c3.9-1.48,7.83-2.85,11.77-4.23l8.16-2.84A21.7,21.7,0,0,1,34,203.61a21.81,21.81,0,0,1,4.33.4l5.07.81"/><path class="cls-35" d="M43.82,204.85,35,200a27,27,0,0,0-5.52-2.53c-3.56-1-7.38-.5-10.93.54s-6.92,2.61-10.43,3.75a46.28,46.28,0,0,1-11.53,2.2c-2.66.17-5.34.1-8,.21a62.68,62.68,0,0,0-8.42.93"/><path class="cls-36" d="M6.44,182.67a9.11,9.11,0,0,0-2.61,2.49,12.15,12.15,0,0,0-1.67,5.59,33.51,33.51,0,0,1-.79,5.83,11.61,11.61,0,0,1-5.31,6.76"/><path class="cls-36" d="M-4.13,204.37A6.64,6.64,0,0,1-.6,206.21c.57.58,1,1.25,1.56,1.86a11,11,0,0,0,6.92,3.66"/><path class="cls-36" d="M6.33,202.51l4.9,4A13.75,13.75,0,0,0,14,208.43a4.52,4.52,0,0,0,3.32.29"/><path class="cls-36" d="M25.75,182.06a5.59,5.59,0,0,0-5.18-.8,9.21,9.21,0,0,0-4.29,3.24,27.25,27.25,0,0,0-2.73,4.71l-3.63,7.35A16,16,0,0,1,6.22,202"/><path class="cls-36" d="M16.38,198.68a13.45,13.45,0,0,1,5,2.87c1.52,1.4,2.88,3.24,4.92,3.59"/><path class="cls-36" d="M16.88,198.21a8.71,8.71,0,0,0,1.75-2.44,27.82,27.82,0,0,1,5.29-6.59,13,13,0,0,1,3.39-2.36,6.2,6.2,0,0,1,4-.45"/><path class="cls-36" d="M26.87,197.32a5.76,5.76,0,0,1,2.78,2.27c.7,1,1.24,2.09,2,3.08A2.34,2.34,0,0,0,33,203.78"/><path class="cls-36" d="M27.87,197.41c2.51-1.77,4.47-4.29,7.16-5.77"/><path class="cls-35" d="M-120.52,237.34c14,14.53,28,29.14,41,44.7a426.1,426.1,0,0,1,56.69,88.72c6.23,13.08,11.86,26.59,20.29,38.37,7.92,11.06,18.36,20.7,23.05,33.47"/></g></g></svg>