<svg xmlns="http://www.w3.org/2000/svg" xmlns:xlink="http://www.w3.org/1999/xlink" viewBox="0 0 815.32 1030.83"><defs><style>.cls-1,.cls-17,.cls-18,.cls-5,.cls-6,.cls-7,.cls-8,.cls-9{fill:none;}.cls-2{clip-path:url(#clip-path);}.cls-3{fill:#f2eceb;}.cls-4{fill:#e9dad3;}.cls-5,.cls-6,.cls-7,.cls-8,.cls-9{stroke:#ceb3aa;}.cls-17,.cls-18,.cls-5,.cls-6,.cls-7,.cls-8,.cls-9{stroke-linecap:round;stroke-linejoin:round;}.cls-5{stroke-width:2.13px;}.cls-6{stroke-width:2.98px;}.cls-7{stroke-width:1.49px;}.cls-17,.cls-8{stroke-width:1.55px;}.cls-18,.cls-9{stroke-width:0.78px;}.cls-10{font-size:80px;}.cls-10,.cls-11,.cls-12,.cls-19{fill:#8e776e;}.cls-10,.cls-11{font-family:iCielSupaMegaFantastic-Regular, iCiel Supa Mega Fantastic;}.cls-11{font-size:111.51px;}.cls-12{font-size:20px;letter-spacing:0.3em;}.cls-12,.cls-19{font-family:Montserrat-SemiBold, Montserrat SemiBold;font-weight:600;}.cls-13{letter-spacing:0.25em;}.cls-14{letter-spacing:0.26em;}.cls-15{letter-spacing:0.29em;}.cls-16{letter-spacing:0.22em;}.cls-17,.cls-18{stroke:#e0cec7;}.cls-19{font-size:24px;letter-spacing:0.2em;}</style><clipPath id="clip-path"><rect class="cls-1" x="111.84" y="66.43" width="624" height="870"/></clipPath></defs><title>card-front</title><g id="Layer_2" data-name="Layer 2"><g id="PRINT_1" data-name="PRINT 1"><g class="cls-2"><rect class="cls-3" x="111.84" y="66.43" width="624" height="870"/><path class="cls-4" d="M116.12,0c22.63,14.26,43.93,31.16,65.36,47.13,15.11,11.25,31.87,24.53,43.72,40.56a91.27,91.27,0,0,1,7.86,12.54c5.82,11.32,9.1,25.36,6.35,38.39-3.54,16.74-16.8,28.19-27,41-16.2,20.32-21.34,45.87-19.74,71.35a234.08,234.08,0,0,0,5.63,36.67c10.21,45.06,1.35,97.68-34.69,129.84-22.35,19.95-53,27.08-82.25,33.52l-41.42,9.11C24.42,463.53,6.86,468.49,0,482.82"/><path class="cls-5" d="M77.32,338.49c20,8.47,52.82,3.26,72.69-4.57,22.81-9,40.68-28.78,52.72-49.59,15-25.93,23.87-54.68,34.87-82.39,18.21-45.89,44.9-90.18,85.93-119,47.33-33.3,107.56-36.53,163-45.26"/><path class="cls-4" d="M407.87,929a92.46,92.46,0,0,1,119-74c14.63,4.58,28.5,12.88,43.83,13.2,18.84.4,36.1-11.68,47.3-26.83s17.54-33.24,24.59-50.71c10.1-25,22.29-49.83,41.16-69.15s45.43-32.6,72.31-30.12L740.41,957.17Z"/><path class="cls-5" d="M456.22,1000.11c5.63-40.16,15-82.82,38.44-116.69,11.18-16.14,25.9-29.56,44.23-37,23.82-9.7,50.65-3.7,75.6-7.65,32.72-5.17,55.24-28.08,67.48-58,1.85-4.52,3.51-9.32,3.06-14.19s-3.54-9.81-8.3-10.93c-5.9-1.38-11.78,3.75-13.29,9.61s.19,12,2.25,17.74c4,11.09,9.95,22.29,20.18,28.16,5.32,3,11.42,4.43,17.42,5.76l35.2,7.84c10.11,2.25,20.44,4.59,29.23,10.09s15.87,14.84,15.79,25.2"/><path class="cls-6" d="M288.29,775.09A6.42,6.42,0,0,1,285.4,780a29.31,29.31,0,0,1-8,3.08,19.77,19.77,0,0,1-6.63-.35,1.39,1.39,0,0,1-.74-.27,1.48,1.48,0,0,1-.36-.78q-.78-3.42-1.55-6.84a25.91,25.91,0,0,1-.74-4.37,12.89,12.89,0,0,1,.6-4.7,2.28,2.28,0,0,1,.85-1.33,2.41,2.41,0,0,1,2.14.19c2.66,1.14,5.2,2.53,7.73,3.92l4,2.17c2.07,1.14,4.25,2.38,5.37,4.45"/><path class="cls-6" d="M321.15,734.93c-3.68,5.59-7.42,11.33-9,17.82-.88,3.53-1.16,7.32-3.11,10.39s-5,4.8-8.19,6.25-6.5,2.63-9.31,4.7c-.85.62-1.83,1.37-2.85,1.07"/><path class="cls-6" d="M321.41,734.54c-2.47,1.88-5.81,2-8.8,2.76-7.38,2-12.69,8.29-17.08,14.53s-8.68,13-15.35,16.71"/><path class="cls-6" d="M324.3,689.08c.89,6.46-.45,13-2.58,19.19s-5,12-7.43,18.07c-1.3,3.3-2.46,6.75-2.32,10.3"/><path class="cls-6" d="M324.28,688.78c-3.59,8.43-11.23,14.28-17.8,20.67-2.36,2.31-4.62,4.72-6.87,7.14q-5,5.31-9.95,10.64a80.85,80.85,0,0,0-7.85,9.29c-5.49,8-7.93,17.65-10.26,27.08"/><path class="cls-6" d="M305.35,711.39a102.61,102.61,0,0,1-19.38,7c-2.56.64-5.24,1.22-7.36,2.8a15.75,15.75,0,0,0-3.36,3.73,63.67,63.67,0,0,0-10.77,26,13.36,13.36,0,0,0-.21,4.32,15,15,0,0,0,1.73,4.41l2.27,4.35"/><path class="cls-7" d="M324.14,689.75c-1.63,6.47-3.34,13.11-7.16,18.59-2.6,3.75-6.09,6.8-8.76,10.51-3,4.11-4.81,8.9-7.47,13.21-2.19,3.54-4.9,6.74-7.09,10.29-3,4.84-5,10.25-8,15.08-2.3,3.66-5.22,7.05-6.4,11.2"/><path class="cls-7" d="M323.67,690.78a105.65,105.65,0,0,1-5.27,10.13c-5.09,8.3-12.33,15-18.72,22.35A133.12,133.12,0,0,0,284.4,744.8c-3.81,6.67-7.08,13.81-8.11,21.43"/><path class="cls-7" d="M318.22,717.8c-5.14,8.56-14.55,14.22-18.48,23.4a45.36,45.36,0,0,0-2.29,7.75"/><path class="cls-7" d="M293.58,715.85c-5.53,3.75-10.91,8-14.64,13.5a63,63,0,0,0-4.67,8.82,60.7,60.7,0,0,0-4.79,12.74c-1,4.45-.85,9.27,1.18,13.33"/><path class="cls-7" d="M320.81,735.37c-7.6,6.25-16.48,11.3-22.09,19.38-4.23,6.08-6.52,13.75-12.4,18.24"/><path class="cls-7" d="M314,740.81a16.9,16.9,0,0,0-4.05,4.38c-1.52,2.43-2.26,5.26-3.41,7.89a52.65,52.65,0,0,1-3.56,6.4c-2.4,3.89-4.9,7.89-8.63,10.54-.73.52-1.51,1-2.22,1.52a24.11,24.11,0,0,0-3.54,3.53"/><path class="cls-6" d="M183.92,768.71a11.41,11.41,0,0,1-3.49,9c-2.12,2-4.94,3.11-7.2,5a1.85,1.85,0,0,1-.56.36,1.76,1.76,0,0,1-1.42-.38c-5.05-3.18-10-7.27-11.83-12.94a6,6,0,0,1-.35-1.91c.06-2,1.82-3.53,3.71-4a13.88,13.88,0,0,1,5.84.13l10.74,1.8a8.75,8.75,0,0,1,2.56.69,3,3,0,0,1,1.65,2"/><path class="cls-6" d="M174.73,715.71c.35,7,5.19,13.08,5.65,20,.18,2.68-.31,5.35-.31,8,0,3.3.74,6.58.56,9.88a17.81,17.81,0,0,1-4.44,10.72"/><path class="cls-6" d="M174.65,715.5c-.73,2.25-1.68,4.76-3.86,5.68a12.21,12.21,0,0,1-3.19.57c-4.34.55-8.15,3.16-11.35,6.14a15.84,15.84,0,0,0-4.77,6.75,19,19,0,0,0-.5,5.58,51.17,51.17,0,0,0,.9,11.13,17.33,17.33,0,0,0,5.39,9.56c1.3,1.09,2.87,2,3.52,3.56"/><path class="cls-6" d="M181.76,685.53q-2.25,4-4.52,8c-.76,1.34-1.52,2.69-2.41,4-1.08,1.56-2.35,3-3.54,4.45a34.59,34.59,0,0,0-5.64,9.32A19.23,19.23,0,0,0,164.57,722"/><path class="cls-6" d="M181.76,685.38a68.55,68.55,0,0,0,8.68,31.72c3,5.4,6.91,10.92,6.4,17.08-.32,3.91-2.41,7.45-3.29,11.27-.55,2.36-.63,4.81-1.09,7.2a23.63,23.63,0,0,1-9,14.39"/><path class="cls-6" d="M177.15,692.64c-.78,1.63-2.45,2.61-4.07,3.43a66.07,66.07,0,0,1-11.6,4.56c-2.85.81-5.84,1.49-8.16,3.32-3.56,2.82-4.72,7.88-4,12.37s2.9,8.58,5.08,12.56"/><path class="cls-7" d="M181.56,686.91c-2.3,11.6.67,23.62,4.86,34.69.86,2.27,1.77,4.53,2.43,6.87a39.34,39.34,0,0,1,.08,19.52,64.13,64.13,0,0,1-7.69,18.08"/><path class="cls-7" d="M181.48,687.43c-3.94,6.54-6.35,14.23-5.44,21.81a51.49,51.49,0,0,0,2.3,9.37c2.71,8.55,5.63,17.2,5.74,26.17A42.55,42.55,0,0,1,179,765.5"/><path class="cls-7" d="M174.08,717.5c-2.25,9-.64,18.54.06,27.84a53.84,53.84,0,0,1,.18,6.47,33.89,33.89,0,0,1-3,12.48"/><path class="cls-7" d="M174.32,717c-.65,2.78-3.09,4.72-4.87,7-3,3.82-4.24,8.83-4.3,13.7s.95,9.7,1.95,14.48l1.14,5.38a15.28,15.28,0,0,1,.43,6.15"/><path class="cls-7" d="M170.47,721.1c-5.26,4-10.73,8.29-13.24,14.4a13.22,13.22,0,0,0-.93,3.36,20.27,20.27,0,0,0,.09,4.47c.66,7.17,1.5,14.8,6,20.43"/><path class="cls-7" d="M175.33,695.18l-7,6.1a51.52,51.52,0,0,0-5.82,5.62,14,14,0,0,0-2.45,4c-1.06,2.8-.74,5.9-.42,8.88.18,1.65.37,3.31.55,5"/><path class="cls-7" d="M174.35,695.62a76.89,76.89,0,0,1-14,9.63c-1.87,1-3.89,2-5,3.84a9.9,9.9,0,0,0-1,5.25,43.7,43.7,0,0,0,2.11,12.84"/><path class="cls-6" d="M244.71,755.36c-2.22,2.9-2.45,6.81-2.63,10.46a95.68,95.68,0,0,1-2.26,18.5,37.62,37.62,0,0,1-8.33,16.48c-7.42,8.09-18.81,11.26-29.73,12.35-1.74.18-3.7.43-4.74,1.83"/><path class="cls-6" d="M196.66,815.39c1.14-2.78.43-6-.58-8.79S193.76,801,193.7,798a21.25,21.25,0,0,1,1.05-6c2.72-9.85,5.84-20.33,13.71-26.84a20.39,20.39,0,0,1,4.52-2.88,34.39,34.39,0,0,1,5.81-1.83c5.6-1.39,11.21-2.79,16.84-4.09a17.18,17.18,0,0,1,5.65-.64c1.16.12,2.47.44,3.38-.29"/><path class="cls-6" d="M244.55,755.86l-5.64,4.23a55.44,55.44,0,0,0-4.56,3.67c-6.06,5.63-9.26,13.61-13.94,20.43-3.78,5.52-8.53,10.29-12.57,15.63-1.32,1.75-2.57,3.56-3.81,5.37l-6.57,9.54"/><path class="cls-7" d="M197.34,784.38l2.2,3.89c2.58,4.55,5.22,9.29,5.66,14.5"/><path class="cls-7" d="M223.33,806.93c-6.07-1-11.74-4-17.88-4.35"/><path class="cls-7" d="M204.74,769.64c3.14,4.66,6,9.62,7.24,15.09a54.68,54.68,0,0,1,1,7.87"/><path class="cls-7" d="M237,792.53a57.29,57.29,0,0,0-17.5-1.58,10.69,10.69,0,0,0-5.18,1.31"/><path class="cls-7" d="M216.17,761.63a19.32,19.32,0,0,1,3.92,8.54,57.45,57.45,0,0,1,1,9.44,12.35,12.35,0,0,1-.29,4.29"/><path class="cls-7" d="M240.94,777.72a15.23,15.23,0,0,0-10-.71c-3.07.67-6.45,1.55-8.19,4.17"/><path class="cls-6" d="M114.28,825.09c6.28,3.08,13.78,1.62,20.65,2.92a37.49,37.49,0,0,1,12,4.93c4.13,2.45,8.28,5.7,9.46,10.35.79,3.1.19,6.59,1.8,9.35"/><path class="cls-6" d="M114.33,824.91a6.27,6.27,0,0,1,2.71,4.2,45.61,45.61,0,0,1,.55,5.11,23.72,23.72,0,0,0,5.62,12.69,28.84,28.84,0,0,0,11.45,8,19.34,19.34,0,0,0,6.85,1.5c5.55,0,10.69-3.22,16.24-3.4"/><path class="cls-6" d="M157.89,852.74c-5-.35-8.69-4.55-13.1-6.87-1.58-.83-3.27-1.43-4.87-2.21-7.74-3.78-12.89-11.59-20.56-15.51a9.12,9.12,0,0,1-3.1-2"/><path class="cls-7" d="M151.13,836.79a5.87,5.87,0,0,1,1.24,3,47.74,47.74,0,0,1,.28,11.46"/><path class="cls-7" d="M152.31,850.37a41.85,41.85,0,0,0-5,2.1c-1.49.73-2.94,1.55-4.38,2.36l-2.21,1.25"/><path class="cls-7" d="M145.88,847.1a9.83,9.83,0,0,0-5,1.75,30.05,30.05,0,0,1-4.66,2.68,10,10,0,0,1-5.65.51"/><path class="cls-7" d="M145.91,846.35c-.41-3-.43-6-1-9a14,14,0,0,0-3.91-8"/><path class="cls-7" d="M134.59,828.37a3.94,3.94,0,0,1,1.22,1.25c2.77,4.08,3.08,9.28,4.6,14"/><path class="cls-7" d="M140.15,843.75a15.36,15.36,0,0,0-6.68.26c-.91.27-1.78.64-2.67.93a15.3,15.3,0,0,1-8.79.16"/><path class="cls-7" d="M133.37,838.66a19.65,19.65,0,0,0-4.61-10.95"/><path class="cls-7" d="M132.74,838.5l-3.83.52c-3.33.45-6.77.89-10,0"/><path class="cls-7" d="M126.7,833.81a19.58,19.58,0,0,1-8.81,1.12"/><path class="cls-7" d="M126.53,833.36a7.89,7.89,0,0,0-2-5.6"/><path class="cls-6" d="M230.55,817.72c-1,2.27.09,4.87.77,7.27,1.65,5.76.7,11.91-.25,17.83-.39,2.43-.78,4.85-1.37,7.23a45.93,45.93,0,0,1-18.55,26.75"/><path class="cls-6" d="M230.64,817.64c-7.95,4-16.88,6.36-23.73,12.06a30.34,30.34,0,0,0-9.49,14.23,16.67,16.67,0,0,0-.75,7.94,23.79,23.79,0,0,0,1.08,3.61,44.28,44.28,0,0,0,3.72,8.38,42.61,42.61,0,0,0,2.82,3.88l6.75,8.61"/><path class="cls-6" d="M230.55,817.72a76.53,76.53,0,0,0-13.76,15.46,41.7,41.7,0,0,0-3.47,5.72,27.87,27.87,0,0,0-2.73,10.27c-.6,9,3.13,18.14.9,26.86"/><path class="cls-7" d="M224.36,862.53a16.74,16.74,0,0,1-2.86,1.54l-9.6,4.37"/><path class="cls-7" d="M211.52,868.13c-3.33-1.42-6.69-2.75-10.08-4"/><path class="cls-7" d="M211.19,860.59a8.49,8.49,0,0,0-2.39-2.15,33.38,33.38,0,0,0-10.9-4.71"/><path class="cls-7" d="M211.15,859.89a20.77,20.77,0,0,1,3.68-2.47,41.17,41.17,0,0,1,6.4-3.21,14.16,14.16,0,0,1,7-.89"/><path class="cls-7" d="M210.36,851.66c-.87-2.91-3.17-5.17-5.53-7.08a13,13,0,0,0-6.26-3.2"/><path class="cls-7" d="M229.6,844.1a13.78,13.78,0,0,0-7.61.2,41.22,41.22,0,0,0-7.08,3c-1.67.84-3.51,1.86-4.07,3.65"/><path class="cls-7" d="M212.34,840.05a10.66,10.66,0,0,0-2.21-8.27,4.89,4.89,0,0,0-2.22-1.89"/><path class="cls-7" d="M232,836.71a15.37,15.37,0,0,0-12.27-.56,29.89,29.89,0,0,0-6.12,3.54"/><path class="cls-7" d="M231.74,828.41a8.43,8.43,0,0,0-4.2-.84,24.81,24.81,0,0,0-4.28.62,9.05,9.05,0,0,0-3.68,1.33"/><path class="cls-7" d="M219.69,822.67a7.31,7.31,0,0,1-.23,5.62"/><path class="cls-6" d="M315.65,870.54c.07-5.77,2.11-11.31,3.16-17s.95-12.06-2.68-16.55a16.3,16.3,0,0,0-4-3.44,41.06,41.06,0,0,0-8-3.79q-6.29-2.38-12.76-4.21A37.64,37.64,0,0,0,285,824.2a42.47,42.47,0,0,0-6.28,0c-3.11.16-6.41.38-8.95,2.18-.57.4-1.23.9-1.88.67"/><path class="cls-6" d="M267.87,827c1.23,2.58,1.3,5.55,1.8,8.37.89,5,3.34,9.84,7.44,12.79a32.85,32.85,0,0,0,7.13,3.52c3.87,1.56,7.69,3.23,11.51,4.89l7.92,3.46a16.4,16.4,0,0,1,8.49,6.34l3.17,4.05"/><path class="cls-6" d="M315.6,870.73q-1.59-4.77-3.17-9.56a26.29,26.29,0,0,0-2.34-5.61,19.81,19.81,0,0,0-8.38-7c-3.31-1.65-6.85-2.79-10.2-4.34a46.07,46.07,0,0,1-10-6.22c-2.07-1.68-4-3.54-6-5.27a60.79,60.79,0,0,0-6.81-5"/><path class="cls-7" d="M275.22,832.92c1,1.7.52,3.81.25,5.75a14.64,14.64,0,0,0,1,8.54"/><path class="cls-7" d="M276.09,832.79a8,8,0,0,0,4.64-1.56c1.37-.93,2.56-2.1,3.83-3.16a10.75,10.75,0,0,1,2.33-1.58,6.63,6.63,0,0,1,5.06-.21"/><path class="cls-7" d="M303.23,829.06a9.28,9.28,0,0,0-3.6.06,12.08,12.08,0,0,0-5,3,33.05,33.05,0,0,1-4.54,3.74,11.58,11.58,0,0,1-8.49,1.35"/><path class="cls-7" d="M280.73,837.81a6.66,6.66,0,0,1,1.34,3.75c0,.81-.08,1.62-.11,2.42a11,11,0,0,0,2.58,7.39"/><path class="cls-7" d="M289.68,843.55l.87,6.26a13.35,13.35,0,0,0,.76,3.32,4.53,4.53,0,0,0,2.24,2.47"/><path class="cls-7" d="M317.81,841.73a5.58,5.58,0,0,0-3.25-4.1,9.22,9.22,0,0,0-5.35-.54,27.27,27.27,0,0,0-5.21,1.6l-7.66,2.93a15.79,15.79,0,0,1-6.4,1.47"/><path class="cls-7" d="M299.65,847.57a13.4,13.4,0,0,1,1.7,5.48c.17,2.06-.08,4.34,1.18,6"/><path class="cls-7" d="M300.34,847.56a8.86,8.86,0,0,0,2.94-.6,27.54,27.54,0,0,1,8.36-1.24,12.74,12.74,0,0,1,4.08.57A6.23,6.23,0,0,1,319,848.7"/><path class="cls-7" d="M308.28,853.69a5.85,5.85,0,0,1,.49,3.56c-.16,1.2-.51,2.38-.67,3.58a2.35,2.35,0,0,0,.31,1.79"/><path class="cls-7" d="M308.94,854.44c3.05.41,6.2-.12,9.18.63"/><path class="cls-6" d="M172.92,782.94c.44,20.21.78,40.45-.31,60.63A425.92,425.92,0,0,1,154,947.19c-4.31,13.83-9.36,27.56-11.17,41.94-1.7,13.49-.59,27.66-5.82,40.22"/><path class="cls-6" d="M197.69,814.62c-6.31,6.13-9.91,14.46-15.09,21.57a18.73,18.73,0,0,1-5.28,5.29,12.64,12.64,0,0,0-1.67,1c-1.16,1-1.66,2.55-2.63,3.73"/><path class="cls-6" d="M158.08,852.75q1.18,2.19,2.52,4.31c1.68,2.66,3.6,5.28,6.27,6.93a21.62,21.62,0,0,1,2.24,1.41,3.34,3.34,0,0,1,1.35,2.2"/><path class="cls-6" d="M271.22,782.44a287.66,287.66,0,0,0-16,33.89c-3.12,7.93-5.89,16-9.53,23.71-10.31,21.81-27.16,39.8-39.79,60.37-3.21,5.23-6.16,10.65-9.9,15.52A118.63,118.63,0,0,1,183.72,929l-34.23,32.79"/><path class="cls-6" d="M211.26,876.65a15.82,15.82,0,0,0,.76,10.18c.46,1.07,1,2.21.74,3.34"/><path class="cls-6" d="M268.45,827.36a7.94,7.94,0,0,0-5.2-.52,21.29,21.29,0,0,0-5,1.89c-1.34.65-2.68,1.31-4,2a26.32,26.32,0,0,1-5.06,2.19"/><path class="cls-8" d="M336.13,782c.17,1.29,1.38,2.13,2.35,3,2.33,2.09,3.61,5.07,4.83,7.95.5,1.18,1,2.36,1.4,3.58a24,24,0,0,1-.78,17"/><path class="cls-8" d="M336.14,781.92c-2.4,4-5.7,7.49-7.14,11.91a15.83,15.83,0,0,0-.26,8.92,8.74,8.74,0,0,0,1.87,3.72,12.9,12.9,0,0,0,1.48,1.29,22.49,22.49,0,0,0,4,2.68,23.38,23.38,0,0,0,2.32.93l5.37,1.93"/><path class="cls-8" d="M336.13,782a39.54,39.54,0,0,0-1.8,10.65,21.41,21.41,0,0,0,.05,3.49,14.55,14.55,0,0,0,1.64,5.3c2.22,4.14,6.41,7.14,7.84,11.62"/><path class="cls-9" d="M345.81,803.5A8.22,8.22,0,0,1,345,805l-3,4.6"/><path class="cls-9" d="M341.68,809.54q-2.79.45-5.57,1"/><path class="cls-9" d="M339.45,806.3a4.42,4.42,0,0,0-1.65-.29,17.28,17.28,0,0,0-6.13.94"/><path class="cls-9" d="M339.24,806a11.42,11.42,0,0,1,.94-2.12,21.21,21.21,0,0,1,1.94-3.19,7.46,7.46,0,0,1,2.86-2.34"/><path class="cls-9" d="M336.61,802.58a8,8,0,0,0-4.41-1.6,6.88,6.88,0,0,0-3.66.32"/><path class="cls-9" d="M343,793.9a7.3,7.3,0,0,0-3.3,2.2,20.89,20.89,0,0,0-2.29,3.3,3.73,3.73,0,0,0-.79,2.75"/><path class="cls-9" d="M334.27,796.9a5.61,5.61,0,0,0-3.28-3,2.59,2.59,0,0,0-1.5-.21"/><path class="cls-9" d="M342,790a8,8,0,0,0-5.58,3.16,15.65,15.65,0,0,0-1.73,3.26"/><path class="cls-9" d="M339.61,786.38a4.46,4.46,0,0,0-2.09.79,14,14,0,0,0-1.72,1.46,4.77,4.77,0,0,0-1.25,1.61"/><path class="cls-9" d="M332.7,787.18a3.81,3.81,0,0,1,1.45,2.55"/><path class="cls-8" d="M173.19,629c-1.19.53-1.66,1.93-2.22,3.1-1.36,2.82-3.86,4.89-6.29,6.87-1,.8-2,1.61-3,2.34a24,24,0,0,1-16.51,4"/><path class="cls-8" d="M173.25,629c-4.49-1.19-8.79-3.37-13.43-3.53a15.84,15.84,0,0,0-8.64,2.25,8.81,8.81,0,0,0-3,2.84,11.53,11.53,0,0,0-.83,1.78,23.07,23.07,0,0,0-1.46,4.56,22.82,22.82,0,0,0-.25,2.49q-.18,2.83-.35,5.69"/><path class="cls-8" d="M173.19,629a40.13,40.13,0,0,0-10.73,1.26,20.33,20.33,0,0,0-3.33,1,14.48,14.48,0,0,0-4.63,3.06c-3.35,3.29-5.07,8.15-9,10.78"/><path class="cls-9" d="M155.23,644.3a9.31,9.31,0,0,1-1.64-.39l-5.26-1.63"/><path class="cls-9" d="M148.28,642c-.8-1.7-1.65-3.39-2.53-5.06"/><path class="cls-9" d="M150.77,639a4.28,4.28,0,0,0-.19-1.66,17.27,17.27,0,0,0-2.61-5.62"/><path class="cls-9" d="M151,638.69a10.43,10.43,0,0,1,2.29.31,21.37,21.37,0,0,1,3.61,1,7.37,7.37,0,0,1,3,2.1"/><path class="cls-9" d="M153.54,635.21a7.93,7.93,0,0,0,.31-4.68,6.84,6.84,0,0,0-1.33-3.42"/><path class="cls-9" d="M163.67,638.93a7.23,7.23,0,0,0-3-2.56,21,21,0,0,0-3.81-1.27,3.7,3.7,0,0,0-2.85,0"/><path class="cls-9" d="M158.35,631.37a5.57,5.57,0,0,0,2-4,2.52,2.52,0,0,0-.21-1.51"/><path class="cls-9" d="M167.17,636.89a8.06,8.06,0,0,0-4.59-4.48,15.84,15.84,0,0,0-3.62-.74"/><path class="cls-9" d="M169.94,633.56a4.34,4.34,0,0,0-1.34-1.78,12.62,12.62,0,0,0-1.89-1.25,4.75,4.75,0,0,0-1.89-.75"/><path class="cls-9" d="M167.24,627.14a3.85,3.85,0,0,1-2,2.12"/><path class="cls-6" d="M728.83,233.69a6.43,6.43,0,0,1,1.21,5.56,29,29,0,0,1-3.81,7.73,19.92,19.92,0,0,1-5.1,4.24,1.05,1.05,0,0,1-1.52,0l-5.79-3.95a26.46,26.46,0,0,1-3.51-2.71,13.15,13.15,0,0,1-2.75-3.86,2.25,2.25,0,0,1-.28-1.55c.21-.71,1-1.07,1.7-1.32,2.72-1,5.53-1.67,8.34-2.37l4.38-1.1c2.29-.57,4.73-1.14,7-.38"/><path class="cls-6" d="M725.66,181.89c1.1,6.61,2.25,13.36,5.47,19.23,1.75,3.18,4.12,6.15,4.78,9.73.63,3.42-.42,6.93-1.76,10.15s-3,6.35-3.65,9.77c-.2,1-.41,2.25-1.36,2.72"/><path class="cls-6" d="M725.59,181.43c-.54,3.06-2.93,5.38-4.59,8-4.08,6.46-3.68,14.7-2.66,22.27s2.47,15.44.08,22.69"/><path class="cls-6" d="M696.83,146.1c5,4.14,8.52,9.88,11.14,15.84s4.47,12.24,6.83,18.31c1.28,3.3,2.78,6.63,5.28,9.13"/><path class="cls-6" d="M696.61,145.89c3.09,8.63,1.46,18.12,1,27.27-.18,3.3-.19,6.6-.21,9.9q0,7.29-.07,14.57a80.79,80.79,0,0,0,.55,12.15c1.41,9.61,6.18,18.34,10.86,26.84"/><path class="cls-6" d="M698.08,175.35a102,102,0,0,1-9.48,18.29c-1.44,2.21-3,4.45-3.5,7.05a16.26,16.26,0,0,0,.07,5,63.87,63.87,0,0,0,9.76,26.41,13.23,13.23,0,0,0,2.78,3.31,14.67,14.67,0,0,0,4.27,2.06l4.62,1.65"/><path class="cls-7" d="M697.17,146.7c3.2,5.86,6.45,11.89,7.37,18.51.64,4.52.15,9.13.71,13.66.62,5,2.51,9.8,3.49,14.77.8,4.09,1,8.28,1.78,12.37,1.09,5.59,3.32,10.91,4.38,16.5.81,4.24,1,8.71,2.92,12.57"/><path class="cls-7" d="M697.52,147.78a105.48,105.48,0,0,1,3,11c1.9,9.55,1.14,19.4,1.44,29.13a133.56,133.56,0,0,0,3.41,26.18c1.74,7.48,4.19,15,8.61,21.24"/><path class="cls-7" d="M711.88,171.31c2,9.78-1,20.32,2.33,29.73a46.49,46.49,0,0,0,3.58,7.25"/><path class="cls-7" d="M692.46,186.62c-1.5,6.5-2.59,13.25-1.57,19.85a62.43,62.43,0,0,0,2.57,9.65,60.4,60.4,0,0,0,5.14,12.6c2.32,3.91,5.67,7.37,9.92,9"/><path class="cls-7" d="M725.71,182.44c-1.33,9.75-4.41,19.49-3.05,29.24,1,7.33,4.56,14.51,3.29,21.8"/><path class="cls-7" d="M724.41,191.06a16.87,16.87,0,0,0,0,6c.54,2.82,1.92,5.4,2.86,8.11a54.21,54.21,0,0,1,1.74,7.11c.88,4.49,1.76,9.12.82,13.6-.19.88-.44,1.74-.6,2.63a24.38,24.38,0,0,0-.2,5"/><path class="cls-6" d="M647.9,299.9a11.42,11.42,0,0,1,3.58,9c-.2,2.91-1.52,5.64-1.92,8.53a1.73,1.73,0,0,1-.17.65,1.71,1.71,0,0,1-1.3.68c-5.86,1.1-12.25,1.44-17.47-1.46a5.67,5.67,0,0,1-1.55-1.16c-1.29-1.48-1.07-3.83,0-5.49a13.78,13.78,0,0,1,4.37-3.86l9.1-6a8.66,8.66,0,0,1,2.35-1.23,3,3,0,0,1,2.55.32"/><path class="cls-6" d="M605.15,267.24c5,4.87,12.69,6.07,17.75,10.87,2,1.84,3.41,4.13,5.24,6.1,2.24,2.42,5,4.33,7.11,6.88a17.75,17.75,0,0,1,4,10.89"/><path class="cls-6" d="M605,267.15c1,2.14,2,4.63,1,6.78a11.89,11.89,0,0,1-2,2.59c-2.82,3.35-3.84,7.85-4.16,12.21a15.81,15.81,0,0,0,1.09,8.19,18.6,18.6,0,0,0,3.42,4.45,51.49,51.49,0,0,0,8.21,7.55A17.38,17.38,0,0,0,623,312.28c1.69-.09,3.47-.49,5,.22"/><path class="cls-6" d="M589.81,240.32c.71,3,1.41,6,2.12,8.94.35,1.5.71,3,.92,4.54.25,1.88.29,3.78.41,5.67a35,35,0,0,0,2.2,10.67,19.29,19.29,0,0,0,6.49,8.61"/><path class="cls-6" d="M589.7,240.21a68.63,68.63,0,0,0,27.92,17.38c5.88,1.91,12.49,3.32,16.31,8.19,2.42,3.09,3.29,7.1,5.23,10.51,1.2,2.11,2.81,4,4.09,6A23.66,23.66,0,0,1,646.41,299"/><path class="cls-6" d="M591.25,248.67c.54,1.72,0,3.58-.65,5.27a66.84,66.84,0,0,1-5.42,11.24c-1.53,2.53-3.27,5.06-3.73,8-.7,4.49,1.88,9,5.43,11.82s8,4.32,12.27,5.76"/><path class="cls-7" d="M590.6,241.46c6.2,10.08,16.54,16.88,27.13,22.16,2.17,1.09,4.37,2.13,6.45,3.4a39.33,39.33,0,0,1,13.32,14.27,64.41,64.41,0,0,1,6.64,18.49"/><path class="cls-7" d="M590.89,241.91c1.55,7.47,5,14.75,10.83,19.7a50.93,50.93,0,0,0,8,5.31c7.79,4.43,15.82,8.8,22,15.3a42.78,42.78,0,0,1,10.33,18.68"/><path class="cls-7" d="M605.89,269c4.5,8.17,12.13,14,19,20.39a53.38,53.38,0,0,1,4.52,4.63,33.7,33.7,0,0,1,6.28,11.19"/><path class="cls-7" d="M605.75,268.5c1.41,2.48.94,5.56,1.16,8.41.37,4.86,2.88,9.37,6.15,13s7.28,6.47,11.26,9.29l4.49,3.18a15.13,15.13,0,0,1,4.5,4.22"/><path class="cls-7" d="M605.68,274.1c-1.13,6.5-2.24,13.37.07,19.56a13.4,13.4,0,0,0,1.6,3.1,20.46,20.46,0,0,0,3.1,3.21c5.36,4.82,11.16,9.85,18.28,10.92"/><path class="cls-7" d="M591.65,251.77c-.34,3.08-.67,6.16-1,9.24a50.73,50.73,0,0,0-.44,8.07,13.76,13.76,0,0,0,.89,4.59c1.13,2.77,3.47,4.84,5.73,6.8l3.77,3.27"/><path class="cls-7" d="M591.22,252.76a76.77,76.77,0,0,1-3.75,16.6c-.69,2-1.48,4.12-1.05,6.2a9.89,9.89,0,0,0,2.81,4.56,43.78,43.78,0,0,0,10.27,8"/><path class="cls-6" d="M683.44,248.8c.34,3.65,2.83,6.67,5.18,9.47a95.94,95.94,0,0,1,10.9,15.11,37.5,37.5,0,0,1,5.08,17.75c0,11-6.15,21.05-13.43,29.27-1.15,1.31-2.43,2.82-2.23,4.56"/><path class="cls-6" d="M689,325.5c-1.05-2.81-3.73-4.67-6.39-6.06s-5.54-2.56-7.63-4.73a21,21,0,0,1-3.3-5.12c-4.69-9.07-9.53-18.88-8.17-29a20.17,20.17,0,0,1,1.36-5.19,34.12,34.12,0,0,1,3-5.28c3.17-4.83,6.33-9.67,9.58-14.44a16.91,16.91,0,0,1,3.71-4.31c.94-.7,2.12-1.36,2.29-2.52"/><path class="cls-6" d="M683.67,249.28q-.64,3.47-1.27,6.94a53.88,53.88,0,0,0-.86,5.79c-.62,8.25,2.45,16.28,3.66,24.46,1,6.62.72,13.35,1.38,20,.22,2.18.53,4.35.85,6.53q.84,5.73,1.67,11.46"/><path class="cls-7" d="M668.39,302.29l4.25,1.35c5,1.59,10.14,3.27,14,6.8"/><path class="cls-7" d="M702.78,301.18c-5.12,3.4-11.36,5-16.08,8.95"/><path class="cls-7" d="M663.81,286.44c5.46,1.28,10.93,3,15.56,6.15a57,57,0,0,1,6.11,5.08"/><path class="cls-7" d="M703,281.33a57.46,57.46,0,0,0-13.93,10.73,10.66,10.66,0,0,0-2.9,4.48"/><path class="cls-7" d="M666.76,272.79a19.41,19.41,0,0,1,8.68,3.61,58,58,0,0,1,7.12,6.27,12.32,12.32,0,0,1,2.69,3.34"/><path class="cls-7" d="M695.86,267.78a15.33,15.33,0,0,0-7.79,6.24c-1.8,2.58-3.68,5.52-3.17,8.63"/><path class="cls-6" d="M635.08,388.58c6.7-2,11.21-8.17,17.14-11.89a38,38,0,0,1,12.19-4.57c4.7-1,10-1.43,14,1.18,2.68,1.74,4.61,4.71,7.67,5.64"/><path class="cls-6" d="M635,388.41a6.32,6.32,0,0,1,4.84,1.24,45.89,45.89,0,0,1,3.87,3.38,23.69,23.69,0,0,0,12.75,5.49,28.77,28.77,0,0,0,13.82-1.92,19.55,19.55,0,0,0,6-3.55c4.1-3.74,5.66-9.63,9.61-13.54"/><path class="cls-6" d="M685.86,379.25c-3.88,3.13-9.46,2.56-14.27,3.85-1.73.47-3.37,1.18-5.08,1.69-8.25,2.48-17.33.25-25.62,2.59a9.14,9.14,0,0,1-3.67.6"/><path class="cls-7" d="M670.07,372.14a5.84,5.84,0,0,1,3,1.38,48.58,48.58,0,0,1,8,8.22"/><path class="cls-7" d="M680.17,381.3a40.59,40.59,0,0,0-2.28,5c-.6,1.54-1.1,3.12-1.61,4.7-.26.81-.51,1.62-.77,2.42"/><path class="cls-7" d="M673.22,383.27a9.85,9.85,0,0,0-2.49,4.69,31.79,31.79,0,0,1-1.59,5.13,10.28,10.28,0,0,1-3.81,4.22"/><path class="cls-7" d="M672.74,382.69c-2.34-1.91-4.42-4.14-6.84-5.95a14,14,0,0,0-8.31-3.22"/><path class="cls-7" d="M652.21,377.19a3.89,3.89,0,0,1,1.76.09c4.79,1.11,8.56,4.71,12.85,7.12"/><path class="cls-7" d="M666.74,384.71a15.3,15.3,0,0,0-4.72,4.72c-.49.81-.87,1.68-1.33,2.5a15.37,15.37,0,0,1-6.34,6.09"/><path class="cls-7" d="M658.31,385.57a19.6,19.6,0,0,0-10.82-4.9"/><path class="cls-7" d="M657.74,385.88l-2.46,3c-2.14,2.59-4.37,5.25-7.36,6.78"/><path class="cls-7" d="M650.12,386.54a19.58,19.58,0,0,1-5.71,6.81"/><path class="cls-7" d="M649.69,386.33a7.85,7.85,0,0,0-5.27-2.76"/><path class="cls-6" d="M715.41,304.19c.78,2.37,3.37,3.52,5.5,4.81,5.13,3.12,8.61,8.27,11.93,13.26,1.36,2.05,2.72,4.09,3.91,6.24a46,46,0,0,1,4.55,32.23"/><path class="cls-6" d="M715.41,304.07c-3.11,8.34-8.06,16.14-9.21,25a30.33,30.33,0,0,0,2.69,16.89,16.6,16.6,0,0,0,4.85,6.34,21.62,21.62,0,0,0,3.25,1.91,43.5,43.5,0,0,0,8.42,3.63,41.54,41.54,0,0,0,4.7.93l10.8,1.73"/><path class="cls-6" d="M715.41,304.19a76.39,76.39,0,0,0,.41,20.7,40.45,40.45,0,0,0,1.33,6.55,27.74,27.74,0,0,0,5,9.39c5.66,7,14.62,11.19,18.91,19.1"/><path class="cls-7" d="M741.3,341.28a16.13,16.13,0,0,1-1,3.07l-4.08,9.74"/><path class="cls-7" d="M735.68,354.12q-5.1,1.83-10.13,3.9"/><path class="cls-7" d="M730.32,348.8a8.67,8.67,0,0,0-3.21.06,33.41,33.41,0,0,0-11.21,3.94"/><path class="cls-7" d="M729.82,348.32a20.85,20.85,0,0,1,1-4.32,42.87,42.87,0,0,1,2.52-6.7,14.17,14.17,0,0,1,4.57-5.43"/><path class="cls-7" d="M723.64,342.82c-2.62-1.55-5.83-1.65-8.87-1.44a13,13,0,0,0-6.77,1.9"/><path class="cls-7" d="M732.62,324.2a13.81,13.81,0,0,0-5.44,5.31,41.76,41.76,0,0,0-3.14,7c-.66,1.76-1.31,3.75-.51,5.45"/><path class="cls-7" d="M717.21,333a10.65,10.65,0,0,0-7.24-4.57,4.88,4.88,0,0,0-2.91.13"/><path class="cls-7" d="M729.37,317.14a15.42,15.42,0,0,0-9.39,7.93,29.75,29.75,0,0,0-2.08,6.76"/><path class="cls-7" d="M723.54,311.23a8.54,8.54,0,0,0-3.65,2.23,25.87,25.87,0,0,0-2.72,3.37,9.05,9.05,0,0,0-1.8,3.48"/><path class="cls-7" d="M710.8,315.2a7.32,7.32,0,0,1,3.65,4.29"/><path class="cls-6" d="M813.74,285.15c-3.87-4.28-6.14-9.73-9.22-14.61s-7.5-9.5-13.21-10.33a16.76,16.76,0,0,0-5.24.16,42.17,42.17,0,0,0-8.46,2.66c-4.15,1.68-8.23,3.55-12.22,5.58A36.22,36.22,0,0,0,759.8,272a40.49,40.49,0,0,0-4.61,4.27c-2.18,2.23-4.45,4.63-5.09,7.68-.14.68-.29,1.49-.92,1.77"/><path class="cls-6" d="M749.12,285.67c2.66,1.07,4.72,3.2,7,4.93,4,3,9.13,4.95,14.15,4.33a33,33,0,0,0,7.62-2.26c3.9-1.48,7.83-2.85,11.77-4.23l8.16-2.84a16.32,16.32,0,0,1,10.54-1.11l5.07.81"/><path class="cls-6" d="M813.83,285.33,805,280.46a27.32,27.32,0,0,0-5.53-2.53,19.78,19.78,0,0,0-10.93.55c-3.54,1-6.91,2.6-10.43,3.75a46.64,46.64,0,0,1-11.53,2.19c-2.66.17-5.33.1-8,.21a62.68,62.68,0,0,0-8.42.93"/><path class="cls-7" d="M758.52,285c1.86.59,3,2.45,4.08,4.06a14.86,14.86,0,0,0,6.51,5.61"/><path class="cls-7" d="M759.07,284.32a8,8,0,0,0,2.34-4.29,45.25,45.25,0,0,0,.66-4.93,10.72,10.72,0,0,1,.64-2.74,6.61,6.61,0,0,1,3.57-3.59"/><path class="cls-7" d="M776.45,263.15a9.24,9.24,0,0,0-2.61,2.49,12.15,12.15,0,0,0-1.67,5.59,31.7,31.7,0,0,1-.79,5.83,11.57,11.57,0,0,1-5.31,6.76"/><path class="cls-7" d="M765.88,284.85a6.78,6.78,0,0,1,3.54,1.84c.57.58,1,1.25,1.56,1.86a10.88,10.88,0,0,0,6.91,3.66"/><path class="cls-7" d="M776.34,283l4.9,4a13.75,13.75,0,0,0,2.81,1.93,4.54,4.54,0,0,0,3.33.29"/><path class="cls-7" d="M795.76,262.54a5.57,5.57,0,0,0-5.17-.8,9.23,9.23,0,0,0-4.3,3.24,27.91,27.91,0,0,0-2.73,4.71l-3.63,7.36a15.94,15.94,0,0,1-3.7,5.42"/><path class="cls-7" d="M786.39,279.16a13.33,13.33,0,0,1,5,2.88c1.52,1.39,2.89,3.23,4.92,3.58"/><path class="cls-7" d="M786.9,278.69a8.88,8.88,0,0,0,1.74-2.44,28.08,28.08,0,0,1,5.29-6.59,13,13,0,0,1,3.39-2.36,6.21,6.21,0,0,1,4-.45"/><path class="cls-7" d="M796.89,277.8a5.73,5.73,0,0,1,2.77,2.27c.7,1,1.24,2.1,2,3.09a2.36,2.36,0,0,0,1.43,1.1"/><path class="cls-7" d="M797.88,277.89c2.51-1.76,4.47-4.29,7.16-5.77"/><path class="cls-6" d="M649.49,317.82c14,14.53,28,29.15,41,44.7a426.46,426.46,0,0,1,56.68,88.72c6.23,13.08,11.86,26.59,20.29,38.37,7.92,11.06,18.36,20.7,23.05,33.47"/><path class="cls-6" d="M689.19,324.24c-.47,8.78,2.54,17.34,3.57,26.08a18.71,18.71,0,0,1-.28,7.46,12,12,0,0,0-.51,1.91c-.19,1.52.51,3,.6,4.53"/><path class="cls-6" d="M686,379.12c1.57.54,3.17,1,4.78,1.46,3,.81,6.22,1.43,9.3.83a21.24,21.24,0,0,1,2.6-.49,3.29,3.29,0,0,1,2.49.7"/><path class="cls-6" d="M721.29,250.68a288,288,0,0,0,11.3,35.71c3.1,7.94,6.55,15.75,9.11,23.87,7.25,23,7.11,47.67,11.81,71.34,1.19,6,2.71,12,3.27,18.11a118.22,118.22,0,0,1-.17,18q-1.41,23.67-2.84,47.32"/><path class="cls-6" d="M741.28,360.54a15.82,15.82,0,0,0,7.47,7c1.07.47,2.28.91,2.81,1.94"/><path class="cls-6" d="M749.77,285.53a7.86,7.86,0,0,0-4.17,3.15,21.37,21.37,0,0,0-2.37,4.76c-.54,1.39-1.07,2.79-1.58,4.19a26.07,26.07,0,0,1-2.22,5"/><circle class="cls-4" cx="370.84" cy="761.43" r="6"/><path class="cls-4" d="M697.55,435a6,6,0,1,1-6-6A6,6,0,0,1,697.55,435Z"/><path class="cls-4" d="M689.53,124.58a6,6,0,1,1-6-6A6,6,0,0,1,689.53,124.58Z"/><path class="cls-4" d="M268.73,888.67a3,3,0,1,1-3-3A3,3,0,0,1,268.73,888.67Z"/><path class="cls-4" d="M230.68,724a3,3,0,1,1-3-3A3,3,0,0,1,230.68,724Z"/><path class="cls-4" d="M631.27,203.28a3,3,0,1,1-3-3A3,3,0,0,1,631.27,203.28Z"/><path class="cls-4" d="M609.62,344.49a3,3,0,1,1-3-3A3,3,0,0,1,609.62,344.49Z"/></g><text class="cls-10" transform="translate(269.56 381.85)">Mỹ Duyên</text><text class="cls-11" transform="translate(391.18 479.72)">&amp;</text><text class="cls-10" transform="translate(353.7 558.25)">Hoành Sơn</text><text class="cls-12" transform="translate(321.66 173.18)">S<tspan class="cls-13" x="15.86" y="0">A</tspan><tspan x="33.04" y="0">VE</tspan><tspan class="cls-14" x="66.04" y="0"> </tspan><tspan x="75.46" y="0">THE </tspan><tspan class="cls-15" x="136.52" y="0">D</tspan><tspan class="cls-16" x="155.56" y="0">A</tspan><tspan x="172.26" y="0">TE</tspan></text><path class="cls-17" d="M617.52,210.76c1.28-.2,2.09-1.44,2.93-2.43,2-2.39,5-3.76,7.82-5.05,1.16-.53,2.33-1.07,3.53-1.5a24,24,0,0,1,17,.31"/><path class="cls-17" d="M617.46,210.75c4,2.29,7.65,5.49,12.1,6.81a15.83,15.83,0,0,0,8.92,0,8.75,8.75,0,0,0,3.67-2,11.39,11.39,0,0,0,1.25-1.51,23.78,23.78,0,0,0,2.57-4,24.26,24.26,0,0,0,.86-2.34c.6-1.81,1.19-3.62,1.79-5.43"/><path class="cls-17" d="M617.52,210.76a39.71,39.71,0,0,0,10.69,1.5,20.31,20.31,0,0,0,3.49-.14,14.68,14.68,0,0,0,5.25-1.79c4.07-2.34,7-6.61,11.4-8.16"/><path class="cls-18" d="M638.76,200.49a9.33,9.33,0,0,1,1.5.79l4.68,2.91"/><path class="cls-18" d="M644.91,204.44q.52,2.79,1.17,5.54"/><path class="cls-18" d="M641.73,206.77a4.4,4.4,0,0,0-.24,1.66,17.37,17.37,0,0,0,1.11,6.09"/><path class="cls-18" d="M641.44,207a10,10,0,0,1-2.14-.88,21.28,21.28,0,0,1-3.25-1.85,7.24,7.24,0,0,1-2.41-2.8"/><path class="cls-18" d="M638.1,209.71a8,8,0,0,0-1.48,4.45,6.84,6.84,0,0,0,.42,3.65"/><path class="cls-18" d="M629.25,203.55a7.05,7.05,0,0,0,2.29,3.24,20.9,20.9,0,0,0,3.36,2.2,3.75,3.75,0,0,0,2.76.71"/><path class="cls-18" d="M632.48,212.21a5.55,5.55,0,0,0-3,3.35,2.55,2.55,0,0,0-.18,1.51"/><path class="cls-18" d="M625.34,204.64a8,8,0,0,0,3.31,5.49,15.43,15.43,0,0,0,3.31,1.63"/><path class="cls-18" d="M621.82,207.15a4.38,4.38,0,0,0,.84,2.07,13.41,13.41,0,0,0,1.51,1.68,4.77,4.77,0,0,0,1.65,1.21"/><path class="cls-18" d="M622.81,214.05a3.79,3.79,0,0,1,2.51-1.53"/><text class="cls-19" transform="translate(368.22 670.8)">15.07.23</text></g></g></svg>