<svg xmlns="http://www.w3.org/2000/svg" xmlns:xlink="http://www.w3.org/1999/xlink" viewBox="0 0 749.29 624.12"><defs><style>.cls-1,.cls-26,.cls-27,.cls-4,.cls-5{fill:none;}.cls-2{clip-path:url(#clip-path);}.cls-3{fill:#f6f6f6;}.cls-26,.cls-27,.cls-4,.cls-5{stroke-linecap:round;stroke-linejoin:round;stroke-width:0.5px;}.cls-4{stroke:url(#Latón_apagado_2);}.cls-5{stroke:url(#Latón_apagado_2-2);}.cls-28,.cls-6{font-size:18px;font-family:Corbel;}.cls-11,.cls-13,.cls-14,.cls-15,.cls-6,.cls-8,.cls-9{fill:#ad9139;}.cls-6{letter-spacing:0.04em;}.cls-7{letter-spacing:0.1em;}.cls-8{font-size:27.98px;letter-spacing:0.2em;}.cls-11,.cls-13,.cls-15,.cls-8,.cls-9{font-family:Domine-Regular, Domine Regular;}.cls-11,.cls-9{font-size:16.27px;}.cls-9{letter-spacing:0.2em;}.cls-10{letter-spacing:0.12em;}.cls-12{letter-spacing:0.2em;}.cls-13{font-size:12px;}.cls-15{font-size:10px;}.cls-15,.cls-20{letter-spacing:0.2em;}.cls-16{letter-spacing:0.21em;}.cls-17{letter-spacing:0.19em;}.cls-18{letter-spacing:0.21em;}.cls-19{letter-spacing:0.2em;}.cls-21{letter-spacing:0.2em;}.cls-22{letter-spacing:0.06em;}.cls-23{letter-spacing:0.2em;}.cls-24{letter-spacing:0.19em;}.cls-25{letter-spacing:0.16em;}.cls-26{stroke:url(#Latón_apagado_2-3);}.cls-27{stroke:url(#Latón_apagado_2-4);}.cls-28{letter-spacing:0.2em;}</style><clipPath id="clip-path"><rect class="cls-1" x="14.6" y="0.25" width="448.99" height="623.62"/></clipPath><linearGradient id="Latón_apagado_2" x1="44.35" y1="358.68" x2="331.73" y2="358.68" gradientUnits="userSpaceOnUse"><stop offset="0.01" stop-color="#d8c383"/><stop offset="0.19" stop-color="#cfbb83"/><stop offset="0.6" stop-color="#a48032"/><stop offset="0.87" stop-color="#d7c188"/><stop offset="1" stop-color="#e7dfcb"/></linearGradient><linearGradient id="Latón_apagado_2-2" x1="166.76" y1="258.08" x2="433.83" y2="258.08" xlink:href="#Latón_apagado_2"/><linearGradient id="Latón_apagado_2-3" x1="29.57" y1="247.14" x2="160.27" y2="247.14" gradientTransform="matrix(0.28, -0.96, 0.96, 0.28, -175.04, 86.06)" xlink:href="#Latón_apagado_2"/><linearGradient id="Latón_apagado_2-4" x1="60.97" y1="225.52" x2="191.67" y2="225.52" gradientTransform="matrix(-0.28, 0.96, -0.96, -0.28, 657.97, 501.86)" xlink:href="#Latón_apagado_2"/></defs><title>card-2_1</title><g id="Layer_2" data-name="Layer 2"><g id="PRINT"><g class="cls-2"><rect class="cls-3" x="14.6" y="0.25" width="448.99" height="623.62"/><polyline class="cls-4" points="331.48 596.7 44.6 596.7 44.6 120.65"/><polyline class="cls-5" points="167.01 30.25 433.58 30.25 433.58 485.91"/><text class="cls-6" transform="translate(148.82 147.93)">T<tspan class="cls-7" x="10.65" y="0">rân trọng kính mời</tspan></text><text class="cls-8" transform="translate(220.28 417.95)">15</text><text class="cls-9" transform="translate(143.08 417.95)">JU<tspan class="cls-10" x="23.05" y="0">L</tspan><tspan x="32.61" y="0">Y</tspan></text><text class="cls-11" transform="translate(277.51 417.95)"><tspan class="cls-12">202</tspan><tspan x="34.79" y="0">3</tspan></text><text class="cls-13" transform="matrix(0.74, -0.67, 0.67, 0.74, 209.72, 396.76)">S</text><text class="cls-13" transform="matrix(0.86, -0.5, 0.5, 0.86, 215.67, 391.57)">A</text><text class="cls-13" transform="translate(223.06 387.46) rotate(-19.54)">T</text><text class="cls-13" transform="matrix(0.99, -0.13, 0.13, 0.99, 230.6, 384.91)">U</text><text class="cls-13" transform="translate(240.28 383.95) rotate(4.98)">R</text><text class="cls-13" transform="translate(248.7 384.82) rotate(17.68)">D</text><text class="cls-13" transform="matrix(0.86, 0.51, -0.51, 0.86, 257.92, 388.01)">A</text><text class="cls-13" transform="translate(265.09 392.44) rotate(41.63)">Y</text><path class="cls-14" d="M211.39,411.63a2,2,0,1,1-2-2A2,2,0,0,1,211.39,411.63Z"/><path class="cls-14" d="M269.64,411.63a2,2,0,1,1-2-2A2,2,0,0,1,269.64,411.63Z"/><text class="cls-15" transform="translate(142.94 446.31)">5:30pm | <tspan class="cls-16" x="56.12" y="0">N</tspan><tspan x="64.8" y="0">hà hàng Hoàng </tspan><tspan class="cls-17" x="159.01" y="0">L</tspan><tspan x="165.59" y="0">ong</tspan><tspan class="cls-18"><tspan x="-37.18" y="16">S</tspan><tspan class="cls-19" x="-30.19" y="16">ố 2, </tspan><tspan class="cls-17" x="-3.27" y="16">L</tspan><tspan class="cls-20" x="3.31" y="16">ê </tspan><tspan class="cls-21" x="14.44" y="16">D</tspan><tspan class="cls-20" x="23.13" y="16">uẩn, </tspan><tspan class="cls-22" x="53.2" y="16">P</tspan><tspan class="cls-19" x="59.12" y="16">. </tspan><tspan class="cls-23" x="67.31" y="16">B</tspan><tspan class="cls-20" x="74.77" y="16">ến Ngh</tspan><tspan class="cls-24" x="117.17" y="16">é</tspan><tspan class="cls-19" x="124.06" y="16">, </tspan><tspan class="cls-21" x="132.25" y="16">Q</tspan><tspan class="cls-20" x="141.17" y="16">uận 1,</tspan><tspan class="cls-25" x="178.37" y="16"> </tspan><tspan class="cls-20" x="182.08" y="16">T</tspan><tspan class="cls-22" x="189.05" y="16">P</tspan><tspan class="cls-20" x="194.97" y="16">.HCM</tspan></tspan></text><path class="cls-26" d="M99.35,95.93C92,89.83,85,83.46,78.26,76.71,56.93,55.25,39.1,29.48,31.29.25M80,46.35c-8.13-.69-15.35,2-21.93,6.75,4.86,3.59,10.29,6.6,16.22,7.69,8.73,1.61,17.58-1.07,26-3.71C94.47,51.31,88.11,47,80,46.35ZM58,53.1c14.2-.85,28,4,42.24,4m-35.23.57a44.89,44.89,0,0,1-3.77-4.48,5.8,5.8,0,0,1,2.81-3.76m5.67,10.2A22,22,0,0,1,63.86,53a7.77,7.77,0,0,1,2.71-3.54,22.61,22.61,0,0,1,3.81-2.36m4,13.82a47.5,47.5,0,0,1-8.32-7.84,31.13,31.13,0,0,1,9.38-6.76m4,15a29.66,29.66,0,0,1-9.6-7.79c.47-.47,7.93-5.61,11.18-7m1.71,14.69A54,54,0,0,1,78,58a27.52,27.52,0,0,1-4.07-3.86,5.09,5.09,0,0,1,1.43-1.3c3-2.14,6.13-4.31,9.65-5.49m2.22,13.33a34.11,34.11,0,0,1-8.89-6.05,41,41,0,0,1,9.06-6.36m2.86,11.85q-3.49-2.24-6.9-4.62c2.22-2.46,5.33-3.88,8.35-5.24m2,8.86q-2.43-1.38-4.81-2.85A15.14,15.14,0,0,1,94.61,52M38.09,87.1c6.26-6.23,12.75-12.82,15.4-21.3,1.8-5.75,1.67-12,.76-17.93-7.25,3.62-13,8.75-16.2,16.26S35.69,79.27,38.09,87.1Zm0,0C44.71,74.5,46.88,60,54.25,47.87m-6.09,3.64a5.77,5.77,0,0,1,4.64-.73A43.29,43.29,0,0,1,55,56.2M43.17,56A23.53,23.53,0,0,1,47,53.71,7.73,7.73,0,0,1,51.43,53a21.9,21.9,0,0,1,3.12,8.3M40.12,60.1a31.42,31.42,0,0,1,10.35-5.16,46.91,46.91,0,0,1,3.06,11m-15.87-.85c2.76-2.22,10.79-6.42,11.43-6.62a29.91,29.91,0,0,1,2.42,12.13m-15-1.6c2.69-2.57,6.05-4.3,9.36-6a5.1,5.1,0,0,1,1.82-.65,28.79,28.79,0,0,1,1.52,5.39,54.27,54.27,0,0,1,.62,5.7M36.26,71.55a41,41,0,0,1,9.84-5,34.08,34.08,0,0,1,1.22,10.68M36,76.3c2.61-2,5.32-4.13,8.53-5,.35,2.75.63,5.5.87,8.26m-9.16.12a15.15,15.15,0,0,1,6.38-3.1c.12,1.86.22,3.72.28,5.59m65.64-14.84c-11.22-.95-21.2,2.8-30.29,9.33,6.71,5,14.22,9.1,22.4,10.61,12.07,2.22,24.28-1.47,35.93-5.13C128.57,74.23,119.78,68.32,108.55,67.38ZM78.26,76.71c19.62-1.19,38.68,5.47,58.33,5.48M88,83a60.08,60.08,0,0,1-5.2-6.18,8,8,0,0,1,3.88-5.2m7.82,14.09a30.22,30.22,0,0,1-8.14-9.15,10.67,10.67,0,0,1,3.74-4.89,31.2,31.2,0,0,1,5.26-3.26m5.52,19.08c-4.37-3-8-6.91-11.49-10.83a43.39,43.39,0,0,1,13-9.33M107.82,88c-5.06-2.81-9.76-6.14-13.26-10.76.65-.65,11-7.75,15.44-9.7m2.35,20.29c-2.23-1.4-4.47-2.8-6.55-4.41a39.43,39.43,0,0,1-5.62-5.34,7.37,7.37,0,0,1,2-1.8c4.2-3,8.47-6,13.34-7.58m3.06,18.41a46.69,46.69,0,0,1-12.27-8.36A56.81,56.81,0,0,1,118.77,70m4,16.36Q117.9,83.23,113.2,80c3.06-3.4,7.36-5.36,11.53-7.24M127.53,85Q124.17,83,120.88,81a21,21,0,0,1,7.88-5.8m-73.27,47.1c6.85-10.09,13.91-20.73,15.26-32.92.91-8.27-.91-16.66-3.72-24.51C58.16,71.71,51.7,80.18,49.37,91.2S50.18,112.34,55.49,122.31Zm0,0c5.65-18.82,4.76-39,11.54-57.43m-7.3,6.54a8,8,0,0,1,6.1-2.22A61.43,61.43,0,0,1,70.25,76M54.16,78.81a31.1,31.1,0,0,1,4.64-4.1,10.73,10.73,0,0,1,5.75-2.18A30.34,30.34,0,0,1,71,83M51.12,85.18a43.27,43.27,0,0,1,12.66-9.71c2.73,4.51,5.49,9.08,7.06,14.12m-21.73,3c3.15-3.73,12.92-11.56,13.73-12,3.41,4.68,5.25,10.14,6.48,15.79M48.64,98.22c3-4.19,7.06-7.42,11.1-10.59A7.23,7.23,0,0,1,62,86.26a38.69,38.69,0,0,1,3.49,6.92,78.51,78.51,0,0,1,2.34,7.55m-19,1a56.73,56.73,0,0,1,12-9.44,47,47,0,0,1,4.48,14.16m-15.56,1.77c3-3.45,6.11-7,10.25-9q1.79,5.45,3.36,11m-12.38,2.57a20.88,20.88,0,0,1,7.82-5.88c.67,2.49,1.28,5,1.86,7.5m92,5.65c-8.3-9-17.08-18.21-28.66-22.26-7.85-2.75-16.43-2.86-24.71-1.89C104,106.1,110.81,114.3,121,119.05S141.81,123,152.72,120.08Zm0,0c-17.07-9.73-36.92-13.4-53.37-24.15m4.73,8.58a8,8,0,0,1-.79-6.44,62,62,0,0,1,7.58-2.78M110,111.6a32.57,32.57,0,0,1-3-5.44,10.74,10.74,0,0,1-.82-6.1,30.44,30.44,0,0,1,11.61-3.91M115.56,116a43.38,43.38,0,0,1-6.63-14.52c5-1.65,10.09-3.31,15.35-3.71m-1.91,21.86c-2.94-3.91-8.37-15.19-8.61-16.08,5.33-2.27,11.06-2.84,16.85-2.77m-2.91,20.56c-3.41-3.83-5.64-8.54-7.82-13.19a7.28,7.28,0,0,1-.82-2.54,39.72,39.72,0,0,1,7.52-1.85,76.92,76.92,0,0,1,7.88-.58m-3.27,18.69a56.89,56.89,0,0,1-6.51-13.82,46.71,46.71,0,0,1,14.81-1.18m-1.77,15.56c-2.69-3.69-5.45-7.53-6.43-12q5.72-.53,11.45-.81m-.27,12.64a20.84,20.84,0,0,1-4-8.94c2.58-.09,5.15-.13,7.73-.13M43.35,30.2a169.53,169.53,0,0,0-23.71,56M.25,62.66c5.1-3.89,10.47-7.91,16.83-9a29.07,29.07,0,0,1,13,1.22C26.73,59.75,22.48,63.4,16.76,65S5.64,65.16.25,62.66Zm0,0C10,59.14,20.57,59,30.05,54.9m-3.22,4a4.19,4.19,0,0,0,1-3.27,31,31,0,0,0-3.68-2.11m-1,8.53a17.1,17.1,0,0,0,2-2.56,5.66,5.66,0,0,0,1-3.09,15.87,15.87,0,0,0-5.66-3.05m-.57,10.48a22.79,22.79,0,0,0,4.72-6.93A34.69,34.69,0,0,0,17,53.63M16,65.13a60.34,60.34,0,0,0,5.88-7.57,21.6,21.6,0,0,0-8.48-2.93M13.1,65.54a27.76,27.76,0,0,0,5.22-6.14A3.71,3.71,0,0,0,19,58.16a21.07,21.07,0,0,0-3.74-1.63c-1.32-.42-2.67-.71-4-1m0,10a29.72,29.72,0,0,0,4.59-6.59A24.68,24.68,0,0,0,8.28,57m-.47,8.22a17.4,17.4,0,0,0,4.4-5.65c-1.94-.52-3.9-1-5.86-1.43m-1,6.57a11,11,0,0,0,2.85-4.28q-2-.42-4-.75M29.9,95.94a56,56,0,0,1-5.22-27.47m-3.78,20a1.52,1.52,0,1,1-1-1.88A1.53,1.53,0,0,1,20.9,88.44ZM31.05,96a1.52,1.52,0,1,0,1,1.88A1.53,1.53,0,0,0,31.05,96ZM40.71,26.1a97.76,97.76,0,0,0,44.57,7.08m19.13-24c-1.72,6.18-3.59,12.62-8,17.31a29.22,29.22,0,0,1-11.09,6.83c-.27-5.88.93-11.35,4.56-16S98.61,10.47,104.41,9.21Zm0,0c-5.63,8.66-14,15.15-19.12,24.14m0-.17C100.5,35,115.36,40.45,129,47.59c5.63,2.94,11.08,6.18,16.4,9.62m-24.55,8.27c0-5.89,0-12.05-2.77-17.3a26.85,26.85,0,0,0-8.1-8.81c-1.71,5.13-2,10.26,0,15.3S116,62.92,120.86,65.48Zm0,0C118,56.42,112.25,48.58,110,39.37M108.83,44a3.86,3.86,0,0,1,1.85-2.53,30.33,30.33,0,0,1,3.59,1.51m-5.68,5.48a15.73,15.73,0,0,1,.75-2.89,5.19,5.19,0,0,1,1.72-2.43,14.62,14.62,0,0,1,5.38,2.45m-7.35,6.24a20.94,20.94,0,0,1,2.45-7.3,31.44,31.44,0,0,1,6.64,3.75m-7.88,7.08a55.42,55.42,0,0,1,2.26-8.51,19.73,19.73,0,0,1,6.86,4.58m-7.8,6.29a25.19,25.19,0,0,1,1.59-7.23,3.37,3.37,0,0,1,.54-1.17A18.73,18.73,0,0,1,117,51.11a37.85,37.85,0,0,1,3,2.39M112.67,59a27.75,27.75,0,0,1,2.26-7,22.2,22.2,0,0,1,5.61,4.46m-5.75,4.91A16.06,16.06,0,0,1,116.48,55q2.19,1.71,4.3,3.49m-4.26,4.37a10.22,10.22,0,0,1,1.55-4.47c.94.82,1.86,1.66,2.76,2.51m-7.77-36.44c-4.15,3.51-6.28,8.2-7.15,13.53a26.89,26.89,0,0,0,11.27-4c4.87-3.36,7.78-8.79,10.51-14C122.23,20,117.22,21,113.06,24.47ZM105.91,38c6.29-7.1,15.07-11.34,21.78-18M111.36,36.83a31.73,31.73,0,0,1-3.89-.33,3.88,3.88,0,0,1-.45-3.1m7.48,2.14a14.5,14.5,0,0,1-5.9-.35,5.26,5.26,0,0,1-.4-2.94,15.4,15.4,0,0,1,.69-2.91m8.4,4.63a31.84,31.84,0,0,1-7.62.22,20.72,20.72,0,0,1,1.23-7.6m8.95,5.17a20,20,0,0,1-8.2.85,55.19,55.19,0,0,1,2-8.58m7.73,6.12a36.51,36.51,0,0,1-3.75.73,18.62,18.62,0,0,1-3.73.1,3.5,3.5,0,0,1,0-1.29,25.74,25.74,0,0,1,2-7.14m7.33,5.24a22.64,22.64,0,0,1-7,1.34,27.66,27.66,0,0,1,1.27-7.27m6.94,4.24q-2.7.58-5.43,1.08a16,16,0,0,1,1.46-6.41M125.54,24c-1.2.33-2.41.64-3.62.93a10.07,10.07,0,0,1,.72-4.67M144,83.63c0-8.13,0-16.64-3.83-23.88-2.58-4.91-6.7-8.87-11.18-12.16-2.36,7.07-2.78,14.16,0,21.12S137.37,80.1,144,83.63Zm0,0c-3.89-12.5-11.89-23.32-15-36m-1.6,6.33a5.32,5.32,0,0,1,2.55-3.5,41.41,41.41,0,0,1,5,2.1m-7.84,7.56a20.9,20.9,0,0,1,1-4,7.16,7.16,0,0,1,2.37-3.35,20.2,20.2,0,0,1,7.43,3.37m-10.15,8.63a29.21,29.21,0,0,1,3.38-10.09,43.75,43.75,0,0,1,9.17,5.18M129.44,69.6a76.65,76.65,0,0,1,3.12-11.74A27.46,27.46,0,0,1,142,64.17m-10.77,8.7a35.7,35.7,0,0,1,2.19-10,4.77,4.77,0,0,1,.76-1.61,26.45,26.45,0,0,1,4.5,2.52c1.44,1,2.78,2.16,4.11,3.3m-10.1,7.62A37.33,37.33,0,0,1,135.84,65a31.14,31.14,0,0,1,7.74,6.16M135.64,78c.37-3,.78-6.14,2.33-8.76q3,2.34,5.95,4.81M138,80a13.94,13.94,0,0,1,2.14-6.17c1.29,1.13,2.56,2.29,3.82,3.46m-11.46-51C126,30,121.86,35.78,119.26,42.77c5.55.24,11.25-.26,16.34-2.47,7.49-3.27,12.87-9.86,18-16.22C146.15,22.67,139.09,22.67,132.53,26.33ZM119.26,42.77c10.4-8,23.42-11.38,34.29-18.69M127,42.63a42.28,42.28,0,0,1-5.17-1.47,5.33,5.33,0,0,1,.2-4.32m9.57,4.87a20.13,20.13,0,0,1-7.9-2,7.16,7.16,0,0,1,.24-4.09,20.83,20.83,0,0,1,1.7-3.76m10.16,8.49a43.81,43.81,0,0,1-10.39-1.71,28.66,28.66,0,0,1,3.69-10M139.8,38a27.41,27.41,0,0,1-11.33-1,75.21,75.21,0,0,1,4.92-11.11m8.86,10.34a51.46,51.46,0,0,1-5.27,0,25.79,25.79,0,0,1-5.09-.86,4.62,4.62,0,0,1,.42-1.73,35.22,35.22,0,0,1,4.54-9.15m8.55,9a31.31,31.31,0,0,1-9.9-.06A38,38,0,0,1,139.14,24m8.29,7.57q-3.83.11-7.65,0c.43-3,2.07-5.7,3.68-8.29m6.1,5.72c-1.71.13-3.42.23-5.14.3a14.07,14.07,0,0,1,2.2-6.14m17.79,43.31c-5-5.57-11.6-8.28-19-9.24,1,5.47,2.78,10.91,6.08,15.36,4.87,6.57,12.5,10.33,19.84,13.85C171,78.89,169.45,72,164.41,66.45Zm-19-9.24c10.09,8.35,16.35,20.27,25.92,29.21M147.28,64.68a40.23,40.23,0,0,1,.27-5.38,5.37,5.37,0,0,1,4.26-.77M149.21,69a20,20,0,0,1,.2-8.16,7.15,7.15,0,0,1,4-.68,20.76,20.76,0,0,1,4.05.81m-6,11.8a43.37,43.37,0,0,1-.67-10.5,28.85,28.85,0,0,1,10.55,1.35m-6.71,12.59a27.37,27.37,0,0,1-1.57-11.28,77.17,77.17,0,0,1,11.94,2.3m-8.09,11A50.31,50.31,0,0,1,155.78,73a25.38,25.38,0,0,1-.31-5.15,4.64,4.64,0,0,1,1.78,0,35.46,35.46,0,0,1,9.94,2.37M160.3,80.6A31.38,31.38,0,0,1,158.13,71a37.79,37.79,0,0,1,10.08,1.41m-5.51,9.77c-.63-2.47-1.22-4.95-1.75-7.45,3-.25,6,.74,8.91,1.73m-4.2,7.23c-.51-1.64-1-3.29-1.45-4.94a14,14,0,0,1,6.48.76M123.45,8.4c-11.78,6.76-23,15.3-31.58,25.78M113.18,15.1A37.36,37.36,0,0,1,131.7,13m-7.95-4.53a1,1,0,1,1,1.4.28A1,1,0,0,1,123.75,8.47ZM133.37,14a1,1,0,1,0-1.4-.28A1,1,0,0,0,133.37,14ZM85.43,28.2a4.26,4.26,0,0,0,1.19,3.2,31.46,31.46,0,0,0,4.21-.53m-4.32-7.42a16.15,16.15,0,0,0-.07,3.26,5.54,5.54,0,0,0,1.08,3,15.82,15.82,0,0,0,6.36-1M88,20.07a22.73,22.73,0,0,0,.4,8.38,34.74,34.74,0,0,0,8.07-2m-6.16-9.75a60,60,0,0,0-.15,9.58,21.45,21.45,0,0,0,8.54-2.76m-6.31-8.9a27.75,27.75,0,0,0-.48,8,3.83,3.83,0,0,0,.23,1.39,20.77,20.77,0,0,0,4-.95A40.13,40.13,0,0,0,100,21.51m-6-8a29.51,29.51,0,0,0,.29,8,24.5,24.5,0,0,0,7.2-3m-4.57-6.85a17.64,17.64,0,0,0-.12,7.16q2.81-1.14,5.55-2.38M99.1,10.66a11,11,0,0,0,.29,5.14c1.23-.58,2.44-1.18,3.64-1.8M95.31,45a90.47,90.47,0,0,1-8.65-3.2C79.37,38.71,72.3,35,64.74,32.66M97.4,45.28a1,1,0,1,1-1.05-1.05A1,1,0,0,1,97.4,45.28Zm-41.86-14C58,27,63,25.16,67.41,23a59.22,59.22,0,0,0,13.73-9.25m2.4-.66a1.53,1.53,0,0,1-1.88,1,1.51,1.51,0,1,1,1.88-1Z"/><path class="cls-27" d="M395.53,528.19c7.3,6.1,14.37,12.47,21.09,19.23,21.33,21.45,39.16,47.22,47,76.45M414.9,577.78c8.14.68,15.36-2,21.94-6.76-4.86-3.59-10.29-6.6-16.22-7.69-8.74-1.6-17.59,1.07-26,3.71C400.41,572.81,406.77,577.09,414.9,577.78ZM436.84,571c-14.2.85-28-4-42.24-4m35.22-.56a42.24,42.24,0,0,1,3.77,4.47,5.79,5.79,0,0,1-2.8,3.77m-5.67-10.21a22,22,0,0,1,5.9,6.63,7.83,7.83,0,0,1-2.71,3.54A22.61,22.61,0,0,1,424.5,577m-4-13.82a47.18,47.18,0,0,1,8.32,7.85,31.4,31.4,0,0,1-9.38,6.75m-4-15a29.79,29.79,0,0,1,9.6,7.79c-.47.47-7.93,5.61-11.19,7M412.15,563a56.35,56.35,0,0,1,4.75,3.2A28.57,28.57,0,0,1,421,570a5.23,5.23,0,0,1-1.43,1.3c-3,2.14-6.13,4.31-9.66,5.49m-2.21-13.33a33.69,33.69,0,0,1,8.88,6.06,40.85,40.85,0,0,1-9.05,6.35m-2.87-11.85q3.51,2.25,6.91,4.62c-2.22,2.46-5.33,3.88-8.35,5.24m-2-8.86c1.63.92,3.23,1.87,4.82,2.85a15.11,15.11,0,0,1-5.71,4.2M456.79,537c-6.27,6.23-12.76,12.81-15.41,21.29-1.79,5.75-1.66,12-.75,17.93,7.25-3.62,13-8.75,16.2-16.26S459.19,544.85,456.79,537Zm0,0c-6.62,12.59-8.79,27.05-16.16,39.22m6.09-3.63a5.85,5.85,0,0,1-4.64.73,44.56,44.56,0,0,1-2.2-5.42m11.83.2a22.85,22.85,0,0,1-3.87,2.28,7.73,7.73,0,0,1-4.39.74,21.9,21.9,0,0,1-3.12-8.3M454.75,564a31.54,31.54,0,0,1-10.34,5.15,47.42,47.42,0,0,1-3.07-11m15.88.85c-2.76,2.22-10.79,6.42-11.43,6.62a29.71,29.71,0,0,1-2.42-12.13m14.95,1.6c-2.68,2.57-6,4.3-9.35,6a5.32,5.32,0,0,1-1.82.66,27.64,27.64,0,0,1-1.52-5.4,54.37,54.37,0,0,1-.62-5.69m13.61,1.91a41.26,41.26,0,0,1-9.84,5,33.85,33.85,0,0,1-1.22-10.69m11.31.9c-2.61,2-5.32,4.13-8.53,4.94-.35-2.74-.64-5.5-.87-8.26m9.16-.12a15.21,15.21,0,0,1-6.38,3.1c-.13-1.86-.22-3.72-.28-5.59m-65.65,14.85c11.23.94,21.21-2.81,30.3-9.33-6.71-4.95-14.22-9.11-22.4-10.62-12.07-2.22-24.29,1.48-35.93,5.13C366.31,549.89,375.1,555.8,386.32,556.75Zm30.3-9.33c-19.62,1.18-38.68-5.48-58.33-5.49m48.64-.79a62.72,62.72,0,0,1,5.2,6.18,8,8,0,0,1-3.88,5.2m-7.82-14.09a30.34,30.34,0,0,1,8.14,9.15,10.74,10.74,0,0,1-3.74,4.89,31.6,31.6,0,0,1-5.26,3.26m-5.52-19.08c4.37,3,7.95,6.92,11.49,10.83a43.39,43.39,0,0,1-13,9.33m-5.53-20.68c5.06,2.81,9.76,6.14,13.26,10.76-.65.65-11,7.75-15.45,9.7m-2.34-20.29a78.22,78.22,0,0,1,6.55,4.42,38.81,38.81,0,0,1,5.62,5.33,7.37,7.37,0,0,1-2,1.8c-4.2,2.95-8.47,5.95-13.34,7.58M376.33,537a46.94,46.94,0,0,1,12.27,8.36,56.21,56.21,0,0,1-12.5,8.78m-4-16.36q4.85,3.09,9.54,6.38c-3.06,3.39-7.36,5.36-11.53,7.23m-2.8-12.24q3.36,1.92,6.65,3.94a20.89,20.89,0,0,1-7.89,5.8m73.28-47.1c-6.85,10.1-13.91,20.73-15.26,32.93-.91,8.27.91,16.65,3.72,24.5,8.86-6.82,15.33-15.29,17.66-26.32S444.7,511.78,439.39,501.81Zm0,0c-5.65,18.82-4.76,39-11.54,57.43m7.29-6.54a8,8,0,0,1-6.1,2.22,62.7,62.7,0,0,1-4.41-6.76m16.09-2.85a31.1,31.1,0,0,1-4.64,4.1,10.66,10.66,0,0,1-5.76,2.18,30.34,30.34,0,0,1-6.42-10.43m19.86-2.22a43.48,43.48,0,0,1-12.66,9.72c-2.73-4.52-5.49-9.09-7.06-14.13m21.73-3c-3.15,3.74-12.92,11.56-13.73,12-3.42-4.67-5.25-10.14-6.49-15.79m20.69-1.79c-3,4.19-7.06,7.42-11.1,10.59a7.34,7.34,0,0,1-2.29,1.37,38.94,38.94,0,0,1-3.49-6.91A76.61,76.61,0,0,1,427,523.4m19-1a56.73,56.73,0,0,1-12,9.44,46.7,46.7,0,0,1-4.48-14.16m15.56-1.77c-3,3.45-6.11,7-10.25,9q-1.79-5.46-3.36-11m12.38-2.58a20.91,20.91,0,0,1-7.83,5.88c-.66-2.49-1.27-5-1.85-7.5m-92-5.65c8.3,8.95,17.08,18.21,28.66,22.27,7.85,2.75,16.43,2.85,24.71,1.88-4.66-10.17-11.46-18.37-21.68-23.12S353.07,501.11,342.16,504Zm0,0c17.07,9.73,36.92,13.4,53.37,24.15m-4.73-8.58a8,8,0,0,1,.79,6.44,61,61,0,0,1-7.58,2.79m.84-16.32A31.81,31.81,0,0,1,387.8,518a10.74,10.74,0,0,1,.83,6.1A30.16,30.16,0,0,1,377,528m2.3-19.85A43.34,43.34,0,0,1,386,522.65c-5,1.64-10.09,3.3-15.35,3.7m1.91-21.86c2.94,3.92,8.36,15.19,8.6,16.08-5.32,2.27-11.05,2.84-16.84,2.77m2.91-20.56c3.41,3.83,5.64,8.55,7.82,13.19a7.28,7.28,0,0,1,.82,2.54,39,39,0,0,1-7.52,1.85c-2.61.37-5.25.48-7.89.59m3.28-18.7a56.48,56.48,0,0,1,6.5,13.82,46.62,46.62,0,0,1-14.8,1.18m1.77-15.56c2.69,3.69,5.45,7.53,6.43,12q-5.71.52-11.45.81m.27-12.64a21,21,0,0,1,4,8.95c-2.58.08-5.15.12-7.73.12m102.87,83a169.53,169.53,0,0,0,23.71-56m19.39,23.5c-5.1,3.89-10.47,7.91-16.83,9a29.06,29.06,0,0,1-13-1.21c3.32-4.86,7.57-8.5,13.29-10.06S489.24,559,494.63,561.46Zm0,0c-9.71,3.52-20.32,3.66-29.8,7.77m3.21-4a4.27,4.27,0,0,0-1,3.27,32.71,32.71,0,0,0,3.68,2.11m1-8.52a16.53,16.53,0,0,0-2,2.55,5.69,5.69,0,0,0-1,3.09,16,16,0,0,0,5.67,3.06m.57-10.49a22.73,22.73,0,0,0-4.72,6.93,34.69,34.69,0,0,0,7.62,3.29m.95-11.5a59.38,59.38,0,0,0-5.88,7.57,21.6,21.6,0,0,0,8.48,2.93m.32-10.91a28.31,28.31,0,0,0-5.23,6.14,4,4,0,0,0-.65,1.24,20.36,20.36,0,0,0,3.74,1.63c1.32.42,2.67.71,4,1m0-10a30.1,30.1,0,0,0-4.6,6.59,24.52,24.52,0,0,0,7.57,1.92m.47-8.22a17.4,17.4,0,0,0-4.4,5.65c1.94.52,3.9,1,5.86,1.44m1-6.57a10.89,10.89,0,0,0-2.85,4.28q2,.4,4,.75M465,528.19a56,56,0,0,1,5.22,27.46m3.78-20a1.51,1.51,0,1,1,1,1.88A1.5,1.5,0,0,1,474,535.68Zm-10.15-7.57a1.51,1.51,0,1,0-1-1.88A1.53,1.53,0,0,0,463.83,528.11ZM454.17,598a97.89,97.89,0,0,0-44.57-7.08m-19.14,24c1.73-6.18,3.6-12.62,8-17.3a29,29,0,0,1,11.09-6.84c.27,5.88-.93,11.35-4.56,16S396.27,613.66,390.46,614.91Zm0,0c5.64-8.66,14-15.15,19.13-24.14m0,.17c-15.23-1.77-30.08-7.27-43.73-14.4-5.63-2.95-11.08-6.19-16.4-9.63M374,558.64c0,5.9,0,12.06,2.77,17.3a26.85,26.85,0,0,0,8.1,8.81c1.71-5.12,2-10.26,0-15.3S378.84,561.2,374,558.64Zm0,0c2.81,9.06,8.61,16.9,10.87,26.11m1.16-4.59a3.89,3.89,0,0,1-1.85,2.54,30.66,30.66,0,0,1-3.59-1.52m5.67-5.48a15.23,15.23,0,0,1-.74,2.9,5.29,5.29,0,0,1-1.72,2.42,14.74,14.74,0,0,1-5.39-2.45m7.35-6.24a20.84,20.84,0,0,1-2.44,7.31,32.08,32.08,0,0,1-6.64-3.75m7.88-7.09a56.61,56.61,0,0,1-2.26,8.51,19.85,19.85,0,0,1-6.86-4.57m7.8-6.3a25.46,25.46,0,0,1-1.59,7.23,3.39,3.39,0,0,1-.54,1.17,18.73,18.73,0,0,1-3.27-1.83,35.68,35.68,0,0,1-3-2.39m7.32-5.51a27.82,27.82,0,0,1-2.26,7,22.29,22.29,0,0,1-5.61-4.47m5.75-4.9a16.06,16.06,0,0,1-1.69,6.35c-1.46-1.13-2.89-2.3-4.31-3.49m4.26-4.37a10,10,0,0,1-1.54,4.47c-.94-.82-1.86-1.65-2.77-2.5m7.78,36.43c4.15-3.51,6.27-8.19,7.15-13.52a26.74,26.74,0,0,0-11.27,4c-4.87,3.36-7.78,8.79-10.51,14C372.65,604.14,377.66,603.16,381.82,599.65ZM389,586.13c-6.29,7.1-15.07,11.33-21.78,18m16.33-16.88a31.4,31.4,0,0,1,3.88.33,3.89,3.89,0,0,1,.46,3.1m-7.48-2.13a14.51,14.51,0,0,1,5.9.34,5.17,5.17,0,0,1,.39,2.94,15.19,15.19,0,0,1-.68,2.91m-8.4-4.62a31.32,31.32,0,0,1,7.62-.23,20.72,20.72,0,0,1-1.23,7.6m-9-5.16a19.88,19.88,0,0,1,8.2-.86,54.94,54.94,0,0,1-2,8.58M373.54,594c1.24-.28,2.48-.57,3.74-.73a18.72,18.72,0,0,1,3.74-.1,3.31,3.31,0,0,1-.06,1.29,25.39,25.39,0,0,1-2,7.14m-7.33-5.24a22.34,22.34,0,0,1,7-1.33,27.24,27.24,0,0,1-1.26,7.26M370.51,598q2.7-.6,5.43-1.08a16.15,16.15,0,0,1-1.46,6.4m-5.14-3.22c1.2-.33,2.41-.64,3.62-.93a10.11,10.11,0,0,1-.72,4.68m-21.38-63.39c0,8.13,0,16.64,3.83,23.88,2.57,4.92,6.7,8.87,11.18,12.17,2.36-7.08,2.78-14.17,0-21.13S357.51,544,350.86,540.49Zm0,0c3.89,12.51,11.89,23.33,15,36m1.6-6.34a5.35,5.35,0,0,1-2.55,3.5,42.31,42.31,0,0,1-5-2.09m7.83-7.57a20.26,20.26,0,0,1-1,4,7.18,7.18,0,0,1-2.37,3.34A20.24,20.24,0,0,1,357,568m10.15-8.63a28.73,28.73,0,0,1-3.38,10.09,43.89,43.89,0,0,1-9.16-5.17m10.88-9.78a76.65,76.65,0,0,1-3.12,11.74,27.32,27.32,0,0,1-9.47-6.31m10.77-8.69a35.55,35.55,0,0,1-2.19,10,4.87,4.87,0,0,1-.76,1.61,25.78,25.78,0,0,1-4.5-2.52,52,52,0,0,1-4.11-3.3m10.1-7.62A37.72,37.72,0,0,1,359,559.1a31,31,0,0,1-7.74-6.16m7.94-6.77c-.37,3-.78,6.15-2.33,8.77-2-1.57-4-3.17-6-4.82m5.88-6a13.89,13.89,0,0,1-2.13,6.17q-1.93-1.69-3.82-3.46m11.46,51c6.56-3.66,10.67-9.45,13.27-16.44-5.56-.24-11.25.26-16.34,2.48-7.49,3.26-12.87,9.85-17.95,16.21C348.73,601.45,355.79,601.45,362.35,597.79Zm13.27-16.44c-10.41,8-23.42,11.38-34.29,18.69m26.59-18.55A40.29,40.29,0,0,1,373.1,583a5.34,5.34,0,0,1-.2,4.32m-9.57-4.88a20.13,20.13,0,0,1,7.9,2,7.16,7.16,0,0,1-.24,4.09,21.24,21.24,0,0,1-1.7,3.77m-10.16-8.49a43.29,43.29,0,0,1,10.39,1.7,28.66,28.66,0,0,1-3.69,10m-10.75-9.37a27.41,27.41,0,0,1,11.33,1,77,77,0,0,1-4.92,11.11m-8.86-10.34a51.46,51.46,0,0,1,5.27,0,26.55,26.55,0,0,1,5.09.86,4.62,4.62,0,0,1-.42,1.73,35.54,35.54,0,0,1-4.54,9.15m-8.55-9a31.25,31.25,0,0,1,9.89,0,37.81,37.81,0,0,1-3.63,9.51m-8.29-7.57q3.82-.09,7.65,0c-.43,3-2.07,5.7-3.68,8.29m-6.1-5.72c1.71-.13,3.42-.23,5.14-.3a14.07,14.07,0,0,1-2.2,6.14m-17.79-43.31c5,5.57,11.6,8.28,19,9.24-1-5.46-2.78-10.9-6.09-15.36-4.86-6.57-12.49-10.33-19.83-13.85C323.84,545.23,325.43,552.1,330.47,557.67Zm19,9.24c-10.09-8.35-16.35-20.26-25.92-29.21m24.05,21.75a40.16,40.16,0,0,1-.27,5.37,5.33,5.33,0,0,1-4.26.77m2.6-10.42a20.21,20.21,0,0,1-.2,8.16,7.15,7.15,0,0,1-4,.68,20.76,20.76,0,0,1-4.05-.81m6-11.8a43.4,43.4,0,0,1,.67,10.5,28.85,28.85,0,0,1-10.55-1.35M340.2,548a27.47,27.47,0,0,1,1.57,11.27,77,77,0,0,1-11.94-2.3m8.09-11a52.25,52.25,0,0,1,1.18,5.13,25.38,25.38,0,0,1,.31,5.15,4.64,4.64,0,0,1-1.78,0,35.38,35.38,0,0,1-9.94-2.37m6.88-10.36a31.11,31.11,0,0,1,2.18,9.65,37.47,37.47,0,0,1-10.09-1.41m5.52-9.77q.94,3.71,1.74,7.45c-3,.26-6-.74-8.9-1.72m4.2-7.24q.76,2.46,1.45,4.94a13.88,13.88,0,0,1-6.48-.76m47.24,71.06c11.78-6.75,22.95-15.3,31.58-25.78M381.69,609a37.31,37.31,0,0,1-18.51,2.1m7.95,4.54a1,1,0,0,1-1.68,1.11,1,1,0,1,1,1.68-1.11Zm-9.62-5.54a1,1,0,1,0,1.11,1.68,1,1,0,0,0-1.11-1.68Zm47.93-14.2a4.21,4.21,0,0,0-1.18-3.2,33.18,33.18,0,0,0-4.21.53m4.32,7.42a16.06,16.06,0,0,0,.07-3.25,5.66,5.66,0,0,0-1.08-3,15.89,15.89,0,0,0-6.37,1m5.86,8.73a23,23,0,0,0-.4-8.39,34.74,34.74,0,0,0-8.07,2m6.16,9.75a60,60,0,0,0,.15-9.58,21.56,21.56,0,0,0-8.54,2.76m6.31,8.91a28.2,28.2,0,0,0,.48-8.05,3.87,3.87,0,0,0-.23-1.39,21.36,21.36,0,0,0-4,1,40.2,40.2,0,0,0-3.82,1.63m6,7.94a29.93,29.93,0,0,0-.29-8,24.5,24.5,0,0,0-7.2,3M398,612.4a17.47,17.47,0,0,0,.11-7.16q-2.79,1.14-5.54,2.38m3.17,5.84a10.92,10.92,0,0,0-.3-5.14c-1.22.58-2.43,1.18-3.63,1.81m7.72-31a90.47,90.47,0,0,1,8.65,3.2c7.29,3.1,14.35,6.8,21.92,9.14m-32.66-12.62a1,1,0,1,1,1,1A1,1,0,0,1,397.48,578.84Zm41.86,14c-2.49,4.22-7.47,6.09-11.87,8.24a59.53,59.53,0,0,0-13.73,9.25m-2.4.66a1.51,1.51,0,1,1,1,1.88A1.52,1.52,0,0,1,411.34,611Z"/><text class="cls-28" transform="translate(611.98 447.25)">Lorem ipsum</text></g></g></g></svg>