<svg xmlns="http://www.w3.org/2000/svg" xmlns:xlink="http://www.w3.org/1999/xlink" viewBox="0 0 595.28 841.89"><defs><style>.cls-1,.cls-10,.cls-11,.cls-19,.cls-20,.cls-3,.cls-7,.cls-8,.cls-9{fill:none;}.cls-2{clip-path:url(#clip-path);}.cls-10,.cls-11,.cls-3,.cls-7,.cls-8,.cls-9{stroke:#ceb3aa;}.cls-10,.cls-11,.cls-19,.cls-20,.cls-3,.cls-7,.cls-8,.cls-9{stroke-linecap:round;stroke-linejoin:round;}.cls-3{stroke-width:2.38px;}.cls-4{clip-path:url(#clip-path-2);}.cls-5{fill:#f2eceb;}.cls-6{fill:#e9dad3;}.cls-7{stroke-width:2.13px;}.cls-8{stroke-width:2.98px;}.cls-9{stroke-width:1.49px;}.cls-10,.cls-19{stroke-width:1.55px;}.cls-11,.cls-20{stroke-width:0.78px;}.cls-12{font-size:80px;}.cls-12,.cls-13,.cls-14,.cls-21{fill:#8e776e;}.cls-12,.cls-13{font-family:iCielSupaMegaFantastic-Regular, iCiel Supa Mega Fantastic;}.cls-13{font-size:111.51px;}.cls-14{font-size:20px;letter-spacing:0.3em;}.cls-14,.cls-21{font-family:Montserrat-SemiBold, Montserrat SemiBold;font-weight:600;}.cls-15{letter-spacing:0.25em;}.cls-16{letter-spacing:0.26em;}.cls-17{letter-spacing:0.29em;}.cls-18{letter-spacing:0.22em;}.cls-19,.cls-20{stroke:#e0cec7;}.cls-21{font-size:24px;letter-spacing:0.2em;}</style><clipPath id="clip-path"><rect class="cls-1" x="629.45" y="-14.17" width="623.62" height="870.24"/></clipPath><clipPath id="clip-path-2"><rect class="cls-1" x="-14.55" y="-14.06" width="624" height="870"/></clipPath></defs><title>card-f</title><g id="PRINT_2" data-name="PRINT 2"><g class="cls-2"><path class="cls-3" d="M671.75,84.53c-5.43,15.25-10.93,30.5-17.5,45.29a341.11,341.11,0,0,1-43.47,72.23c-7.17,9.13-14.85,18-20.3,28.21-5.12,9.61-8.32,20.53-15.81,28.44"/></g></g><g id="PRINT_1" data-name="PRINT 1"><g class="cls-4"><rect class="cls-5" x="-14.55" y="-14.06" width="624" height="870"/><path class="cls-6" d="M-10.27-80.48C12.36-66.22,33.66-49.32,55.09-33.35,70.2-22.1,87-8.82,98.81,7.21a91.27,91.27,0,0,1,7.86,12.54c5.82,11.32,9.1,25.36,6.35,38.39-3.54,16.74-16.8,28.19-27,41C69.81,119.46,64.67,145,66.27,170.49a234,234,0,0,0,5.63,36.66C82.11,252.22,73.25,304.84,37.21,337,14.86,357-15.79,364.08-45,370.51l-41.42,9.12C-102,383-119.53,388-126.39,402.34"/><path class="cls-7" d="M-49.07,258c20,8.47,52.82,3.25,72.69-4.57,22.81-9,40.68-28.78,52.72-49.59,15-25.93,23.87-54.68,34.87-82.39,18.21-45.89,44.9-90.18,85.93-119,47.34-33.3,107.56-36.53,163-45.26"/><path class="cls-6" d="M281.48,848.49a92.46,92.46,0,0,1,119-74c14.63,4.58,28.5,12.88,43.83,13.2,18.84.4,36.1-11.68,47.3-26.83s17.54-33.24,24.59-50.71c10.1-25,22.29-49.83,41.16-69.15s45.43-32.61,72.31-30.12L614,876.69Z"/><path class="cls-7" d="M329.83,919.63c5.63-40.16,15-82.82,38.44-116.69,11.18-16.15,25.9-29.56,44.23-37,23.82-9.7,50.65-3.7,75.6-7.65,32.72-5.17,55.24-28.08,67.48-58,1.85-4.52,3.51-9.32,3.07-14.19s-3.55-9.81-8.31-10.93c-5.9-1.38-11.78,3.74-13.29,9.61s.19,12,2.25,17.74c4,11.09,10,22.29,20.18,28.16,5.32,3.05,11.42,4.43,17.42,5.76l35.2,7.84c10.11,2.25,20.44,4.59,29.23,10.09s15.87,14.84,15.79,25.2"/><path class="cls-8" d="M161.9,694.61a6.42,6.42,0,0,1-2.89,4.91,18.85,18.85,0,0,1-5.39,2.36,20.35,20.35,0,0,1-2.65.72,19.77,19.77,0,0,1-6.63-.35,1.39,1.39,0,0,1-.74-.27,1.48,1.48,0,0,1-.36-.78q-.78-3.42-1.55-6.84A25.91,25.91,0,0,1,141,690a12.89,12.89,0,0,1,.6-4.7,2.28,2.28,0,0,1,.85-1.33,2.44,2.44,0,0,1,2.14.18c2.66,1.15,5.2,2.54,7.73,3.93l4,2.17c2.07,1.14,4.25,2.38,5.37,4.45"/><path class="cls-8" d="M194.76,654.45c-3.68,5.59-7.42,11.33-9,17.82-.88,3.53-1.16,7.32-3.11,10.39s-5,4.8-8.18,6.25-6.51,2.63-9.32,4.7c-.85.62-1.83,1.37-2.85,1.07"/><path class="cls-8" d="M195,654.06c-2.47,1.88-5.81,2-8.8,2.76-7.38,2-12.69,8.29-17.08,14.53s-8.68,13-15.35,16.71"/><path class="cls-8" d="M197.91,608.6c.89,6.45-.45,13-2.58,19.19s-5,12-7.43,18.07c-1.3,3.3-2.46,6.75-2.32,10.3"/><path class="cls-8" d="M197.89,608.3c-3.59,8.43-11.23,14.28-17.8,20.67-2.36,2.31-4.62,4.72-6.87,7.13q-5,5.32-9.95,10.64a81.82,81.82,0,0,0-7.85,9.3c-5.49,8-7.93,17.65-10.26,27.07"/><path class="cls-8" d="M179,630.91a102.61,102.61,0,0,1-19.38,7c-2.56.64-5.24,1.22-7.36,2.8a16.13,16.13,0,0,0-3.36,3.72,63.79,63.79,0,0,0-10.77,26,13.43,13.43,0,0,0-.21,4.33,15,15,0,0,0,1.73,4.41l2.27,4.35"/><path class="cls-9" d="M197.75,609.27c-1.63,6.47-3.34,13.1-7.16,18.59-2.6,3.75-6.09,6.8-8.76,10.51-3,4.11-4.81,8.9-7.47,13.21-2.19,3.54-4.9,6.74-7.09,10.29-3,4.84-5,10.25-8,15.08-2.3,3.66-5.22,7-6.4,11.2"/><path class="cls-9" d="M197.28,610.3A105.65,105.65,0,0,1,192,620.43c-5.09,8.3-12.33,15-18.72,22.35A133.48,133.48,0,0,0,158,664.31c-3.81,6.68-7.08,13.82-8.11,21.44"/><path class="cls-9" d="M191.84,637.32c-5.15,8.56-14.56,14.22-18.49,23.4a45.36,45.36,0,0,0-2.29,7.75"/><path class="cls-9" d="M167.19,635.37c-5.53,3.75-10.91,8-14.64,13.5a63,63,0,0,0-4.67,8.82,60.49,60.49,0,0,0-4.79,12.74c-1,4.45-.85,9.26,1.18,13.33"/><path class="cls-9" d="M194.42,654.89c-7.6,6.24-16.48,11.3-22.09,19.38-4.23,6.08-6.52,13.75-12.4,18.24"/><path class="cls-9" d="M187.62,660.32a17,17,0,0,0-4.06,4.39c-1.52,2.43-2.26,5.26-3.41,7.89a52.65,52.65,0,0,1-3.56,6.4c-2.4,3.89-4.9,7.89-8.63,10.54-.73.51-1.51,1-2.22,1.52a24.54,24.54,0,0,0-3.54,3.52"/><path class="cls-8" d="M57.53,688.23a11.41,11.41,0,0,1-3.49,9c-2.12,2-4.94,3.11-7.2,5a1.85,1.85,0,0,1-.56.36,1.8,1.8,0,0,1-1.42-.38c-5-3.18-10-7.27-11.83-12.94a5.7,5.7,0,0,1-.34-1.91c.05-2,1.81-3.53,3.7-4a13.88,13.88,0,0,1,5.84.13L53,685.24a9.09,9.09,0,0,1,2.56.7,3,3,0,0,1,1.65,2"/><path class="cls-8" d="M48.34,635.22c.35,7,5.19,13.08,5.65,20,.18,2.68-.31,5.35-.31,8,0,3.31.74,6.59.56,9.89A17.83,17.83,0,0,1,49.8,683.9"/><path class="cls-8" d="M48.26,635c-.73,2.25-1.68,4.76-3.86,5.68a12.21,12.21,0,0,1-3.19.57c-4.34.54-8.15,3.16-11.35,6.14a15.87,15.87,0,0,0-4.77,6.74,19,19,0,0,0-.5,5.59,51,51,0,0,0,.9,11.12,17.33,17.33,0,0,0,5.39,9.57c1.3,1.09,2.87,2,3.52,3.56"/><path class="cls-8" d="M55.37,605.05q-2.25,4-4.52,8c-.76,1.34-1.52,2.69-2.41,4-1.08,1.56-2.35,3-3.54,4.45a34.59,34.59,0,0,0-5.64,9.32,19.23,19.23,0,0,0-1.08,10.73"/><path class="cls-8" d="M55.37,604.9a68.55,68.55,0,0,0,8.68,31.72c3,5.4,6.91,10.92,6.4,17.08-.32,3.91-2.41,7.45-3.29,11.27-.55,2.36-.63,4.81-1.09,7.2a23.63,23.63,0,0,1-9,14.39"/><path class="cls-8" d="M50.76,612.15c-.78,1.64-2.45,2.62-4.07,3.43a65.34,65.34,0,0,1-11.6,4.57c-2.85.81-5.84,1.49-8.16,3.32-3.56,2.82-4.72,7.87-4,12.37s2.9,8.58,5.09,12.56"/><path class="cls-9" d="M55.17,606.43c-2.3,11.6.67,23.62,4.86,34.68.86,2.28,1.77,4.54,2.43,6.88a39.34,39.34,0,0,1,.08,19.52,64.13,64.13,0,0,1-7.69,18.08"/><path class="cls-9" d="M55.09,607c-3.94,6.54-6.35,14.23-5.44,21.81a51.49,51.49,0,0,0,2.3,9.37c2.71,8.55,5.63,17.2,5.74,26.17A42.55,42.55,0,0,1,52.58,685"/><path class="cls-9" d="M47.69,637c-2.25,9.06-.64,18.55.06,27.85a53.84,53.84,0,0,1,.18,6.47,33.89,33.89,0,0,1-3,12.48"/><path class="cls-9" d="M47.93,636.56c-.65,2.78-3.09,4.71-4.87,7-3,3.82-4.24,8.83-4.3,13.7s1,9.7,2,14.47l1.14,5.39a15.28,15.28,0,0,1,.43,6.15"/><path class="cls-9" d="M44.08,640.62c-5.25,4-10.73,8.29-13.24,14.4a13.22,13.22,0,0,0-.93,3.36,20.27,20.27,0,0,0,.09,4.47c.66,7.17,1.5,14.8,6,20.43"/><path class="cls-9" d="M48.94,614.7l-7,6.1a50.6,50.6,0,0,0-5.81,5.62,13.78,13.78,0,0,0-2.46,4c-1.06,2.8-.74,5.9-.42,8.88.18,1.65.37,3.31.55,5"/><path class="cls-9" d="M48,615.14a77.39,77.39,0,0,1-14,9.63c-1.87,1-3.89,2-5,3.84a9.79,9.79,0,0,0-1,5.25A43.7,43.7,0,0,0,30,646.7"/><path class="cls-8" d="M118.32,674.88c-2.22,2.9-2.45,6.81-2.63,10.46a95.49,95.49,0,0,1-2.26,18.49,37.6,37.6,0,0,1-8.33,16.49c-7.42,8.09-18.81,11.26-29.73,12.35-1.74.18-3.7.43-4.74,1.83"/><path class="cls-8" d="M70.27,734.9c1.14-2.78.43-5.95-.58-8.78s-2.32-5.65-2.38-8.65a21.25,21.25,0,0,1,1-6c2.72-9.85,5.84-20.33,13.71-26.84a19.88,19.88,0,0,1,4.53-2.88,34.28,34.28,0,0,1,5.8-1.83c5.6-1.39,11.21-2.79,16.84-4.09a16.92,16.92,0,0,1,5.65-.64c1.16.12,2.47.44,3.38-.29"/><path class="cls-8" d="M118.16,675.38l-5.64,4.23a55.44,55.44,0,0,0-4.56,3.67c-6.06,5.63-9.26,13.61-13.94,20.43-3.78,5.52-8.53,10.29-12.57,15.63-1.32,1.75-2.56,3.56-3.81,5.36l-6.57,9.55"/><path class="cls-9" d="M71,703.9l2.2,3.89c2.58,4.55,5.22,9.29,5.66,14.5"/><path class="cls-9" d="M96.94,726.45c-6.07-1-11.74-4-17.88-4.35"/><path class="cls-9" d="M78.35,689.16c3.14,4.66,6,9.62,7.24,15.09a56.14,56.14,0,0,1,1,7.87"/><path class="cls-9" d="M110.6,712.05a57.26,57.26,0,0,0-17.5-1.58,10.69,10.69,0,0,0-5.18,1.31"/><path class="cls-9" d="M89.78,681.15a19.32,19.32,0,0,1,3.92,8.54,57.45,57.45,0,0,1,1,9.44,12.27,12.27,0,0,1-.29,4.28"/><path class="cls-9" d="M114.55,697.24a20.4,20.4,0,0,0-7.26-1.18,20.6,20.6,0,0,0-2.7.47c-3.07.67-6.45,1.55-8.19,4.17"/><path class="cls-8" d="M-12.11,744.61c6.28,3.08,13.78,1.62,20.65,2.92a37.69,37.69,0,0,1,12.05,4.92c4.13,2.45,8.28,5.71,9.46,10.36.79,3.1.19,6.59,1.8,9.35"/><path class="cls-8" d="M-12.06,744.42a6.31,6.31,0,0,1,2.71,4.21,45.61,45.61,0,0,1,.55,5.11,23.72,23.72,0,0,0,5.62,12.69,28.84,28.84,0,0,0,11.45,8,19.34,19.34,0,0,0,6.85,1.5c5.55,0,10.69-3.22,16.24-3.4"/><path class="cls-8" d="M31.5,772.26c-5-.35-8.69-4.55-13.1-6.87-1.58-.83-3.27-1.43-4.87-2.21C5.79,759.4.64,751.59-7,747.67a9.12,9.12,0,0,1-3.1-2"/><path class="cls-9" d="M24.74,756.31a5.87,5.87,0,0,1,1.24,3,47.72,47.72,0,0,1,.28,11.46"/><path class="cls-9" d="M25.93,769.89a41.33,41.33,0,0,0-5.05,2.1c-1.49.73-2.94,1.55-4.38,2.36l-2.21,1.25"/><path class="cls-9" d="M19.49,766.62a9.83,9.83,0,0,0-5,1.75,30.05,30.05,0,0,1-4.66,2.68,10.09,10.09,0,0,1-5.65.51"/><path class="cls-9" d="M19.52,765.87c-.41-3-.43-6-1-9a14,14,0,0,0-3.91-8"/><path class="cls-9" d="M8.2,747.89a3.74,3.74,0,0,1,1.22,1.25c2.77,4.07,3.08,9.28,4.61,14"/><path class="cls-9" d="M13.76,763.27a15.21,15.21,0,0,0-6.68.26c-.91.27-1.78.64-2.67.93a15.3,15.3,0,0,1-8.79.16"/><path class="cls-9" d="M7,758.17a19.65,19.65,0,0,0-4.61-10.94"/><path class="cls-9" d="M6.35,758l-3.83.52c-3.33.45-6.77.89-10,0"/><path class="cls-9" d="M.31,753.33a19.58,19.58,0,0,1-8.81,1.12"/><path class="cls-9" d="M.14,752.88a7.89,7.89,0,0,0-2-5.6"/><path class="cls-8" d="M104.16,737.23c-1,2.28.09,4.88.77,7.28,1.65,5.76.7,11.91-.25,17.83-.39,2.42-.78,4.85-1.37,7.23a45.93,45.93,0,0,1-18.55,26.75"/><path class="cls-8" d="M104.25,737.16c-8,4-16.88,6.36-23.73,12.06A30.29,30.29,0,0,0,71,763.45a16.67,16.67,0,0,0-.75,7.94A23.79,23.79,0,0,0,71.36,775a44.28,44.28,0,0,0,3.72,8.38,42.61,42.61,0,0,0,2.82,3.88l6.75,8.61"/><path class="cls-8" d="M104.16,737.23A76.58,76.58,0,0,0,90.4,752.7a41.7,41.7,0,0,0-3.47,5.72,27.87,27.87,0,0,0-2.73,10.27c-.6,9,3.13,18.14.91,26.86"/><path class="cls-9" d="M98,782.05a16,16,0,0,1-2.86,1.53L85.51,788"/><path class="cls-9" d="M85.13,787.65q-5-2.13-10.08-4"/><path class="cls-9" d="M84.8,780.11A8.49,8.49,0,0,0,82.41,778a33.38,33.38,0,0,0-10.9-4.71"/><path class="cls-9" d="M84.76,779.41a21.38,21.38,0,0,1,3.68-2.48,43,43,0,0,1,6.4-3.21,14.16,14.16,0,0,1,7-.88"/><path class="cls-9" d="M84,771.18c-.87-2.91-3.17-5.17-5.53-7.08a13,13,0,0,0-6.26-3.2"/><path class="cls-9" d="M103.21,763.62a13.69,13.69,0,0,0-7.61.2,42,42,0,0,0-7.08,3c-1.67.85-3.51,1.87-4.07,3.66"/><path class="cls-9" d="M86,759.57a10.65,10.65,0,0,0-2.21-8.27,4.89,4.89,0,0,0-2.22-1.89"/><path class="cls-9" d="M105.61,756.23a15.37,15.37,0,0,0-12.27-.56,29.89,29.89,0,0,0-6.12,3.54"/><path class="cls-9" d="M105.35,747.93a8.43,8.43,0,0,0-4.2-.84,24.81,24.81,0,0,0-4.28.62A9.05,9.05,0,0,0,93.19,749"/><path class="cls-9" d="M93.3,742.18a7.33,7.33,0,0,1-.23,5.63"/><path class="cls-8" d="M189.26,790.06c.07-5.77,2.11-11.32,3.16-17s1-12.06-2.68-16.55a16.3,16.3,0,0,0-4-3.44,41.69,41.69,0,0,0-8-3.8c-4.19-1.58-8.45-3-12.76-4.2a37.64,37.64,0,0,0-6.37-1.36,42.47,42.47,0,0,0-6.28,0c-3.11.16-6.41.38-9,2.18-.57.4-1.23.9-1.88.67"/><path class="cls-8" d="M141.48,746.55c1.23,2.58,1.3,5.55,1.8,8.37.89,5,3.34,9.84,7.44,12.79a32.85,32.85,0,0,0,7.13,3.52c3.87,1.56,7.69,3.23,11.51,4.89l7.92,3.46a21.69,21.69,0,0,1,5.59,3.11,22.29,22.29,0,0,1,2.9,3.23l3.17,4"/><path class="cls-8" d="M189.21,790.25,186,780.69a26.08,26.08,0,0,0-2.34-5.61c-1.92-3.16-5.07-5.38-8.38-7s-6.85-2.79-10.2-4.34a46.07,46.07,0,0,1-10-6.22c-2.07-1.68-4-3.55-6-5.28a63.37,63.37,0,0,0-6.81-5"/><path class="cls-9" d="M148.83,752.44c1,1.7.52,3.81.25,5.75a14.64,14.64,0,0,0,1,8.54"/><path class="cls-9" d="M149.7,752.31a8,8,0,0,0,4.64-1.56c1.37-.93,2.56-2.1,3.83-3.16A10.75,10.75,0,0,1,160.5,746a6.58,6.58,0,0,1,5.06-.21"/><path class="cls-9" d="M176.84,748.58a9.09,9.09,0,0,0-3.6.06,12.06,12.06,0,0,0-5,3,32.41,32.41,0,0,1-4.54,3.75,11.58,11.58,0,0,1-8.49,1.35"/><path class="cls-9" d="M154.35,757.33a6.69,6.69,0,0,1,1.33,3.75c0,.81-.08,1.61-.11,2.42a11,11,0,0,0,2.58,7.39"/><path class="cls-9" d="M163.29,763.07l.87,6.26a13.45,13.45,0,0,0,.76,3.32,4.53,4.53,0,0,0,2.24,2.47"/><path class="cls-9" d="M191.43,761.25a5.61,5.61,0,0,0-3.26-4.1,9.22,9.22,0,0,0-5.35-.54,27.27,27.27,0,0,0-5.21,1.6L170,761.14a15.79,15.79,0,0,1-6.4,1.47"/><path class="cls-9" d="M173.26,767.09a13.4,13.4,0,0,1,1.7,5.48c.17,2.06-.08,4.34,1.18,6"/><path class="cls-9" d="M174,767.08a8.86,8.86,0,0,0,2.94-.6,27.54,27.54,0,0,1,8.36-1.24,12.47,12.47,0,0,1,4.08.57,6.23,6.23,0,0,1,3.28,2.41"/><path class="cls-9" d="M181.89,773.21a5.85,5.85,0,0,1,.49,3.56c-.16,1.2-.51,2.38-.67,3.58a2.32,2.32,0,0,0,.31,1.78"/><path class="cls-9" d="M182.55,774c3,.41,6.2-.12,9.18.63"/><path class="cls-8" d="M46.53,702.46c.44,20.21.78,40.45-.31,60.63A425.92,425.92,0,0,1,27.56,866.71c-4.31,13.83-9.36,27.56-11.17,41.93-1.7,13.5-.59,27.67-5.82,40.22"/><path class="cls-8" d="M71.3,734.14c-6.31,6.13-9.91,14.46-15.09,21.57A18.7,18.7,0,0,1,50.93,761a13.84,13.84,0,0,0-1.67,1.06c-1.16,1-1.66,2.55-2.63,3.73"/><path class="cls-8" d="M31.69,772.27q1.18,2.19,2.52,4.31c1.68,2.66,3.6,5.28,6.27,6.93a21.62,21.62,0,0,1,2.24,1.41,3.34,3.34,0,0,1,1.35,2.2"/><path class="cls-8" d="M144.83,702a287.66,287.66,0,0,0-16,33.89c-3.12,7.92-5.89,16-9.53,23.7C109,781.37,92.17,799.36,79.54,819.93c-3.21,5.23-6.16,10.65-9.9,15.52a118.63,118.63,0,0,1-12.31,13.06L23.1,881.3"/><path class="cls-8" d="M84.87,796.17a15.82,15.82,0,0,0,.76,10.18c.46,1.07,1.05,2.21.74,3.34"/><path class="cls-8" d="M142.06,746.88a7.94,7.94,0,0,0-5.2-.52,21.46,21.46,0,0,0-5,1.89c-1.34.65-2.68,1.31-4,2a26.32,26.32,0,0,1-5.06,2.19"/><path class="cls-10" d="M209.74,701.5c.17,1.29,1.38,2.13,2.35,3,2.33,2.09,3.61,5.07,4.83,8,.5,1.18,1,2.36,1.4,3.58a24,24,0,0,1-.78,17"/><path class="cls-10" d="M209.75,701.44c-2.4,4-5.7,7.49-7.14,11.91a15.83,15.83,0,0,0-.26,8.92,8.74,8.74,0,0,0,1.87,3.72,12.9,12.9,0,0,0,1.48,1.29,23,23,0,0,0,4,2.68,24.4,24.4,0,0,0,2.32.93l5.37,1.93"/><path class="cls-10" d="M209.74,701.5a39.54,39.54,0,0,0-1.8,10.65,21.41,21.41,0,0,0,.05,3.49,14.44,14.44,0,0,0,1.64,5.29c2.22,4.14,6.41,7.15,7.84,11.63"/><path class="cls-11" d="M219.42,723a8.22,8.22,0,0,1-.84,1.47l-3,4.6"/><path class="cls-11" d="M215.29,729.06q-2.79.44-5.57,1"/><path class="cls-11" d="M213.06,725.81a4.62,4.62,0,0,0-1.65-.28,17.5,17.5,0,0,0-6.13.93"/><path class="cls-11" d="M212.85,725.52a11.13,11.13,0,0,1,.94-2.12,21.21,21.21,0,0,1,1.94-3.19,7.37,7.37,0,0,1,2.86-2.34"/><path class="cls-11" d="M210.22,722.1a8,8,0,0,0-4.41-1.6,6.83,6.83,0,0,0-3.65.32"/><path class="cls-11" d="M216.62,713.42a7.22,7.22,0,0,0-3.3,2.2,20.89,20.89,0,0,0-2.29,3.3,3.72,3.72,0,0,0-.79,2.74"/><path class="cls-11" d="M207.88,716.42a5.61,5.61,0,0,0-3.28-3,2.52,2.52,0,0,0-1.5-.21"/><path class="cls-11" d="M215.64,709.49a8,8,0,0,0-5.58,3.16,15.65,15.65,0,0,0-1.73,3.26"/><path class="cls-11" d="M213.22,705.9a4.36,4.36,0,0,0-2.09.79,14,14,0,0,0-1.72,1.46,4.77,4.77,0,0,0-1.25,1.61"/><path class="cls-11" d="M206.31,706.7a3.81,3.81,0,0,1,1.45,2.55"/><path class="cls-10" d="M46.8,548.5c-1.19.53-1.66,1.93-2.22,3.1-1.36,2.82-3.86,4.89-6.29,6.87-1,.8-2,1.61-3,2.34a24,24,0,0,1-16.51,4"/><path class="cls-10" d="M46.86,548.5c-4.49-1.2-8.79-3.37-13.43-3.53a15.84,15.84,0,0,0-8.64,2.25,8.81,8.81,0,0,0-3,2.84,11.53,11.53,0,0,0-.83,1.78,17.43,17.43,0,0,0-1.71,7q-.18,2.85-.35,5.7"/><path class="cls-10" d="M46.8,548.5a39.73,39.73,0,0,0-10.73,1.26,20.33,20.33,0,0,0-3.33,1,14.48,14.48,0,0,0-4.63,3.06c-3.35,3.29-5.07,8.15-9,10.78"/><path class="cls-11" d="M28.84,563.82a8.53,8.53,0,0,1-1.64-.4l-5.26-1.62"/><path class="cls-11" d="M21.89,561.54c-.8-1.7-1.65-3.39-2.53-5.06"/><path class="cls-11" d="M24.38,558.49a4.28,4.28,0,0,0-.19-1.66,17.17,17.17,0,0,0-2.61-5.62"/><path class="cls-11" d="M24.61,558.21a10.43,10.43,0,0,1,2.29.31,21.37,21.37,0,0,1,3.61,1,7.37,7.37,0,0,1,3.05,2.1"/><path class="cls-11" d="M27.15,554.72a7.89,7.89,0,0,0,.31-4.67,6.84,6.84,0,0,0-1.33-3.42"/><path class="cls-11" d="M37.28,558.45a7.16,7.16,0,0,0-3-2.56,21.87,21.87,0,0,0-3.81-1.28,3.7,3.7,0,0,0-2.85,0"/><path class="cls-11" d="M32,550.89a5.57,5.57,0,0,0,2-4,2.51,2.51,0,0,0-.21-1.51"/><path class="cls-11" d="M40.78,556.41a8,8,0,0,0-4.59-4.48,15.84,15.84,0,0,0-3.62-.74"/><path class="cls-11" d="M43.55,553.08a4.34,4.34,0,0,0-1.34-1.78,12.62,12.62,0,0,0-1.89-1.25,4.75,4.75,0,0,0-1.89-.75"/><path class="cls-11" d="M40.85,546.66a3.81,3.81,0,0,1-2,2.11"/><path class="cls-8" d="M602.44,153.21a6.43,6.43,0,0,1,1.21,5.56,29,29,0,0,1-3.81,7.73,19.92,19.92,0,0,1-5.1,4.24,1.07,1.07,0,0,1-1.52,0l-5.79-4a26.46,26.46,0,0,1-3.51-2.71,13.15,13.15,0,0,1-2.75-3.86,2.26,2.26,0,0,1-.28-1.55c.21-.72,1-1.07,1.7-1.32,2.72-1,5.53-1.67,8.34-2.37l4.38-1.1c2.29-.57,4.73-1.14,7-.38"/><path class="cls-8" d="M599.2,101c-.54,3.06-2.93,5.38-4.59,8-4.08,6.45-3.68,14.7-2.66,22.27s2.47,15.44.08,22.69"/><path class="cls-8" d="M570.44,65.62c5,4.14,8.52,9.88,11.14,15.84s4.47,12.24,6.83,18.31c1.28,3.3,2.78,6.62,5.28,9.13"/><path class="cls-8" d="M570.22,65.41c3.09,8.63,1.46,18.11,1,27.27-.18,3.3-.19,6.6-.21,9.9q0,7.29-.07,14.57a80.85,80.85,0,0,0,.55,12.15c1.41,9.6,6.18,18.34,10.86,26.84"/><path class="cls-8" d="M571.69,94.87a102,102,0,0,1-9.48,18.29c-1.44,2.21-3,4.45-3.5,7a16.26,16.26,0,0,0,.07,5,63.87,63.87,0,0,0,9.76,26.41,13.23,13.23,0,0,0,2.78,3.31,14.67,14.67,0,0,0,4.27,2.06l4.62,1.65"/><path class="cls-9" d="M570.78,66.22c3.2,5.86,6.45,11.89,7.37,18.51.64,4.52.15,9.13.71,13.66.62,5,2.51,9.8,3.49,14.77.8,4.09,1,8.28,1.78,12.37,1.09,5.59,3.32,10.9,4.38,16.5.81,4.24,1,8.71,2.92,12.56"/><path class="cls-9" d="M571.13,67.3a105.48,105.48,0,0,1,3,11c1.9,9.55,1.14,19.4,1.44,29.12A133.56,133.56,0,0,0,579,133.62c1.74,7.48,4.19,14.94,8.61,21.23"/><path class="cls-9" d="M585.49,90.83c2,9.78-1,20.32,2.33,29.73a46,46,0,0,0,3.58,7.24"/><path class="cls-9" d="M566.07,106.14c-1.5,6.5-2.59,13.25-1.57,19.85a62.43,62.43,0,0,0,2.57,9.65c1.4,4.32,2.81,8.69,5.14,12.6s5.67,7.37,9.92,9"/><path class="cls-9" d="M599.32,102c-1.33,9.75-4.41,19.49-3.05,29.24,1,7.33,4.56,14.51,3.29,21.8"/><path class="cls-8" d="M521.51,219.42a11.42,11.42,0,0,1,3.58,9c-.2,2.91-1.52,5.64-1.92,8.53a1.73,1.73,0,0,1-.17.65,1.71,1.71,0,0,1-1.3.68c-5.86,1.1-12.25,1.44-17.47-1.46a5.88,5.88,0,0,1-1.55-1.16c-1.29-1.48-1.07-3.83,0-5.49a13.78,13.78,0,0,1,4.37-3.86l9.1-6a8.91,8.91,0,0,1,2.35-1.22,3,3,0,0,1,2.55.31"/><path class="cls-8" d="M478.76,186.76c5,4.87,12.69,6.07,17.75,10.87,1.95,1.84,3.41,4.13,5.24,6.1,2.24,2.42,5,4.33,7.11,6.88a17.75,17.75,0,0,1,4,10.89"/><path class="cls-8" d="M478.56,186.67c1,2.14,2,4.63,1,6.78a11.89,11.89,0,0,1-1.95,2.59c-2.82,3.35-3.84,7.85-4.16,12.21a15.81,15.81,0,0,0,1.09,8.19,18.6,18.6,0,0,0,3.42,4.45,51.49,51.49,0,0,0,8.21,7.55,17.44,17.44,0,0,0,10.46,3.36c1.69-.09,3.47-.49,5,.22"/><path class="cls-8" d="M463.42,159.84c.71,3,1.41,6,2.12,8.94.35,1.5.71,3,.92,4.54.25,1.88.29,3.78.41,5.67a35,35,0,0,0,2.2,10.67,19.29,19.29,0,0,0,6.49,8.61"/><path class="cls-8" d="M463.31,159.73a68.74,68.74,0,0,0,27.92,17.38c5.88,1.91,12.49,3.32,16.31,8.19,2.42,3.09,3.29,7.1,5.23,10.5,1.2,2.11,2.81,4,4.09,6A23.66,23.66,0,0,1,520,218.52"/><path class="cls-8" d="M464.86,168.19c.54,1.72,0,3.58-.65,5.27a66.84,66.84,0,0,1-5.42,11.24c-1.53,2.53-3.27,5.06-3.73,8-.7,4.49,1.88,9,5.43,11.82s8,4.32,12.27,5.76"/><path class="cls-9" d="M464.21,161c6.2,10.08,16.54,16.88,27.13,22.16,2.17,1.09,4.38,2.13,6.45,3.4a39.25,39.25,0,0,1,13.32,14.27,64.3,64.3,0,0,1,6.64,18.49"/><path class="cls-9" d="M464.5,161.42c1.55,7.48,5,14.76,10.83,19.71a50.93,50.93,0,0,0,8.05,5.31c7.79,4.43,15.82,8.8,22,15.3a42.78,42.78,0,0,1,10.33,18.68"/><path class="cls-9" d="M479.5,188.52c4.5,8.17,12.13,14,19,20.39a53.38,53.38,0,0,1,4.52,4.63,33.76,33.76,0,0,1,6.28,11.18"/><path class="cls-9" d="M479.36,188c1.41,2.48.94,5.56,1.16,8.41.37,4.86,2.88,9.36,6.15,13s7.28,6.48,11.26,9.3l4.49,3.18a15.23,15.23,0,0,1,4.5,4.21"/><path class="cls-9" d="M479.29,193.62c-1.13,6.5-2.24,13.37.07,19.56a13.4,13.4,0,0,0,1.6,3.1,20.9,20.9,0,0,0,3.1,3.21c5.36,4.82,11.16,9.84,18.28,10.92"/><path class="cls-9" d="M465.26,171.29c-.34,3.08-.67,6.16-1,9.24a50.73,50.73,0,0,0-.44,8.07,13.76,13.76,0,0,0,.89,4.59c1.13,2.77,3.47,4.84,5.73,6.8l3.77,3.27"/><path class="cls-9" d="M464.83,172.28a76.9,76.9,0,0,1-3.75,16.6c-.69,2-1.48,4.12-1.05,6.2a9.89,9.89,0,0,0,2.81,4.56,43.78,43.78,0,0,0,10.27,8"/><path class="cls-8" d="M557.05,168.32c.34,3.64,2.83,6.67,5.18,9.47a95.94,95.94,0,0,1,10.9,15.11,37.5,37.5,0,0,1,5.08,17.75c0,11-6.15,21-13.43,29.27-1.15,1.31-2.42,2.82-2.23,4.56"/><path class="cls-8" d="M562.56,245c-1-2.81-3.73-4.67-6.39-6.06s-5.54-2.56-7.62-4.73a21,21,0,0,1-3.31-5.12c-4.69-9.07-9.53-18.88-8.17-29a20.17,20.17,0,0,1,1.36-5.19,34.12,34.12,0,0,1,3-5.28c3.17-4.84,6.33-9.67,9.58-14.44a16.91,16.91,0,0,1,3.71-4.31c.94-.7,2.12-1.36,2.29-2.52"/><path class="cls-8" d="M557.28,168.8q-.64,3.47-1.27,6.93a54.44,54.44,0,0,0-.86,5.8c-.62,8.25,2.45,16.28,3.66,24.46,1,6.62.72,13.35,1.38,20,.22,2.18.54,4.35.85,6.53q.84,5.73,1.67,11.46"/><path class="cls-9" d="M542,221.81l4.25,1.35c5,1.59,10.14,3.27,14,6.8"/><path class="cls-9" d="M576.39,220.7c-5.12,3.4-11.36,5-16.07,9"/><path class="cls-9" d="M537.42,206c5.46,1.28,10.93,3,15.56,6.15a57,57,0,0,1,6.11,5.08"/><path class="cls-9" d="M576.64,200.85a57.46,57.46,0,0,0-13.93,10.73,10.59,10.59,0,0,0-2.9,4.48"/><path class="cls-9" d="M540.37,192.31a19.41,19.41,0,0,1,8.68,3.61,58,58,0,0,1,7.12,6.27,12.32,12.32,0,0,1,2.69,3.34"/><path class="cls-9" d="M569.47,187.3a15.33,15.33,0,0,0-7.79,6.24c-1.8,2.58-3.68,5.52-3.17,8.63"/><path class="cls-8" d="M508.69,308.1c6.7-2,11.21-8.17,17.14-11.89A38,38,0,0,1,538,291.64c4.7-1,10-1.43,14,1.18,2.68,1.74,4.61,4.7,7.67,5.64"/><path class="cls-8" d="M508.61,307.93a6.32,6.32,0,0,1,4.84,1.24,44.16,44.16,0,0,1,3.87,3.38A23.69,23.69,0,0,0,530.07,318a28.77,28.77,0,0,0,13.82-1.92,19.38,19.38,0,0,0,6-3.56c4.1-3.73,5.66-9.62,9.61-13.53"/><path class="cls-8" d="M559.47,298.77c-3.88,3.13-9.46,2.56-14.27,3.85-1.73.47-3.37,1.18-5.08,1.69-8.25,2.48-17.33.25-25.62,2.59a9.31,9.31,0,0,1-3.67.6"/><path class="cls-9" d="M543.68,291.66a5.84,5.84,0,0,1,3,1.38,48.58,48.58,0,0,1,8,8.22"/><path class="cls-9" d="M553.78,300.82a42.75,42.75,0,0,0-2.28,5c-.6,1.55-1.1,3.13-1.61,4.71-.26.81-.51,1.62-.77,2.42"/><path class="cls-9" d="M546.83,302.79a9.85,9.85,0,0,0-2.49,4.69,31.79,31.79,0,0,1-1.59,5.13,10.19,10.19,0,0,1-3.81,4.21"/><path class="cls-9" d="M546.35,302.21c-2.34-1.91-4.42-4.14-6.84-5.95a14,14,0,0,0-8.3-3.22"/><path class="cls-9" d="M525.82,296.71a3.75,3.75,0,0,1,1.76.09c4.79,1.11,8.56,4.71,12.85,7.12"/><path class="cls-9" d="M540.35,304.23a15.3,15.3,0,0,0-4.72,4.72c-.49.81-.87,1.68-1.33,2.5a15.31,15.31,0,0,1-6.34,6.09"/><path class="cls-9" d="M531.92,305.09a19.6,19.6,0,0,0-10.82-4.9"/><path class="cls-9" d="M531.35,305.4l-2.46,3c-2.14,2.59-4.37,5.25-7.36,6.78"/><path class="cls-9" d="M523.73,306.06a19.58,19.58,0,0,1-5.71,6.81"/><path class="cls-9" d="M523.3,305.85a7.85,7.85,0,0,0-5.27-2.76"/><path class="cls-8" d="M589,223.71c.78,2.37,3.37,3.52,5.5,4.81,5.13,3.12,8.61,8.27,11.93,13.26,1.36,2.05,2.72,4.09,3.91,6.24a46,46,0,0,1,4.55,32.23"/><path class="cls-8" d="M589,223.59c-3.11,8.34-8.06,16.14-9.21,25a30.33,30.33,0,0,0,2.69,16.89,16.7,16.7,0,0,0,4.85,6.34,23.45,23.45,0,0,0,3.25,1.91,33.05,33.05,0,0,0,13.12,4.56l10.8,1.73"/><path class="cls-8" d="M589,223.71a76.3,76.3,0,0,0,.41,20.69,40.36,40.36,0,0,0,1.33,6.56,27.74,27.74,0,0,0,5,9.39c5.66,7,14.62,11.19,18.91,19.1"/><path class="cls-9" d="M603.93,268.32a8.46,8.46,0,0,0-3.21.06,33.61,33.61,0,0,0-11.21,3.93"/><path class="cls-9" d="M597.25,262.34c-2.62-1.55-5.83-1.65-8.87-1.44a13,13,0,0,0-6.77,1.9"/><path class="cls-9" d="M590.82,252.47a10.65,10.65,0,0,0-7.24-4.57,5,5,0,0,0-2.91.12"/><path class="cls-9" d="M603,236.66a15.42,15.42,0,0,0-9.39,7.93,29.75,29.75,0,0,0-2.08,6.76"/><path class="cls-9" d="M597.15,230.75A8.54,8.54,0,0,0,593.5,233a25.87,25.87,0,0,0-2.72,3.37,9,9,0,0,0-1.8,3.48"/><path class="cls-9" d="M584.41,234.72a7.33,7.33,0,0,1,3.65,4.28"/><path class="cls-8" d="M523.1,237.34c14,14.53,28,29.14,41,44.7a426.46,426.46,0,0,1,56.68,88.72C627,383.84,632.6,397.35,641,409.13c7.92,11.06,18.36,20.7,23.05,33.47"/><path class="cls-8" d="M562.8,243.76c-.47,8.78,2.54,17.34,3.57,26.07a18.76,18.76,0,0,1-.28,7.47,12,12,0,0,0-.51,1.91c-.19,1.52.51,3,.6,4.52"/><path class="cls-8" d="M559.63,298.64c1.57.54,3.17,1,4.78,1.46,3,.81,6.22,1.43,9.3.83a23.36,23.36,0,0,1,2.6-.5,3.33,3.33,0,0,1,2.49.71"/><path class="cls-8" d="M594.9,170.2a288,288,0,0,0,11.3,35.71c3.1,7.94,6.55,15.75,9.11,23.87,7.25,23,7.11,47.67,11.81,71.34,1.19,6,2.71,12,3.27,18.11a116.94,116.94,0,0,1-.17,17.95q-1.41,23.65-2.84,47.32"/><circle class="cls-6" cx="244.45" cy="680.94" r="6"/><path class="cls-6" d="M571.16,354.54a6,6,0,1,1-6-6A6,6,0,0,1,571.16,354.54Z"/><path class="cls-6" d="M563.14,44.1a6,6,0,1,1-6-6A6,6,0,0,1,563.14,44.1Z"/><path class="cls-6" d="M142.34,808.19a3,3,0,1,1-3-3A3,3,0,0,1,142.34,808.19Z"/><path class="cls-6" d="M104.29,643.55a3,3,0,1,1-3-3A3,3,0,0,1,104.29,643.55Z"/><path class="cls-6" d="M504.88,122.8a3,3,0,1,1-3-3A3,3,0,0,1,504.88,122.8Z"/><path class="cls-6" d="M483.23,264a3,3,0,1,1-3-3A3,3,0,0,1,483.23,264Z"/></g><text class="cls-12" transform="translate(143.17 301.37)">Mỹ Duyên</text><text class="cls-13" transform="translate(264.79 399.24)">&amp;</text><text class="cls-12" transform="translate(227.31 477.77)">Hoành Sơn</text><text class="cls-14" transform="translate(195.27 92.7)">S<tspan class="cls-15" x="15.86" y="0">A</tspan><tspan x="33.04" y="0">VE</tspan><tspan class="cls-16" x="66.04" y="0"> </tspan><tspan x="75.46" y="0">THE </tspan><tspan class="cls-17" x="136.52" y="0">D</tspan><tspan class="cls-18" x="155.56" y="0">A</tspan><tspan x="172.26" y="0">TE</tspan></text><path class="cls-19" d="M491.13,130.28c1.28-.21,2.09-1.44,2.93-2.43,2-2.39,5-3.76,7.82-5,1.16-.54,2.33-1.07,3.53-1.5a24,24,0,0,1,17,.31"/><path class="cls-19" d="M491.07,130.27c4,2.29,7.65,5.49,12.1,6.81a15.83,15.83,0,0,0,8.92,0,8.75,8.75,0,0,0,3.67-2A11.39,11.39,0,0,0,517,133.6a23.78,23.78,0,0,0,2.57-4,23.5,23.5,0,0,0,.86-2.35c.6-1.8,1.19-3.61,1.79-5.42"/><path class="cls-19" d="M491.13,130.28a39.71,39.71,0,0,0,10.69,1.5,21.37,21.37,0,0,0,3.49-.14,14.87,14.87,0,0,0,5.25-1.79c4.07-2.34,7-6.61,11.4-8.16"/><path class="cls-20" d="M512.37,120a9.33,9.33,0,0,1,1.5.79l4.68,2.91"/><path class="cls-20" d="M518.52,124c.35,1.86.74,3.7,1.17,5.54"/><path class="cls-20" d="M515.34,126.29a4.4,4.4,0,0,0-.24,1.66,17.37,17.37,0,0,0,1.11,6.09"/><path class="cls-20" d="M515.05,126.5a10,10,0,0,1-2.14-.88,20.71,20.71,0,0,1-3.24-1.85,7.18,7.18,0,0,1-2.42-2.8"/><path class="cls-20" d="M511.71,129.23a8,8,0,0,0-1.48,4.45,6.8,6.8,0,0,0,.42,3.64"/><path class="cls-20" d="M502.86,123.07a7.05,7.05,0,0,0,2.29,3.24,20.9,20.9,0,0,0,3.36,2.2,3.75,3.75,0,0,0,2.76.71"/><path class="cls-20" d="M506.09,131.73a5.55,5.55,0,0,0-2.95,3.35,2.55,2.55,0,0,0-.18,1.51"/><path class="cls-20" d="M499,124.16a8,8,0,0,0,3.31,5.49,15.66,15.66,0,0,0,3.31,1.63"/><path class="cls-20" d="M495.43,126.67a4.29,4.29,0,0,0,.85,2.07,12.59,12.59,0,0,0,1.5,1.68,4.77,4.77,0,0,0,1.65,1.21"/><path class="cls-20" d="M496.42,133.57a3.81,3.81,0,0,1,2.51-1.53"/><text class="cls-21" transform="translate(241.83 590.32)">15.07.23</text></g></svg>