<svg xmlns="http://www.w3.org/2000/svg" xmlns:xlink="http://www.w3.org/1999/xlink" viewBox="0 0 478.19 657.19"><defs><style>.cls-1,.cls-12,.cls-14,.cls-15,.cls-16,.cls-17,.cls-24,.cls-25{fill:none;}.cls-2{clip-path:url(#clip-path);}.cls-3{fill:#f6f6f6;}.cls-4,.cls-8{font-size:78.3px;}.cls-11,.cls-18,.cls-22,.cls-23,.cls-4,.cls-8{fill:#ad9139;}.cls-11,.cls-4,.cls-8{font-family:GreatVibes-Regular, GreatVibes Regular;}.cls-4{letter-spacing:0em;}.cls-5{letter-spacing:-0.01em;}.cls-6{letter-spacing:-0.01em;}.cls-7{letter-spacing:0em;}.cls-9{letter-spacing:0em;}.cls-10{letter-spacing:-0.01em;}.cls-11{font-size:31.89px;letter-spacing:0.2em;}.cls-12,.cls-14,.cls-15,.cls-16,.cls-17,.cls-24,.cls-25{stroke-linecap:round;stroke-linejoin:round;stroke-width:0.5px;}.cls-12{stroke:url(#Latón_apagado_2);}.cls-13{fill:url(#Degradado_sin_nombre_3);}.cls-14{stroke:url(#Latón_apagado_2-2);}.cls-15{stroke:url(#Latón_apagado_2-3);}.cls-16{stroke:url(#Latón_apagado_2-4);}.cls-17{stroke:url(#Latón_apagado_2-5);}.cls-18,.cls-22{font-size:17.63px;letter-spacing:0.2em;}.cls-18{font-family:Corbel;}.cls-19{letter-spacing:0.18em;}.cls-20{letter-spacing:0.2em;}.cls-21{font-size:12.23px;letter-spacing:0.2em;}.cls-22{font-family:Domine-Regular, Domine Regular;}.cls-24{stroke:url(#Latón_apagado_2-6);}.cls-25{stroke:url(#Latón_apagado_2-7);}</style><clipPath id="clip-path"><rect class="cls-1" x="15.75" y="15.44" width="448.99" height="623.62"/></clipPath><linearGradient id="Latón_apagado_2" x1="106.31" y1="244.21" x2="188.72" y2="244.21" gradientUnits="userSpaceOnUse"><stop offset="0.01" stop-color="#d8c383"/><stop offset="0.19" stop-color="#cfbb83"/><stop offset="0.6" stop-color="#a48032"/><stop offset="0.87" stop-color="#d7c188"/><stop offset="1" stop-color="#e7dfcb"/></linearGradient><linearGradient id="Degradado_sin_nombre_3" x1="139.59" y1="246.57" x2="154.18" y2="246.57" xlink:href="#Latón_apagado_2"/><linearGradient id="Latón_apagado_2-2" x1="69.71" y1="304.04" x2="132.23" y2="304.04" gradientTransform="translate(-76.1 54.65) rotate(-19.04)" xlink:href="#Latón_apagado_2"/><linearGradient id="Latón_apagado_2-3" x1="74.62" y1="293.78" x2="137.14" y2="293.78" gradientTransform="matrix(-0.12, 0.99, 0.99, 0.12, -76.46, 68.23)" xlink:href="#Latón_apagado_2"/><linearGradient id="Latón_apagado_2-4" x1="111.92" y1="341.04" x2="381.43" y2="341.04" xlink:href="#Latón_apagado_2"/><linearGradient id="Latón_apagado_2-5" x1="111.56" y1="339.5" x2="379.67" y2="339.5" xlink:href="#Latón_apagado_2"/><linearGradient id="Latón_apagado_2-6" x1="311.18" y1="538.97" x2="478.19" y2="538.97" xlink:href="#Latón_apagado_2"/><linearGradient id="Latón_apagado_2-7" x1="0" y1="104.37" x2="251.13" y2="104.37" xlink:href="#Latón_apagado_2"/></defs><title>card-1_1</title><g id="Layer_2" data-name="Layer 2"><g id="PRINT"><g class="cls-2"><rect class="cls-3" x="15.61" y="15.44" width="448.99" height="623.62"/><text class="cls-4" transform="translate(171.27 318.54)">S<tspan class="cls-5" x="38.83" y="0">a</tspan><tspan class="cls-6" x="75.95" y="0">v</tspan><tspan class="cls-7" x="112.83" y="0">e</tspan></text><text class="cls-8" transform="translate(187.14 402.77)">D<tspan class="cls-9" x="52.15" y="0">a</tspan><tspan class="cls-10" x="89.57" y="0">t</tspan><tspan class="cls-7" x="115.02" y="0">e</tspan></text><text class="cls-11" transform="translate(285.05 348)">the</text><path class="cls-12" d="M147.18,241.19a98.31,98.31,0,0,1,2.69-35.5m4.27,39.53a18,18,0,0,0,17.17-7.36c3.69-5.32,5-12.18,10.17-16-4.92,1.34-10.24,0-15.22,1.05A15.89,15.89,0,0,0,154.84,233m-.75,14.43c2.53,2,6.29,2.88,9.52,3a28.42,28.42,0,0,0,10.19-1.09,32.21,32.21,0,0,0,8.17-4.84l6.2-4.55m.05-.18c-2.58-.27-4.62-2.19-6.83-3.52-2.49-1.49-5.37-1.43-8.27-1.44m-9.58,33.37a12.09,12.09,0,0,0,4.46,2.23,14,14,0,0,0,5.15.19c1.37-.27,2.64-.91,4-1.2a9.38,9.38,0,0,1,4.28.11c-3.54-4.94-5.13-11.33-9.74-15.29-2.13-1.83-5.45-2.86-8.09-3.79m-18.84-9.55A24.53,24.53,0,0,0,138,222.54a13.52,13.52,0,0,0-3.73-2.77,35.38,35.38,0,0,0-7.41-2.21c-2.5-.62-5.21-1.26-7.06-3.06a27,27,0,0,1,2.78,5.79c.52,1.73.68,3.56,1.17,5.3a17.22,17.22,0,0,0,7.73,9.49m16.12,36.19c3.39,3.79,7.84,5.84,12.31,8.28a24.52,24.52,0,0,0,2.52,1.47c-.89-3.94,1.12-8,1.11-12a16.11,16.11,0,0,0-1.38-6.17,26,26,0,0,0-9.46-11m-11-9.91a33.19,33.19,0,0,0-19.18-9.34,14.77,14.77,0,0,0-6.65.35c-3.43,1.16-5.87,4.21-9.1,5.83a75.7,75.7,0,0,1,7.3,7.79c1.51,1.86,3,3.86,5.21,4.81a11.81,11.81,0,0,0,5.12.72,59.68,59.68,0,0,0,18.52-4.46m1.94,1.38a21.77,21.77,0,0,0-13,26.1c.72,2.57,1.91,5,2.59,7.58.42-2.21,2.18-4,4.09-5.16s4-2,5.91-3.3A15.76,15.76,0,0,0,151,259.64a26.48,26.48,0,0,0-2.52-7.8m-26,.28a18.74,18.74,0,0,0-6.67,7.61,37.83,37.83,0,0,1-1.68,3.52,9.26,9.26,0,0,1-4.52,3.74c3.65,1,7.17,2.31,10.94,2.51a18.6,18.6,0,0,0,10.76-3m18.3-24.18a43.49,43.49,0,0,1,3.13-5.43c2.37-3,3.24-6.87,4-10.6a15.26,15.26,0,0,0,.49-4.65c-.25-2.42-1.64-4.54-2.88-6.64a61.25,61.25,0,0,1-4.46-9.27c-1,2.9-4.13,4.34-6.39,6.38A17.81,17.81,0,0,0,138,222.54m43.23-.46c-11.75,4.62-20,15.38-31,21.56m16.51-1.36a54.65,54.65,0,0,1,11.25-1c3.54.19,7.23.1,10.43-1.43m-44.82,2.69c-3.57-7.74-8.42-15.1-15.26-20.2-1.48-1.1-3-2.09-4.45-3.3a25,25,0,0,1-4.11-4.65m-13.27,24.25c11.52-.39,22.49,6.16,34,5.52m-30.83,22.7a17,17,0,0,0,9.62-1.46c6.16-2.92,10-9.2,15.47-13.24a40.47,40.47,0,0,1,6.34-3.69m21.35,32.71c-.77-1.6-2.08-2.87-3-4.39-3.33-5.4-1.34-12.76-4.26-18.4a23.39,23.39,0,0,0-3.77-4.89q-2-2.19-4.06-4.39c-.08-.09-.2-.18-.31-.13a1.48,1.48,0,0,0,.72-.16c-1,5.19-4.64,9.38-7.39,13.89a42.68,42.68,0,0,0-6.16,19.87m47.09-13.18a36.48,36.48,0,0,1-9.88-6.73c-1.66-1.58-3.17-3.32-4.88-4.85-4-3.56-8.93-5.84-13.8-8.07m1.24-.12a54.42,54.42,0,0,1,8,2.34,27.6,27.6,0,0,1,13.39,11.64m-25.83-50.14c-.17,9.94-2.7,19.67-1.65,29.56a27.7,27.7,0,0,1,1.14-3.08c.6-1.35,1.3-2.65,1.89-4a29.37,29.37,0,0,0-.54-24.58m22.48,12.72-7.75,4.56a27.7,27.7,0,0,0-6.24,4.46c-.81.83-1.51,1.75-2.32,2.57s-1.66,1.47-2.45,2.24a13.71,13.71,0,0,0-3.56,6.56,33,33,0,0,0,7.64-1.76,32,32,0,0,0,6.59-4,37.35,37.35,0,0,0,6.13-5.22,38,38,0,0,0,4.09-6.07m-49.34-3.69c.75,3.36,3.86,5.55,6.55,7.69a55.88,55.88,0,0,1,7.44,7.15,29.23,29.23,0,0,0,5,4.66,25.09,25.09,0,0,0-3.63-10.88,36.54,36.54,0,0,0-3.74-4.93c-3-3.44-6.56-6.64-10.87-8.2m19.11-7.13c-3.14,5.31-3.75,12.52-2.46,18.54m-28,6.63a64.57,64.57,0,0,1,27.71,7.85,38.3,38.3,0,0,0-30.72-9.27m4.51,11a21.75,21.75,0,0,0,16.43,1.95,42.94,42.94,0,0,0,6.16-2.45c1.53-.71,3-1.08,4.58-1.78a60.19,60.19,0,0,1-21.62-.23c-2.87-.56-5.82-1.39-8-3.34m18.52,10c-4.14,2.94-9.15,5.91-13,9.17-1.86,1.56-3.76,3.24-4.66,5.49m3.73,1.8a46.27,46.27,0,0,0,12.93-4.13m-6-.28a40.83,40.83,0,0,0,10.87-8m1.05,20.35a33.28,33.28,0,0,0,9.66-26.19,42.11,42.11,0,0,0-13,18.88,8.25,8.25,0,0,0-.49,5m17.14-12.63a30.13,30.13,0,0,0,6,16M160.6,274c0-5.6-.53-11.57-4-16-2.1-2.7-5.28-4.88-5.89-8.24m6.85,6.24c3.34,1.81,5.35,6.6,8.51,8.71a17.38,17.38,0,0,0,6.44,2.18m-17.93-20.63a16.91,16.91,0,0,0,14.38,1c1.72-.69,3.32-1.66,5-2.44a24.74,24.74,0,0,1,4.36-1.52m2.75-5c-3.38-1.44-7.86-.41-11.11,1.3"/><path class="cls-13" d="M144.77,240.9a16.44,16.44,0,0,1-2.36,1,7.76,7.76,0,0,0-1.53.25c-1,.41-1.24,1.62-1.29,2.67a2.38,2.38,0,0,0,.44,1.76,2.48,2.48,0,0,0,1.35.59c1.46.32,3.17.87,3.58,2.31.19.66.07,1.47.57,1.95s1.57.25,2.41.24c1.39,0,2.77,1,4.09.54a2.72,2.72,0,0,0,1.6-1.63,7.9,7.9,0,0,0,.46-2.31c.15-1.41.23-3-.75-4.05s-2.68-1.06-3.79-2a6.78,6.78,0,0,0-1-.9c-.56-.31-1.2-.11-1.77-.23C146,241,145.62,240.6,144.77,240.9Z"/><path class="cls-14" d="M111,324.12c.38-4.78.94-9.55,1.77-14.28,2.61-15,8-29.9,17.77-41.64m-4.78,33.49a16.25,16.25,0,0,0-9.18-7.06,20.38,20.38,0,0,0,1.57,8.92c1.89,4.06,5.57,6.93,9.12,9.63C127.92,309.1,127.82,305.23,125.73,301.69Zm-9.18-7.06c4.5,5.59,6.54,12.68,10.69,18.55m-10.51-14.34a21.84,21.84,0,0,1,.74-2.86,3,3,0,0,1,2.37.06m-2.55,5.31a11.12,11.12,0,0,1,1-4.36,3.93,3.93,0,0,1,2.25.08,11.19,11.19,0,0,1,2.08.88m-4.52,5.68a24.2,24.2,0,0,1,.8-5.72,15.76,15.76,0,0,1,5.52,1.9m-5,6a15,15,0,0,1,.41-6.22,40.36,40.36,0,0,1,6.15,2.55m-5.55,5c0-1-.11-1.93-.07-2.89a14,14,0,0,1,.41-2.8,2.62,2.62,0,0,1,1,.21,19.47,19.47,0,0,1,5.08,2.37m-4.85,4.8a17.28,17.28,0,0,1-.1-5.42,20.5,20.5,0,0,1,5.26,1.87m-4,4.64c-.07-1.4-.1-2.8-.11-4.19a12,12,0,0,1,4.59,1.91m-3.06,3.42c-.09-.94-.17-1.88-.23-2.82a7.62,7.62,0,0,1,3.4,1.13m-30.93-13c4.39.76,9,1.51,13.26.13a20.19,20.19,0,0,0,7.6-4.92,16.26,16.26,0,0,0-11.42-1.92C102.16,290.5,99.26,293.06,96.74,296.33Zm0,0c7.12-.95,13.7-4.27,20.86-4.79m-3.27-1.45a2.94,2.94,0,0,1,1.65,1.7,21.38,21.38,0,0,1-1.58,2.49M111,289.35a10.92,10.92,0,0,1,2.06.93,3.81,3.81,0,0,1,1.59,1.59,10.89,10.89,0,0,1-2.51,3.7m-3.72-6.28a15.88,15.88,0,0,1,5.14,2.76,23.8,23.8,0,0,1-3.64,4.47m-4.28-6.78a42.57,42.57,0,0,1,6.06,2.77,15.1,15.1,0,0,1-4.29,4.54m-3.7-6.63a19.47,19.47,0,0,1,5.19,2.11,2.63,2.63,0,0,1,.8.56,13.93,13.93,0,0,1-1.78,2.2,27.82,27.82,0,0,1-2.16,1.91M102.61,291a20.75,20.75,0,0,1,4.94,2.58,17,17,0,0,1-4,3.62m-2.93-4.92a12.31,12.31,0,0,1,4.53,2.07c-1,.95-2.09,1.87-3.15,2.77m-2.72-3.74a7.66,7.66,0,0,1,3.13,1.73q-1.09.89-2.22,1.74m25.26,22.7c-2.88-4.9-7.34-7.91-12.67-9.75a27.88,27.88,0,0,0,2.16,12.31c2.61,5.62,7.69,9.57,12.59,13.3C128.43,329.83,128.3,324.48,125.41,319.59Zm-12.67-9.75c6.2,7.73,9,17.52,14.75,25.61M113,315.66a31.36,31.36,0,0,1,1-4,4.07,4.07,0,0,1,3.28.08m-3.52,7.33a15.27,15.27,0,0,1,1.39-6,5.46,5.46,0,0,1,3.1.11,15.86,15.86,0,0,1,2.88,1.22m-6.24,7.84a33.06,33.06,0,0,1,1.1-7.89,21.76,21.76,0,0,1,7.62,2.61m-6.9,8.31a20.77,20.77,0,0,1,.56-8.6,57.94,57.94,0,0,1,8.5,3.53m-7.67,6.88c-.07-1.32-.15-2.65-.09-4a19.43,19.43,0,0,1,.56-3.87,3.51,3.51,0,0,1,1.31.29,26.87,26.87,0,0,1,7,3.27m-6.68,6.63a23.52,23.52,0,0,1-.14-7.49,28.47,28.47,0,0,1,7.26,2.59m-5.58,6.4c-.09-1.93-.15-3.86-.16-5.79a16.89,16.89,0,0,1,6.34,2.64m-4.22,4.72c-.13-1.29-.23-2.59-.32-3.88a10.56,10.56,0,0,1,4.69,1.55M87.32,313.77c6.15-.13,12.59-.33,18-3.33a27.76,27.76,0,0,0,9-8.68c-5.4-1.65-10.77-1.84-16,.41S89.87,308.67,87.32,313.77Zm0,0c9.39-3.17,17.44-9.42,27-12m-4.82-1.09a4.05,4.05,0,0,1,2.69,1.86,31.76,31.76,0,0,1-1.5,3.79m-5.86-5.79a15.63,15.63,0,0,1,3,.71,5.45,5.45,0,0,1,2.58,1.74,15.18,15.18,0,0,1-2.43,5.68m-6.7-7.52a21.79,21.79,0,0,1,7.69,2.37,33.15,33.15,0,0,1-3.75,7m-7.6-8.06a57.59,57.59,0,0,1,9,2.16,20.64,20.64,0,0,1-4.61,7.27m-6.77-8a26.47,26.47,0,0,1,7.59,1.48,3.63,3.63,0,0,1,1.24.54,20.43,20.43,0,0,1-1.83,3.46c-.74,1.1-1.58,2.13-2.43,3.16m-5.94-7.51a28.84,28.84,0,0,1,7.39,2.19,23.57,23.57,0,0,1-4.52,6m-5.27-5.89a16.86,16.86,0,0,1,6.67,1.61q-1.71,2.32-3.53,4.58m-4.67-4.34a10.46,10.46,0,0,1,4.7,1.51c-.83,1-1.68,2-2.55,2.95m24.51,39.51c1.26-6,2.51-12.34.8-18.29A27.8,27.8,0,0,0,111,324.12c-2.83,4.89-4.22,10.08-3.19,15.67S112.21,349.51,116.6,353.14Zm0,0c-1-9.86-5.26-19.11-5.63-29m-2.15,4.46a4.06,4.06,0,0,1,2.42-2.21,32.25,32.25,0,0,1,3.36,2.31m-7,4.41a16.13,16.13,0,0,1,1.37-2.8,5.45,5.45,0,0,1,2.27-2.12,15.26,15.26,0,0,1,5,3.64m-8.84,4.84a21.78,21.78,0,0,1,4-7,32.73,32.73,0,0,1,6,5.24m-9.56,5.58a57.1,57.1,0,0,1,4.11-8.23,20.8,20.8,0,0,1,6,6.13m-9.31,4.8a26.79,26.79,0,0,1,3.15-7.07,3.74,3.74,0,0,1,.81-1.08,20.52,20.52,0,0,1,3,2.56,37.41,37.41,0,0,1,2.54,3.08m-8.65,4.1a28.83,28.83,0,0,1,3.79-6.71,23.9,23.9,0,0,1,4.81,5.75m-6.93,3.81a16.9,16.9,0,0,1,3.07-6.14c1.25,1.46,2.48,3,3.67,4.47m-5.28,3.58a10.57,10.57,0,0,1,2.52-4.25c.79,1,1.56,2.08,2.31,3.15m4.16-66.56a85.49,85.49,0,0,0-29.95,6.56m4-14.83c3.09,1,6.31,2,8.61,4.3a14.66,14.66,0,0,1,3.28,5.7,11.82,11.82,0,0,1-8-2.54C97.33,279.19,96.31,276.57,95.76,273.63Zm0,0c4.29,3,7.44,7.29,11.89,10m-2.59-.15a2.17,2.17,0,0,0,1.63-.55,16.69,16.69,0,0,0-.2-2.13m-3.81,2.07a8.16,8.16,0,0,0,1.64.08,2.8,2.8,0,0,0,1.55-.5,8,8,0,0,0-.39-3.22M101,282.05a11.62,11.62,0,0,0,4.24-.08,17.83,17.83,0,0,0-.87-4.1m-5,3a29.81,29.81,0,0,0,4.83.21,10.93,10.93,0,0,0-1.27-4.34m-4.58,3.05a14.43,14.43,0,0,0,4,.36,2,2,0,0,0,.7-.1,10.56,10.56,0,0,0-.42-2c-.21-.67-.49-1.31-.76-1.95M97.8,279a15.26,15.26,0,0,0,4,0,12.47,12.47,0,0,0-1.41-3.68m-3.52,2.2a8.77,8.77,0,0,0,3.6.17c-.35-.95-.72-1.9-1.11-2.83m-3,1.51a5.71,5.71,0,0,0,2.6-.07c-.27-.63-.56-1.25-.86-1.87m-7.44,21.15a28.21,28.21,0,0,1,9.79-10.16m-9.33,4.26a.76.76,0,0,1-1-.47.77.77,0,1,1,1,.47ZM91,296a.76.76,0,0,0-1-.47.77.77,0,0,0-.48,1,.76.76,0,0,0,1,.47A.77.77,0,0,0,91,296Zm31.59-16.41a49.47,49.47,0,0,0,17,27.23m13.35,6.93c-3.22-.26-6.59-.57-9.34-2.31a14.65,14.65,0,0,1-4.45-4.84,11.8,11.8,0,0,1,8.37.72C150.18,308.69,151.75,311,152.93,313.78Zm0,0c-4.83-2-8.85-5.49-13.79-7.15m2.56-.42a2.09,2.09,0,0,0-1.47.89,16.77,16.77,0,0,0,.67,2m3.25-2.86a8.75,8.75,0,0,0-1.61.28,2.77,2.77,0,0,0-1.41.83,8.14,8.14,0,0,0,1.09,3.06m3.76-3.74a11.44,11.44,0,0,0-4.11,1,17,17,0,0,0,1.75,3.8m4.23-4a29.8,29.8,0,0,0-4.76.85,11,11,0,0,0,2.19,4m3.81-4a14.25,14.25,0,0,0-4,.54,2,2,0,0,0-.66.25,10.75,10.75,0,0,0,.85,1.86,18.88,18.88,0,0,0,1.17,1.74m3.36-3.75a15.23,15.23,0,0,0-4,.91,12.46,12.46,0,0,0,2.19,3.28m3-2.93a8.93,8.93,0,0,0-3.56.64c.56.85,1.13,1.69,1.72,2.51m2.58-2.13a5.5,5.5,0,0,0-2.51.64c.4.55.82,1.1,1.24,1.63m-2.28-12.63c-3.05,1.09-6.25,2.2-9.47,1.74a14.67,14.67,0,0,1-6-2.58,11.84,11.84,0,0,1,7.92-2.79C143.55,297.42,145.94,298.89,148.15,300.92Zm0,0c-5.21.2-10.33-1.36-15.51-.84m2.16-1.44a2.07,2.07,0,0,0-1,1.42,14.35,14.35,0,0,0,1.44,1.58m1.79-3.94a8.33,8.33,0,0,0-1.36.92,2.75,2.75,0,0,0-.93,1.33,7.85,7.85,0,0,0,2.25,2.34m1.88-5a11.57,11.57,0,0,0-3.33,2.61,17.58,17.58,0,0,0,3.16,2.75m2.22-5.38a30.27,30.27,0,0,0-4,2.73,10.91,10.91,0,0,0,3.63,2.71m1.82-5.2a14.55,14.55,0,0,0-3.45,2.15,2,2,0,0,0-.5.5,11,11,0,0,0,1.54,1.36c.57.4,1.18.75,1.79,1.1m1.51-4.8a15.06,15.06,0,0,0-3.22,2.45,12.34,12.34,0,0,0,3.34,2.09m1.49-3.88a8.74,8.74,0,0,0-3,2c.85.55,1.72,1.08,2.59,1.59m1.48-3a5.61,5.61,0,0,0-2,1.62c.6.34,1.2.66,1.81,1M134,314.13c-2.41-3.19-3.63-7.11-4.48-11s-1.39-7.89-2.64-11.69m-2.1-4.2c2.46-.2,4.69,1.3,6.86,2.49a29.86,29.86,0,0,0,7.81,3m-4.81,22.78a.78.78,0,0,1-1-.48.77.77,0,1,1,1,.48Zm5.78-22a.77.77,0,0,1-1-.47.76.76,0,1,1,1,.47Z"/><path class="cls-15" d="M171.92,221.66c8.51-7.88,18.89-13.79,29.71-18.13,4.46-1.79,9-3.33,13.61-4.7M207.91,217c-3.38-2.91-6.95-5.92-11.32-6.92a20.23,20.23,0,0,0-9.05.33,16.31,16.31,0,0,0,8.82,7.51C200.26,219.25,204.06,218.53,207.91,217Zm0,0c-6.6-2.84-14-3.36-20.37-6.59m2.07,2.92a3,3,0,0,1-.55-2.31,21.67,21.67,0,0,1,2.64-1.32m.36,6a11.85,11.85,0,0,1-1.3-1.85,4,4,0,0,1-.54-2.18,11.08,11.08,0,0,1,4.05-1.9m0,7.3a15.76,15.76,0,0,1-3-5,24.12,24.12,0,0,1,5.42-2m.2,8a41.59,41.59,0,0,1-3.78-5.49,14.9,14.9,0,0,1,6-1.69m-.22,7.58A19.51,19.51,0,0,1,195.5,214a2.87,2.87,0,0,1-.41-.89,14.89,14.89,0,0,1,2.66-1,27.3,27.3,0,0,1,2.84-.53m-.43,6.92a20.44,20.44,0,0,1-2.92-4.76,17.26,17.26,0,0,1,5.32-1m0,5.73a12.32,12.32,0,0,1-2.83-4.1c1.37-.28,2.75-.53,4.13-.76m.41,4.6a7.73,7.73,0,0,1-1.81-3.09c.94-.13,1.87-.25,2.8-.35m-24.77-13.47a16.26,16.26,0,0,0,4.25,10.77,20,20,0,0,0,3.23-8.46c.47-4.45-1.22-8.8-2.88-12.94C182.42,193.84,180.51,197.21,180.49,201.32Zm4.25,10.77c-1-7.11.9-14.24.35-21.4m1.66,17.7a22.81,22.81,0,0,1-2.1,2.07,2.92,2.92,0,0,1-2-1.27m4.91-3.25a11.13,11.13,0,0,1-3.11,3.23,3.89,3.89,0,0,1-1.88-1.23,11.54,11.54,0,0,1-1.34-1.82m6.8-2.55a24.74,24.74,0,0,1-3.62,4.49,15.81,15.81,0,0,1-3.77-4.45M188,201a14.91,14.91,0,0,1-3.55,5.13,42.85,42.85,0,0,1-4-5.35m7.33-1.43c-.45.85-.9,1.71-1.43,2.51a14.52,14.52,0,0,1-1.78,2.2,2.51,2.51,0,0,1-.71-.67,19.07,19.07,0,0,1-3.14-4.64m6.62-1.64a17.11,17.11,0,0,1-2.7,4.71,20.64,20.64,0,0,1-3.55-4.3m5.85-1.91c-.66,1.23-1.35,2.45-2.06,3.66a12.17,12.17,0,0,1-3-4m4.38-1.37c-.4.86-.82,1.7-1.25,2.54a7.71,7.71,0,0,1-2.33-2.71m47,18.9c-4.67-4-9.59-8.17-15.62-9.55a28,28,0,0,0-12.5.44c2.91,4.84,6.78,8.57,12.17,10.37S224.44,214.72,229.75,212.64Zm0,0c-9.11-3.92-19.27-4.65-28.12-9.11m2.85,4a4.06,4.06,0,0,1-.75-3.19,30.9,30.9,0,0,1,3.64-1.82m.5,8.23a15.92,15.92,0,0,1-1.79-2.56,5.42,5.42,0,0,1-.76-3,15.29,15.29,0,0,1,5.6-2.61m0,10.08a21.9,21.9,0,0,1-4.13-6.91,33.21,33.21,0,0,1,7.48-2.72m.27,11.07a57.7,57.7,0,0,1-5.21-7.58,20.7,20.7,0,0,1,8.29-2.33m-.31,10.47a27,27,0,0,1-4.66-6.18,3.5,3.5,0,0,1-.55-1.23,19.8,19.8,0,0,1,3.66-1.34,37.57,37.57,0,0,1,3.92-.74m-.59,9.56a29,29,0,0,1-4-6.57,23.73,23.73,0,0,1,7.36-1.42m0,7.9a16.76,16.76,0,0,1-3.9-5.65q2.83-.58,5.69-1m.58,6.35a10.52,10.52,0,0,1-2.5-4.26c1.29-.19,2.58-.36,3.87-.5m-35-18.51c-1.12,5.58.18,10.79,2.92,15.73a28,28,0,0,0,6.62-10.62c1.81-5.91.66-12.25-.49-18.3C195.73,181.41,192.26,185.47,191.14,191Zm2.92,15.73c.55-9.9,5-19.07,6.13-28.92m-2.42,24.42a29.41,29.41,0,0,1-3.4,2.25,4,4,0,0,1-2.38-2.24m7.51-3.11a15.06,15.06,0,0,1-5.06,3.55,5.37,5.37,0,0,1-2.23-2.15,16.24,16.24,0,0,1-1.33-2.83m9.88-1.66a32.61,32.61,0,0,1-6.09,5.13,21.92,21.92,0,0,1-3.93-7m10.69-1.58a20.82,20.82,0,0,1-6.16,6,58.47,58.47,0,0,1-4-8.3m10.31,0a39.53,39.53,0,0,1-2.6,3,19.89,19.89,0,0,1-3,2.51,3.54,3.54,0,0,1-.79-1.09,27,27,0,0,1-3-7.12m9.4-.47a23.46,23.46,0,0,1-4.9,5.66,28.44,28.44,0,0,1-3.67-6.77m8.43-1q-1.83,2.25-3.75,4.41a16.74,16.74,0,0,1-3-6.19m6.29-.7c-.76,1-1.55,2.09-2.35,3.11a10.59,10.59,0,0,1-2.45-4.29m33.66,11.08c-5.68.16-10.47,2.6-14.66,6.38a28,28,0,0,0,11.82,4.07c6.18.43,12.1-2.11,17.73-4.59C240.32,194.77,235.58,192.3,229.9,192.45Zm-14.66,6.38c9.76-1.69,19.7.58,29.55-.52m-24.34,3.13a30.25,30.25,0,0,1-3-2.81,4,4,0,0,1,1.65-2.82m4.72,6.62a15.28,15.28,0,0,1-4.6-4.13,5.36,5.36,0,0,1,1.6-2.66,15.85,15.85,0,0,1,2.46-1.93m3.84,9.25a32.85,32.85,0,0,1-6.37-4.78,21.88,21.88,0,0,1,6-5.41m3.93,10.06a20.68,20.68,0,0,1-7.25-4.65,57.64,57.64,0,0,1,7.2-5.73m2.31,10a39.4,39.4,0,0,1-3.53-1.84,20.45,20.45,0,0,1-3.12-2.36,3.94,3.94,0,0,1,.89-1,27.32,27.32,0,0,1,6.26-4.55m2.57,9.06a23.36,23.36,0,0,1-6.62-3.5,28.34,28.34,0,0,1,5.77-5.1m2.91,8c-1.74-.85-3.45-1.74-5.15-2.66a16.83,16.83,0,0,1,5.38-4.28m2.09,6c-1.19-.51-2.38-1-3.55-1.6a10.56,10.56,0,0,1,3.62-3.35m-64.12-7.81a85.84,85.84,0,0,0-.19,30.66m-5.37-21.41a11.82,11.82,0,0,1,4.14,7.31,14.58,14.58,0,0,1-6.25-2c-2.73-1.77-4.42-4.7-6-7.53C165.68,194.37,168.45,194.83,170.79,196.69Zm4.14,7.31c-3.57-3.79-8.46-6-12.25-9.55m9.24,9a16.72,16.72,0,0,0,2.13-.24,2.13,2.13,0,0,0,.2-1.71m-4.07,1.29a8,8,0,0,0,3.23-.28,2.82,2.82,0,0,0,.17-1.63,8.77,8.77,0,0,0-.42-1.58M168.62,202a17.8,17.8,0,0,0,4.19,0,11.61,11.61,0,0,0-.8-4.16m-4.83,3a10.93,10.93,0,0,0,4.51.34,29.68,29.68,0,0,0-1.21-4.68M166.33,200c.69.13,1.38.27,2.07.34a10.8,10.8,0,0,0,2,0,1.9,1.9,0,0,0,0-.71,14.08,14.08,0,0,0-1.19-3.88m-3.94,3a12.51,12.51,0,0,0,3.89.62,15,15,0,0,0-.82-4m-3.74,2.44c1,.19,2,.36,3,.5a8.65,8.65,0,0,0-.91-3.49m-2.76,1.85c.66.16,1.33.31,2,.45a5.6,5.6,0,0,0-.47-2.55m9.7,2.11a28.26,28.26,0,0,1,7.9-11.68m-6.52,2.34a.77.77,0,0,1,.19-1.52.77.77,0,0,1-.19,1.52Zm7.92-2.81a.76.76,0,1,0-.85.66A.76.76,0,0,0,184.46,184.49Zm19.83,45.92a49.44,49.44,0,0,0-30.17-10.94m32.3,18.59a11.8,11.8,0,0,1-2.44-8,14.6,14.6,0,0,1,5.65,3.35c2.28,2.32,3.28,5.56,4.2,8.66C210.89,241.45,208.29,240.39,206.42,238.06ZM204,230c2.65,4.49,6.94,7.69,9.85,12m-7-10.81a17.11,17.11,0,0,0-2.13-.23,2.11,2.11,0,0,0-.57,1.62m4.25-.36a8,8,0,0,0-3.22-.44,3,3,0,0,0-.52,1.55,8.19,8.19,0,0,0,.07,1.64m5-1.61a17.26,17.26,0,0,0-4.08-.93,11.41,11.41,0,0,0-.13,4.24m5.36-1.85a10.8,10.8,0,0,0-4.33-1.32,29.75,29.75,0,0,0,.16,4.83m4.81-2.49a19.39,19.39,0,0,0-1.95-.79,10.5,10.5,0,0,0-2-.44,1.83,1.83,0,0,0-.1.7,13.73,13.73,0,0,0,.31,4m4.5-2a12.09,12.09,0,0,0-3.66-1.46,15.25,15.25,0,0,0-.08,4.05m4.19-1.56c-.93-.4-1.87-.79-2.82-1.15a8.81,8.81,0,0,0,.12,3.61m3.11-1.2c-.62-.3-1.23-.6-1.86-.88a5.57,5.57,0,0,0-.1,2.6m-16-8a11.82,11.82,0,0,1,1.08-8.34A14.63,14.63,0,0,1,200,230.4c1.12,3.06.7,6.42.26,9.62C197.82,238.28,195.89,236.25,195.14,233.36Zm1.08-8.34c.57,5.18,3.16,9.87,4,15m-2-12.75a17.15,17.15,0,0,0-1.85-1.08,2.13,2.13,0,0,0-1.19,1.25m4,1.41a8,8,0,0,0-2.75-1.72,2.86,2.86,0,0,0-1.11,1.2,8.08,8.08,0,0,0-.62,1.52m5.23.59a17.22,17.22,0,0,0-3.34-2.52,11.41,11.41,0,0,0-1.86,3.8m5.65.52a11,11,0,0,0-3.4-3,30.65,30.65,0,0,0-1.85,4.47m5.41-.29a18.89,18.89,0,0,0-1.45-1.52,9.89,9.89,0,0,0-1.64-1.23,1.71,1.71,0,0,0-.38.6,14,14,0,0,0-1.39,3.82m5,0a12.68,12.68,0,0,0-2.73-2.84,15.17,15.17,0,0,0-1.74,3.66m4.45.31c-.68-.75-1.38-1.49-2.09-2.21a8.9,8.9,0,0,0-1.38,3.34m3.33.18c-.43-.53-.88-1.05-1.33-1.56a5.65,5.65,0,0,0-1.16,2.32m-11.53-17.06c4,.43,8,.13,12,.15s8.08.41,11.71,2.1m-19.87,9.79a30.19,30.19,0,0,0-4.51-7c-1.61-1.87-3.55-3.74-3.86-6.19m28.79,4.44a.76.76,0,1,1,.85-.66A.76.76,0,0,1,210.81,224.49Zm-20.29,10.23a.77.77,0,0,1,.18-1.52.77.77,0,0,1-.18,1.52Z"/><path class="cls-16" d="M240.43,205.53c1.7-.06,3.42-.09,5.14-.09a135.61,135.61,0,1,1-133.4,160.1"/><path class="cls-17" d="M111.81,362.11c14.73,79.63,107.3,132.36,181.94,106.2A129.67,129.67,0,0,0,336.88,443c63.48-56.38,53.08-158.55-12.33-208.4a156.32,156.32,0,0,0-51.39-25.87A119.34,119.34,0,0,0,234.94,204"/><text class="cls-18" transform="translate(120.29 141.12)">Hoành<tspan class="cls-19" x="66.11" y="0"> </tspan><tspan class="cls-20" x="72.74" y="0">Sơn </tspan><tspan class="cls-21" x="119.79" y="0">&amp;</tspan><tspan x="130.42" y="0" xml:space="preserve"> Mỹ Duyên</tspan></text><text class="cls-22" transform="translate(188.08 524.31)"><tspan xml:space="preserve">15  07  23</tspan></text><path class="cls-23" d="M220.51,518.13a2.17,2.17,0,1,1-2.17-2.17A2.17,2.17,0,0,1,220.51,518.13Z"/><path class="cls-23" d="M261,518.13a2.18,2.18,0,1,1-2.18-2.17A2.18,2.18,0,0,1,261,518.13Z"/><path class="cls-24" d="M311.48,656.94c-1.1-23.66,14.86-44.94,33.4-59.7s40.24-25.28,58-40.94a130.27,130.27,0,0,0,33.28-45.76c13.28-30.62,16.05-68.25,41.77-89.53"/><path class="cls-25" d="M.25,208.5c20.8-8.65,34-29.52,41.72-50.69s11.37-43.74,20.32-64.42S87.24,53.2,109.24,48.33c9.85-2.18,20.08-1.26,30.14-2,40.38-2.92,73.77-31.42,111.5-46.09"/></g></g></g></svg>