<svg xmlns="http://www.w3.org/2000/svg" xmlns:xlink="http://www.w3.org/1999/xlink" viewBox="0 0 744.1 996.67"><defs><style>.cls-1,.cls-10,.cls-11,.cls-12,.cls-13,.cls-14,.cls-5,.cls-6,.cls-7,.cls-9{fill:none;}.cls-2{clip-path:url(#clip-path);}.cls-3{fill:#e9dad3;}.cls-4{fill:#f2eceb;}.cls-10,.cls-11,.cls-12,.cls-13,.cls-14,.cls-5,.cls-6,.cls-7,.cls-9{stroke:#ceb3aa;stroke-linecap:round;stroke-linejoin:round;}.cls-5{stroke-width:2.13px;}.cls-6{stroke-width:2.38px;}.cls-7{stroke-width:1.19px;}.cls-8{font-size:22px;font-family:Montserrat-SemiBold, Montserrat SemiBold;font-weight:600;letter-spacing:0.3em;}.cls-15,.cls-16,.cls-18,.cls-20,.cls-21,.cls-24,.cls-8{fill:#8e776e;}.cls-9{stroke-width:1.18px;}.cls-10{stroke-width:0.59px;}.cls-11{stroke-width:0.61px;}.cls-12{stroke-width:0.3px;}.cls-13{stroke-width:1.43px;}.cls-14{stroke-width:0.71px;}.cls-15{font-size:30px;}.cls-15,.cls-16,.cls-18,.cls-21,.cls-24{font-family:Domine-Regular, Domine Regular;}.cls-15,.cls-16,.cls-19{letter-spacing:0.2em;}.cls-16,.cls-18{font-size:20px;}.cls-17{letter-spacing:0.12em;}.cls-21,.cls-24{font-size:16px;}.cls-21,.cls-25{letter-spacing:0.2em;}.cls-22{letter-spacing:0.21em;}.cls-23{letter-spacing:0.19em;}.cls-24{letter-spacing:0.21em;}.cls-26{letter-spacing:0.19em;}.cls-27{letter-spacing:0.2em;}.cls-28{letter-spacing:0.2em;}.cls-29{letter-spacing:0.06em;}.cls-30{letter-spacing:0.2em;}.cls-31{letter-spacing:0.19em;}.cls-32{letter-spacing:0.2em;}.cls-33{letter-spacing:0.16em;}</style><clipPath id="clip-path"><rect class="cls-1" x="55.97" y="57.91" width="623.62" height="870.24"/></clipPath></defs><title>card-back</title><g id="Layer_2" data-name="Layer 2"><g id="PRINT_2" data-name="PRINT 2"><g class="cls-2"><rect class="cls-3" x="55.97" y="57.91" width="623.62" height="870.24"/><path class="cls-4" d="M147,858.48c6.84-7.59,14.27-15,23.59-19.19,7.23-3.25,15.26-4.36,23.19-4.43a92.71,92.71,0,0,1,33.12,5.87c16.48,6.17,31.19,17,48.36,20.88,25.32,5.66,51.06-4.75,75.83-12.47S405,836.91,426,852.2c12.95,9.46,20.1,24.67,29.56,37.62,21.79,29.81,58.26,48.32,95.18,48.33C493,954.34,432.08,954.5,372.11,953.87c-55.3-.59-110.63-1.75-165.9.23-17.05.61-34.28,1.5-51.08-1.5C137.46,949.44,110,941,113.74,919.45,117.82,895.83,131.18,876,147,858.48Z"/><path class="cls-5" d="M49.2,820.38c3.39-11,28.3-25,38.93-29.4,15.36-6.32,33.24-8.48,48.5-.71,17.66,9,23.07,26.78,30.94,43.54C173,845.42,181.33,857.3,193.83,862c11.81,4.39,24.27,1.43,36.3,4.28,20.11,4.77,32.45,19.61,43.63,35.9A817.85,817.85,0,0,1,317,972.47"/><path class="cls-4" d="M442.23,55c-3.27,23.84,5,45.31,24.6,59.51,19.29,14,46,12.89,64,26.83,14.12,10.9,20.32,31.93,24.87,48.36,9.49,34.29,34,76.83,66.88,93.7,47.61,24.41,80-35.39,96.91-70.58a250.44,250.44,0,0,0,24.6-110.38A234.79,234.79,0,0,0,730.2,24.28c-1.44-4-3.1-8-6.28-10.8-3-2.58-6.89-3.7-10.69-4.67C668.86-2.41,622.36-2.07,577,5.11q-8.5,1.35-17,3C523.77,22.73,466.31,1.45,445.2,43.16A53.26,53.26,0,0,0,442.23,55Z"/><path class="cls-5" d="M368.14,40.36c-11.4,23.71-12.79,53.27,1,75.66s44.46,34.47,68.25,23.24c12.08-5.7,21.25-16.31,33.18-22.3,19.51-9.78,42.85-5.75,64.1-.78s43.82,10.6,64.47,3.52C615.68,114,628.55,100.88,639,86.89s19.28-29.3,31.21-42.06"/><path class="cls-6" d="M479.79,848.29a5.16,5.16,0,0,1-3.56,2.85,15.16,15.16,0,0,1-4.71.23,14.64,14.64,0,0,1-2.19-.22,16.1,16.1,0,0,1-4.86-2.14,1.22,1.22,0,0,1-.48-.42,1.24,1.24,0,0,1,0-.69l.78-5.55a20.53,20.53,0,0,1,.69-3.49,10.73,10.73,0,0,1,1.79-3.35,1.87,1.87,0,0,1,1-.75,2,2,0,0,1,1.55.75c1.67,1.61,3.17,3.38,4.67,5.14l2.35,2.75c1.22,1.44,2.5,3,2.75,4.87"/><path class="cls-6" d="M515.81,827.59C511.47,830.73,507,834,504,838.35c-1.66,2.39-3,5.15-5.28,6.89s-5.12,2.17-7.91,2.35-5.61.12-8.3.86c-.82.23-1.77.5-2.44,0"/><path class="cls-6" d="M516.12,827.37c-2.38.7-4.9-.18-7.37-.44-6.08-.64-11.85,2.59-16.92,6s-10.2,7.27-16.25,8.14"/><path class="cls-6" d="M531.23,794.17c-1.17,5.09-4.05,9.63-7.4,13.63s-7.19,7.55-10.7,11.41a20.59,20.59,0,0,0-4.67,7"/><path class="cls-6" d="M531.3,793.94c-5.09,5.29-12.47,7.49-19.21,10.41-2.42,1-4.8,2.21-7.17,3.38l-10.47,5.13a63.8,63.8,0,0,0-8.53,4.72c-6.39,4.42-11,10.95-15.39,17.34"/><path class="cls-6" d="M510.69,805.47a81.89,81.89,0,0,1-16.49-.29,16.29,16.29,0,0,0-6.3,0,12.66,12.66,0,0,0-3.58,1.84,51.12,51.12,0,0,0-15.47,16.39,10.45,10.45,0,0,0-1.38,3.18,12.05,12.05,0,0,0,0,3.79c.16,1.3.31,2.6.47,3.9"/><path class="cls-7" d="M530.92,794.63c-3.07,4.38-6.23,8.85-10.65,11.87-3,2.06-6.5,3.36-9.55,5.37-3.38,2.24-6.14,5.29-9.35,7.76-2.65,2-5.59,3.65-8.24,5.68-3.62,2.77-6.64,6.26-10.28,9-2.75,2.09-5.91,3.79-8,6.56"/><path class="cls-7" d="M530.27,795.26a85.45,85.45,0,0,1-6.82,6.09c-6.18,4.75-13.51,7.72-20.38,11.39a106.91,106.91,0,0,0-17.57,11.77c-4.75,3.91-9.23,8.32-12.17,13.73"/><path class="cls-7" d="M518.5,813.94c-6.29,4.93-14.94,6.5-20.5,12.25a37.1,37.1,0,0,0-3.92,5.14"/><path class="cls-7" d="M500.61,805.46c-5.2,1.23-10.43,2.85-14.79,5.93a51,51,0,0,0-6,5.27,49.15,49.15,0,0,0-7.22,8.18,16.34,16.34,0,0,0-2.9,10.31"/><path class="cls-7" d="M515.44,827.82c-7.47,2.51-15.55,3.77-22.06,8.22-4.89,3.34-8.79,8.43-14.47,10.11"/><path class="cls-7" d="M508.8,830a13.68,13.68,0,0,0-4.29,2.13c-1.83,1.39-3.19,3.29-4.8,4.93a41.46,41.46,0,0,1-4.48,3.78c-2.91,2.23-5.92,4.51-9.46,5.43-.7.17-1.41.3-2.1.5a20.54,20.54,0,0,0-3.65,1.63"/><path class="cls-6" d="M403.49,813.79a9.09,9.09,0,0,1-5.18,5.77c-2.16.9-4.58.93-6.8,1.66a1.63,1.63,0,0,1-.53.12,1.43,1.43,0,0,1-1-.7c-2.87-3.81-5.39-8.28-5.16-13a4.4,4.4,0,0,1,.28-1.52,3.78,3.78,0,0,1,3.92-2,11.05,11.05,0,0,1,4.33,1.76l7.53,4.4a7.08,7.08,0,0,1,1.72,1.25,2.37,2.37,0,0,1,.68,1.94"/><path class="cls-6" d="M411.71,771.51c-1.72,5.31.16,11.26-1.48,16.6-.63,2-1.75,3.92-2.51,5.93-.94,2.47-1.33,5.14-2.41,7.55a14.17,14.17,0,0,1-6.37,6.76"/><path class="cls-6" d="M411.71,771.33c-1.19,1.48-2.61,3.08-4.5,3.15a9.89,9.89,0,0,1-2.56-.48c-3.4-.83-7,0-10.24,1.36a12.71,12.71,0,0,0-5.49,3.69,15.3,15.3,0,0,0-2,4,41.25,41.25,0,0,0-2.49,8.58,13.92,13.92,0,0,0,1.31,8.7c.66,1.18,1.58,2.31,1.62,3.66"/><path class="cls-6" d="M425.57,750.93l-5.67,4.7c-.95.78-1.9,1.58-2.92,2.27-1.26.85-2.61,1.55-3.93,2.32a27.77,27.77,0,0,0-6.86,5.37,15.37,15.37,0,0,0-3.87,7.72"/><path class="cls-6" d="M425.61,750.81A54.81,54.81,0,0,0,423.07,777c.72,4.9,2.06,10.14-.07,14.61-1.36,2.84-3.92,4.89-5.68,7.49-1.08,1.62-1.84,3.43-2.86,5.08a19,19,0,0,1-10.85,8.21"/><path class="cls-6" d="M420.09,754.93a6.67,6.67,0,0,1-4,1.41,52.82,52.82,0,0,1-10,.11c-2.36-.2-4.8-.55-7.06.17-3.47,1.09-5.77,4.54-6.54,8.1s-.27,7.24.23,10.85"/><path class="cls-7" d="M425,751.9c-5,8-6.23,17.87-6.25,27.34,0,2,0,3.9-.14,5.84a31.44,31.44,0,0,1-5.5,14.63,51.2,51.2,0,0,1-10.9,11.34"/><path class="cls-7" d="M424.81,752.27C420,756,416,761.11,414.53,767a40.21,40.21,0,0,0-.94,7.67c-.41,7.17-.69,14.48-3.16,21.22A34.2,34.2,0,0,1,400.71,810"/><path class="cls-7" d="M410.71,772.66c-4.25,6.14-5.75,13.7-7.88,20.86a41.61,41.61,0,0,1-1.71,4.89,27,27,0,0,1-5.79,8.49"/><path class="cls-7" d="M411,772.39c-1.28,1.9-3.65,2.65-5.62,3.82a18,18,0,0,0-7.13,9,53.27,53.27,0,0,0-2.65,11.39l-.69,4.35a12.22,12.22,0,0,1-1.42,4.73"/><path class="cls-7" d="M407,774.33c-5.07,1.5-10.39,3.15-14,7a10.47,10.47,0,0,0-1.66,2.25,16.27,16.27,0,0,0-1.2,3.37c-1.55,5.55-3.09,11.5-1.33,17"/><path class="cls-7" d="M418,756.32l-7,2.57a39.61,39.61,0,0,0-5.95,2.55,11.06,11.06,0,0,0-3,2.27c-1.58,1.8-2.23,4.21-2.83,6.53-.34,1.29-.67,2.58-1,3.87"/><path class="cls-7" d="M417.15,756.36a61.62,61.62,0,0,1-13.25,3.22c-1.68.22-3.48.4-4.82,1.45a7.9,7.9,0,0,0-2.27,3.64,35,35,0,0,0-2.08,10.21"/><path class="cls-6" d="M452.79,821.11c-2.49,1.54-3.77,4.4-4.94,7.08a77,77,0,0,1-7,13.2,30.18,30.18,0,0,1-10.93,10c-7.86,3.94-17.28,3.08-25.77.78-1.35-.36-2.89-.74-4.07,0"/><path class="cls-6" d="M399.74,852.35c1.64-1.76,2-4.34,2.07-6.74s-.13-4.88.68-7.15a16.94,16.94,0,0,1,2.49-4.19c4.84-6.6,10.16-13.55,17.9-16.19a16.42,16.42,0,0,1,4.21-.86,27.23,27.23,0,0,1,4.86.28c4.6.55,9.19,1.1,13.77,1.74a13.53,13.53,0,0,1,4.41,1.13c.84.42,1.73,1,2.62.74"/><path class="cls-6" d="M452.53,821.44,447.11,823a43,43,0,0,0-4.46,1.45c-6.14,2.49-10.81,7.55-16.25,11.32-4.4,3.05-9.32,5.27-13.86,8.11-1.49.94-2.93,1.94-4.38,2.94q-3.82,2.63-7.63,5.27"/><path class="cls-7" d="M409.07,829.34c.18,1.18.37,2.36.55,3.54.63,4.14,1.26,8.43.1,12.46"/><path class="cls-7" d="M422.1,853.62c-4.26-2.46-7.63-6.36-12.13-8.35"/><path class="cls-7" d="M418.81,820.42c1,4.38,1.75,8.9,1.13,13.35a47.18,47.18,0,0,1-1.47,6.19"/><path class="cls-7" d="M436.43,846.73a46,46,0,0,0-12.65-6.17,8.62,8.62,0,0,0-4.25-.49"/><path class="cls-7" d="M429.65,817.68a15.64,15.64,0,0,1,.5,7.51,46,46,0,0,1-2,7.34,10.08,10.08,0,0,1-1.44,3.12"/><path class="cls-7" d="M443.6,836.77a16.33,16.33,0,0,0-5.1-2.95,17.37,17.37,0,0,0-2.15-.42c-2.49-.37-5.27-.67-7.32.8"/><path class="cls-6" d="M335.32,836.15c3.82,4.1,9.85,5.14,14.62,8.07a30,30,0,0,1,7.62,7.12c2.4,3,4.57,6.62,4.13,10.44-.29,2.55-1.73,5-1.31,7.51"/><path class="cls-6" d="M335.42,836a5.13,5.13,0,0,1,.83,3.92,37,37,0,0,1-1.05,4,19,19,0,0,0,.59,11.1,23.15,23.15,0,0,0,6.3,9.23,15.61,15.61,0,0,0,4.7,3.06c4.14,1.62,8.92.64,13.13,2.09"/><path class="cls-6" d="M360.08,869.26c-3.62-1.67-5.2-5.87-7.84-8.87-.95-1.07-2-2-3-3-4.71-5-6.35-12.34-11-17.46a7.15,7.15,0,0,1-1.73-2.41"/><path class="cls-7" d="M359.57,855.41a4.66,4.66,0,0,1,.06,2.62,38.28,38.28,0,0,1-3.05,8.66"/><path class="cls-7" d="M356.59,865.91a33.74,33.74,0,0,0-4.38.13c-1.32.12-2.63.32-3.95.52l-2,.31"/><path class="cls-7" d="M352.7,861.63a7.76,7.76,0,0,0-4.25-.12,25.59,25.59,0,0,1-4.25.68,8.15,8.15,0,0,1-4.38-1.23"/><path class="cls-7" d="M352.94,861.07c.55-2.36,1.4-4.64,1.84-7a11.19,11.19,0,0,0-.64-7.1"/><path class="cls-7" d="M349.59,844.39a3.12,3.12,0,0,1,.56,1.29c.91,3.84-.34,7.82-.53,11.76"/><path class="cls-7" d="M349.37,857.49a12.31,12.31,0,0,0-5.08-1.71c-.75-.06-1.51,0-2.26-.07a12.19,12.19,0,0,1-6.62-2.38"/><path class="cls-7" d="M345.75,851.74a15.73,15.73,0,0,0-.34-9.5"/><path class="cls-7" d="M345.32,851.45l-3-.71c-2.62-.61-5.32-1.26-7.48-2.86"/><path class="cls-7" d="M342.13,846.22a15.78,15.78,0,0,1-6.91-1.67"/><path class="cls-7" d="M342.13,845.84a6.28,6.28,0,0,0,.11-4.76"/><path class="cls-6" d="M424.44,863.75c-1.42,1.4-1.33,3.67-1.5,5.66-.41,4.78-2.86,9.12-5.26,13.27-1,1.7-2,3.41-3.08,5a36.83,36.83,0,0,1-21.51,14.74"/><path class="cls-6" d="M424.52,863.71c-7.08.74-14.44,0-21.18,2.27a24.21,24.21,0,0,0-11.16,7.95,13.37,13.37,0,0,0-2.83,5.73,18.88,18.88,0,0,0-.21,3,35.22,35.22,0,0,0,.39,7.33,37,37,0,0,0,1,3.71q1.29,4.17,2.6,8.36"/><path class="cls-6" d="M424.44,863.75a61,61,0,0,0-14.7,7.65,33,33,0,0,0-4.23,3.29,22.52,22.52,0,0,0-5,6.91c-3,6.56-2.82,14.47-7,20.36"/><path class="cls-7" d="M407,895.52a13,13,0,0,1-2.57.34l-8.43.54"/><path class="cls-7" d="M395.84,896.06q-3.13-3-6.4-5.88"/><path class="cls-7" d="M397.74,890.32a6.84,6.84,0,0,0-1.18-2.29,26.82,26.82,0,0,0-6.81-6.63"/><path class="cls-7" d="M397.91,889.79a17.06,17.06,0,0,1,3.46-.81,34.21,34.21,0,0,1,5.7-.58,11.33,11.33,0,0,1,5.52,1.34"/><path class="cls-7" d="M399.66,883.4c.18-2.43-.9-4.77-2.12-6.88a10.37,10.37,0,0,0-3.78-4.17"/><path class="cls-7" d="M416.21,883.22a11,11,0,0,0-5.75-2,33.44,33.44,0,0,0-6.16.25c-1.49.16-3.15.4-4.09,1.58"/><path class="cls-7" d="M404.45,875.27a8.52,8.52,0,0,0,.7-6.82,4,4,0,0,0-1.12-2"/><path class="cls-7" d="M420.12,878.37a12.38,12.38,0,0,0-9-3.91,24.26,24.26,0,0,0-5.59.91"/><path class="cls-7" d="M422.28,872.09a6.75,6.75,0,0,0-2.9-1.83,19.43,19.43,0,0,0-3.38-.75,7.24,7.24,0,0,0-3.14,0"/><path class="cls-7" d="M414.9,864.36a5.84,5.84,0,0,1-1.78,4.14"/><path class="cls-6" d="M473.09,927.51c1.69-4.3,4.79-7.87,7.2-11.81s4.14-8.76,2.71-13.15a13.11,13.11,0,0,0-2-3.7,33,33,0,0,0-4.91-5.12q-4-3.59-8.36-6.79a28.41,28.41,0,0,0-4.38-2.82,33.7,33.7,0,0,0-4.7-1.79c-2.38-.77-4.91-1.54-7.32-.92-.54.14-1.17.33-1.6,0"/><path class="cls-6" d="M449.72,881.34c.18,2.29-.61,4.53-1,6.78a15.92,15.92,0,0,0,1.92,11.69,27,27,0,0,0,4.34,4.67c2.45,2.27,4.83,4.6,7.22,6.94l4.94,4.83a17.68,17.68,0,0,1,3.3,3.93,18.4,18.4,0,0,1,1.25,3.24c.41,1.31.82,2.62,1.22,3.93"/><path class="cls-6" d="M473,927.64q.18-4,.35-8.06a20.79,20.79,0,0,0-.15-4.86,15.93,15.93,0,0,0-4.28-7.65c-2-2.17-4.33-4-6.4-6.14a37.62,37.62,0,0,1-5.68-7.49c-1.06-1.85-2-3.79-3-5.67a50.37,50.37,0,0,0-3.67-5.71"/><path class="cls-7" d="M453.54,887.84c.24,1.55-.7,3-1.45,4.38a11.8,11.8,0,0,0-1.71,6.66"/><path class="cls-7" d="M454.23,888a6.44,6.44,0,0,0,3.91.15,36.36,36.36,0,0,0,3.77-1.28,9.19,9.19,0,0,1,2.19-.52,5.3,5.3,0,0,1,3.85,1.29"/><path class="cls-7" d="M475.6,892.93a7.55,7.55,0,0,0-2.71-1,9.7,9.7,0,0,0-4.61.79,26.62,26.62,0,0,1-4.46,1.51,9.27,9.27,0,0,1-6.74-1.41"/><path class="cls-7" d="M456.27,893.07a5.34,5.34,0,0,1-.06,3.19c-.21.62-.53,1.19-.78,1.78a8.8,8.8,0,0,0-.17,6.27"/><path class="cls-7" d="M461.33,899.92c-.37,1.64-.75,3.28-1.12,4.93a10.35,10.35,0,0,0-.38,2.7,3.65,3.65,0,0,0,1,2.49"/><path class="cls-7" d="M482.91,906.57a4.49,4.49,0,0,0-1.27-4,7.4,7.4,0,0,0-3.85-1.93,22.67,22.67,0,0,0-4.36-.28h-6.56a12.87,12.87,0,0,1-5.21-.72"/><path class="cls-7" d="M467.65,905.76a10.62,10.62,0,0,1-.29,4.59c-.46,1.59-1.3,3.23-.82,4.81"/><path class="cls-7" d="M468.17,906a6.78,6.78,0,0,0,2.37.39,22.05,22.05,0,0,1,6.61,1.45,10.64,10.64,0,0,1,2.9,1.59,5,5,0,0,1,1.76,2.74"/><path class="cls-7" d="M472.36,912.81a4.53,4.53,0,0,1-.64,2.79c-.47.86-1.06,1.64-1.52,2.5a1.87,1.87,0,0,0-.28,1.42"/><path class="cls-7" d="M472.65,913.55c2.16,1.17,4.67,1.68,6.69,3.09"/><path class="cls-6" d="M391.21,821.31c-5.43,15.25-10.93,30.49-17.5,45.29a341.36,341.36,0,0,1-43.47,72.23c-7.17,9.12-14.85,18-20.3,28.2-5.12,9.62-8.32,20.54-15.81,28.45"/><path class="cls-6" d="M400.73,852.07c-6.47,2.79-11.54,8-17.44,11.85a15.14,15.14,0,0,1-5.45,2.45,9.89,9.89,0,0,0-1.55.31c-1.16.41-2,1.44-3,2.05"/><path class="cls-6" d="M360.23,869.33c.17,1.32.39,2.64.66,3.94a16.57,16.57,0,0,0,2.71,7,18.89,18.89,0,0,1,1.28,1.7,2.67,2.67,0,0,1,.38,2"/><path class="cls-6" d="M464.92,848.93a230.67,230.67,0,0,0-21.6,20.81c-4.59,5-9,10.3-13.88,15-13.93,13.39-31.67,22.06-47,33.85a143.84,143.84,0,0,1-11.83,8.8,94.08,94.08,0,0,1-12.94,6.26l-34.95,14.8"/><path class="cls-6" d="M393.22,902.36a12.67,12.67,0,0,0-2.33,7.83,4.27,4.27,0,0,1-.39,2.71"/><path class="cls-6" d="M450.05,881.76a6.37,6.37,0,0,0-3.74-1.88,17.86,17.86,0,0,0-4.26,0q-1.79.15-3.57.36a21,21,0,0,1-4.41.2"/><path class="cls-6" d="M186.85,183.59a5.14,5.14,0,0,1-3.56,2.85,15.47,15.47,0,0,1-4.71.24,12,12,0,0,1-7.05-2.37,1.22,1.22,0,0,1-.48-.42,1.2,1.2,0,0,1,0-.68l.78-5.56a21.55,21.55,0,0,1,.69-3.49,10.57,10.57,0,0,1,1.79-3.34,1.78,1.78,0,0,1,1-.75,1.94,1.94,0,0,1,1.56.74c1.66,1.61,3.16,3.38,4.67,5.14l2.34,2.76c1.23,1.44,2.5,3,2.75,4.86"/><path class="cls-6" d="M222.87,162.89c-4.34,3.14-8.77,6.37-11.84,10.77-1.66,2.38-2.95,5.14-5.28,6.88s-5.12,2.17-7.91,2.35-5.61.12-8.3.86c-.81.23-1.77.51-2.44,0"/><path class="cls-6" d="M223.18,162.67c-2.38.71-4.9-.18-7.37-.44-6.08-.63-11.85,2.59-16.92,6s-10.2,7.27-16.25,8.14"/><path class="cls-6" d="M238.29,129.48c-1.17,5.08-4,9.62-7.39,13.62s-7.19,7.56-10.71,11.41a20.74,20.74,0,0,0-4.67,7"/><path class="cls-6" d="M238.36,129.24c-5.09,5.29-12.47,7.5-19.2,10.41-2.43,1-4.81,2.21-7.18,3.38l-10.47,5.13a65.59,65.59,0,0,0-8.53,4.72c-6.39,4.42-11,11-15.38,17.34"/><path class="cls-6" d="M217.76,140.78a82.72,82.72,0,0,1-16.5-.29,16.09,16.09,0,0,0-6.3,0,12.77,12.77,0,0,0-3.58,1.83,51.05,51.05,0,0,0-15.47,16.4,10.76,10.76,0,0,0-1.38,3.17,11.76,11.76,0,0,0,0,3.79c.15,1.31.3,2.61.46,3.91"/><path class="cls-7" d="M238,129.93c-3.07,4.38-6.23,8.86-10.65,11.87-3,2.07-6.5,3.36-9.55,5.38-3.38,2.23-6.14,5.28-9.35,7.75-2.65,2-5.59,3.65-8.24,5.68-3.62,2.77-6.64,6.26-10.28,9-2.75,2.08-5.91,3.78-8,6.56"/><path class="cls-7" d="M237.34,130.57a87.24,87.24,0,0,1-6.83,6.08c-6.18,4.76-13.51,7.72-20.38,11.39a106.91,106.91,0,0,0-17.57,11.77c-4.75,3.91-9.23,8.32-12.17,13.73"/><path class="cls-7" d="M225.57,149.24c-6.29,4.94-14.95,6.5-20.5,12.25a35.93,35.93,0,0,0-3.93,5.15"/><path class="cls-7" d="M207.68,140.76c-5.21,1.23-10.43,2.85-14.8,5.93a50.14,50.14,0,0,0-6,5.28,48.19,48.19,0,0,0-7.21,8.17,16.36,16.36,0,0,0-2.91,10.31"/><path class="cls-7" d="M222.5,163.12c-7.47,2.51-15.55,3.77-22.06,8.22-4.89,3.34-8.79,8.43-14.47,10.11"/><path class="cls-7" d="M215.86,165.25a13.68,13.68,0,0,0-4.29,2.13c-1.83,1.39-3.18,3.3-4.8,4.93a41.46,41.46,0,0,1-4.48,3.78c-2.91,2.23-5.92,4.51-9.46,5.43-.7.18-1.41.3-2.1.5a19.89,19.89,0,0,0-3.65,1.64"/><path class="cls-6" d="M110.56,149.1a9.14,9.14,0,0,1-5.19,5.76c-2.16.9-4.58.93-6.8,1.67a1.62,1.62,0,0,1-.53.11,1.45,1.45,0,0,1-1-.69c-2.87-3.82-5.39-8.28-5.16-13a4.41,4.41,0,0,1,.28-1.53,3.78,3.78,0,0,1,3.92-2,11.05,11.05,0,0,1,4.33,1.76l7.53,4.4a7.16,7.16,0,0,1,1.72,1.25,2.38,2.38,0,0,1,.68,1.94"/><path class="cls-6" d="M118.77,106.81c-1.72,5.31.16,11.27-1.48,16.6-.62,2.06-1.75,3.92-2.51,5.93-.94,2.47-1.32,5.14-2.4,7.55a14.3,14.3,0,0,1-6.38,6.77"/><path class="cls-6" d="M118.77,106.64c-1.19,1.47-2.61,3.07-4.5,3.14a9.89,9.89,0,0,1-2.56-.48c-3.4-.83-7,0-10.24,1.36a12.7,12.7,0,0,0-5.49,3.7,15.39,15.39,0,0,0-2,4A41.87,41.87,0,0,0,91.52,127a13.92,13.92,0,0,0,1.31,8.7c.66,1.18,1.58,2.32,1.62,3.67"/><path class="cls-6" d="M132.63,86.23,127,90.93c-1,.79-1.91,1.58-2.93,2.27-1.26.86-2.61,1.56-3.92,2.32a27.64,27.64,0,0,0-6.87,5.37,15.41,15.41,0,0,0-3.87,7.72"/><path class="cls-6" d="M132.67,86.11a54.93,54.93,0,0,0-2.54,26.21c.72,4.9,2.07,10.15-.07,14.62-1.35,2.83-3.92,4.88-5.67,7.49-1.09,1.61-1.85,3.42-2.87,5.08a18.94,18.94,0,0,1-10.85,8.2"/><path class="cls-6" d="M127.15,90.23a6.67,6.67,0,0,1-4,1.41,52.82,52.82,0,0,1-10,.11c-2.36-.2-4.8-.55-7.06.17-3.47,1.09-5.77,4.54-6.54,8.1s-.27,7.25.23,10.85"/><path class="cls-7" d="M132.09,87.2c-5,8-6.23,17.87-6.25,27.35,0,1.94,0,3.89-.14,5.83A31.43,31.43,0,0,1,120.21,135a51.52,51.52,0,0,1-10.91,11.35"/><path class="cls-7" d="M131.87,87.57c-4.81,3.77-8.8,8.85-10.28,14.78a40.21,40.21,0,0,0-.94,7.66c-.41,7.17-.69,14.48-3.16,21.22a34.17,34.17,0,0,1-9.72,14.06"/><path class="cls-7" d="M117.78,108c-4.26,6.14-5.76,13.7-7.89,20.86a42.41,42.41,0,0,1-1.71,4.9,26.92,26.92,0,0,1-5.79,8.48"/><path class="cls-7" d="M118.09,107.69c-1.28,1.9-3.66,2.65-5.63,3.82a18,18,0,0,0-7.12,9,53.29,53.29,0,0,0-2.66,11.39l-.69,4.36a12.22,12.22,0,0,1-1.42,4.72"/><path class="cls-7" d="M114,109.63c-5.07,1.5-10.39,3.15-14,7a10.72,10.72,0,0,0-1.66,2.25,16.69,16.69,0,0,0-1.2,3.37c-1.55,5.56-3.09,11.5-1.32,17"/><path class="cls-7" d="M125.06,91.62l-7,2.57a40.06,40.06,0,0,0-6,2.55,11.2,11.2,0,0,0-3,2.28c-1.59,1.79-2.24,4.2-2.84,6.52-.34,1.29-.67,2.58-1,3.87"/><path class="cls-7" d="M124.21,91.67A61,61,0,0,1,111,94.88c-1.68.22-3.48.4-4.82,1.45a8,8,0,0,0-2.27,3.64,35,35,0,0,0-2.08,10.21"/><path class="cls-6" d="M159.86,156.41c-2.5,1.54-3.78,4.41-5,7.09a77.23,77.23,0,0,1-7,13.19,30.18,30.18,0,0,1-10.93,10c-7.86,3.95-17.28,3.08-25.77.78-1.35-.36-2.89-.73-4.06,0"/><path class="cls-6" d="M106.8,187.65c1.64-1.75,2-4.33,2.07-6.74s-.13-4.88.68-7.15a17,17,0,0,1,2.5-4.19c4.83-6.59,10.15-13.55,17.89-16.18a16.1,16.1,0,0,1,4.21-.87,26.5,26.5,0,0,1,4.87.29c4.59.55,9.18,1.1,13.76,1.73a13.84,13.84,0,0,1,4.42,1.13c.83.42,1.72,1,2.61.75"/><path class="cls-6" d="M159.59,156.74l-5.42,1.56a43,43,0,0,0-4.46,1.45c-6.14,2.49-10.81,7.55-16.25,11.32-4.4,3.06-9.32,5.27-13.86,8.12-1.49.93-2.93,1.93-4.38,2.93l-7.63,5.27"/><path class="cls-7" d="M116.13,164.64c.19,1.18.37,2.36.55,3.54.63,4.14,1.26,8.44.1,12.46"/><path class="cls-7" d="M129.16,188.92c-4.26-2.46-7.63-6.36-12.13-8.35"/><path class="cls-7" d="M125.87,155.72c1,4.38,1.75,8.91,1.13,13.36a47,47,0,0,1-1.47,6.18"/><path class="cls-7" d="M143.49,182a46.12,46.12,0,0,0-12.65-6.17,8.62,8.62,0,0,0-4.25-.48"/><path class="cls-7" d="M136.71,153a15.53,15.53,0,0,1,.5,7.51,45.68,45.68,0,0,1-2,7.34,9.88,9.88,0,0,1-1.44,3.12"/><path class="cls-7" d="M150.66,172.07a16.5,16.5,0,0,0-5.1-2.94,14.09,14.09,0,0,0-2.15-.42c-2.49-.37-5.27-.68-7.31.79"/><path class="cls-6" d="M42.38,171.46c3.82,4.09,9.85,5.13,14.63,8.06a30.3,30.3,0,0,1,7.61,7.12c2.4,3,4.57,6.63,4.13,10.45-.29,2.54-1.73,5-1.31,7.5"/><path class="cls-6" d="M42.48,171.34a5.09,5.09,0,0,1,.83,3.91,37,37,0,0,1-1.05,4,19,19,0,0,0,.6,11.1,23.06,23.06,0,0,0,6.29,9.23,15.84,15.84,0,0,0,4.7,3.07c4.14,1.61,8.92.63,13.13,2.08"/><path class="cls-6" d="M67.14,204.57c-3.62-1.68-5.2-5.88-7.84-8.87-.94-1.08-2-2-3-3-4.71-5-6.34-12.34-11-17.45a7.28,7.28,0,0,1-1.73-2.42"/><path class="cls-7" d="M66.63,190.71a4.66,4.66,0,0,1,.06,2.62,38.28,38.28,0,0,1-3,8.66"/><path class="cls-7" d="M63.65,201.21a33.74,33.74,0,0,0-4.38.13c-1.32.12-2.63.32-4,.52l-2,.31"/><path class="cls-7" d="M59.76,196.93a7.85,7.85,0,0,0-4.25-.12,25.59,25.59,0,0,1-4.25.68,8,8,0,0,1-4.37-1.23"/><path class="cls-7" d="M60,196.38c.55-2.36,1.4-4.65,1.84-7a11.19,11.19,0,0,0-.64-7.1"/><path class="cls-7" d="M56.65,179.69a3.18,3.18,0,0,1,.56,1.29c.91,3.84-.34,7.82-.53,11.76"/><path class="cls-7" d="M56.43,192.79a12.16,12.16,0,0,0-5.07-1.7c-.76-.07-1.51,0-2.27-.07a12.35,12.35,0,0,1-6.62-2.38"/><path class="cls-7" d="M52.81,187.05a15.76,15.76,0,0,0-.34-9.51"/><path class="cls-7" d="M52.38,186.75l-3-.7c-2.62-.62-5.32-1.26-7.48-2.86"/><path class="cls-7" d="M49.19,181.52a15.67,15.67,0,0,1-6.91-1.67"/><path class="cls-7" d="M49.19,181.14a6.28,6.28,0,0,0,.11-4.76"/><path class="cls-6" d="M131.5,199.05c-1.42,1.41-1.32,3.67-1.49,5.66-.42,4.79-2.87,9.12-5.27,13.28-1,1.7-2,3.4-3.08,5a36.89,36.89,0,0,1-21.51,14.74"/><path class="cls-6" d="M131.59,199c-7.09.74-14.45,0-21.19,2.27a24.28,24.28,0,0,0-11.16,7.95A13.48,13.48,0,0,0,96.41,215a19,19,0,0,0-.21,3,35.18,35.18,0,0,0,.39,7.33,36.28,36.28,0,0,0,1,3.71l2.6,8.36"/><path class="cls-6" d="M131.5,199.05a61.25,61.25,0,0,0-14.7,7.66,32,32,0,0,0-4.23,3.29,22.28,22.28,0,0,0-5,6.91c-3,6.55-2.82,14.46-7,20.36"/><path class="cls-7" d="M114.11,230.83a13.91,13.91,0,0,1-2.58.33l-8.43.54"/><path class="cls-7" d="M102.9,231.36q-3.14-3-6.4-5.88"/><path class="cls-7" d="M104.8,225.62a6.84,6.84,0,0,0-1.18-2.29,26.82,26.82,0,0,0-6.81-6.63"/><path class="cls-7" d="M105,225.09a17.06,17.06,0,0,1,3.46-.81,34.21,34.21,0,0,1,5.7-.58,11.33,11.33,0,0,1,5.52,1.35"/><path class="cls-7" d="M106.72,218.7c.18-2.43-.89-4.77-2.12-6.87a10.52,10.52,0,0,0-3.77-4.18"/><path class="cls-7" d="M123.27,218.52a10.9,10.9,0,0,0-5.75-2,32.58,32.58,0,0,0-6.16.24c-1.49.16-3.15.4-4.08,1.58"/><path class="cls-7" d="M111.51,210.58a8.52,8.52,0,0,0,.7-6.82,4,4,0,0,0-1.12-2"/><path class="cls-7" d="M127.18,213.67a12.38,12.38,0,0,0-9-3.91,24.26,24.26,0,0,0-5.59.91"/><path class="cls-7" d="M129.34,207.39a6.75,6.75,0,0,0-2.9-1.83,20.39,20.39,0,0,0-3.38-.75,7.19,7.19,0,0,0-3.13-.05"/><path class="cls-7" d="M122,199.66a5.83,5.83,0,0,1-1.77,4.14"/><path class="cls-6" d="M180.15,262.81c1.69-4.29,4.8-7.86,7.2-11.81s4.14-8.76,2.71-13.15a13.11,13.11,0,0,0-2-3.7,33.48,33.48,0,0,0-4.91-5.12q-4-3.57-8.36-6.79a29.18,29.18,0,0,0-4.38-2.82,33.7,33.7,0,0,0-4.7-1.79c-2.37-.76-4.9-1.54-7.32-.91-.54.13-1.17.32-1.6,0"/><path class="cls-6" d="M156.78,216.64c.18,2.29-.61,4.53-1,6.78a15.9,15.9,0,0,0,1.93,11.7,26.88,26.88,0,0,0,4.33,4.66c2.45,2.27,4.83,4.6,7.22,6.94q2.47,2.42,4.94,4.84a17.63,17.63,0,0,1,3.3,3.92,18.7,18.7,0,0,1,1.25,3.24c.41,1.31.82,2.62,1.22,3.93"/><path class="cls-6" d="M180.05,262.94l.36-8.05a21.41,21.41,0,0,0-.16-4.87,15.84,15.84,0,0,0-4.27-7.64c-2-2.17-4.33-4-6.41-6.15a37.71,37.71,0,0,1-5.68-7.49c-1.06-1.85-2-3.79-3-5.66a48.58,48.58,0,0,0-3.66-5.71"/><path class="cls-7" d="M160.6,223.15c.24,1.55-.7,3-1.45,4.37a11.81,11.81,0,0,0-1.71,6.67"/><path class="cls-7" d="M161.29,223.3a6.36,6.36,0,0,0,3.91.15,38.82,38.82,0,0,0,3.77-1.27,8.76,8.76,0,0,1,2.19-.53,5.34,5.34,0,0,1,3.85,1.29"/><path class="cls-7" d="M182.66,228.24a7.39,7.39,0,0,0-2.71-1,9.7,9.7,0,0,0-4.61.79,25.46,25.46,0,0,1-4.46,1.51,9.27,9.27,0,0,1-6.74-1.41"/><path class="cls-7" d="M163.33,228.38a5.34,5.34,0,0,1-.06,3.19c-.21.61-.53,1.18-.78,1.78a8.83,8.83,0,0,0-.17,6.26"/><path class="cls-7" d="M168.39,235.22c-.37,1.64-.75,3.29-1.12,4.93a10.37,10.37,0,0,0-.38,2.71,3.61,3.61,0,0,0,1,2.48"/><path class="cls-7" d="M190,241.87a4.46,4.46,0,0,0-1.27-4,7.25,7.25,0,0,0-3.85-1.93,21.85,21.85,0,0,0-4.35-.29h-6.57a12.54,12.54,0,0,1-5.21-.72"/><path class="cls-7" d="M174.71,241.06a10.68,10.68,0,0,1-.29,4.6c-.46,1.58-1.29,3.22-.82,4.8"/><path class="cls-7" d="M175.23,241.26a7,7,0,0,0,2.37.38,22.36,22.36,0,0,1,6.61,1.45,10.27,10.27,0,0,1,2.9,1.6,5,5,0,0,1,1.76,2.73"/><path class="cls-7" d="M179.42,248.11a4.57,4.57,0,0,1-.64,2.8c-.46.85-1.06,1.63-1.52,2.49a1.91,1.91,0,0,0-.28,1.42"/><path class="cls-7" d="M179.71,248.85c2.16,1.18,4.67,1.68,6.69,3.09"/><path class="cls-6" d="M98.27,156.61c-5.43,15.25-10.93,30.49-17.5,45.29A341.11,341.11,0,0,1,37.3,274.13c-7.16,9.13-14.85,18-20.3,28.21C11.88,312,8.68,322.87,1.19,330.78"/><path class="cls-6" d="M107.79,187.37c-6.47,2.79-11.54,8-17.44,11.85a15,15,0,0,1-5.45,2.45,9.07,9.07,0,0,0-1.55.32c-1.16.4-2,1.43-3,2"/><path class="cls-6" d="M67.29,204.63c.17,1.32.39,2.64.66,4a16.76,16.76,0,0,0,2.71,7,17.44,17.44,0,0,1,1.28,1.69,2.67,2.67,0,0,1,.38,2"/><path class="cls-6" d="M172,184.23A232,232,0,0,0,150.38,205c-4.59,5.05-9,10.3-13.88,15-13.93,13.4-31.66,22.06-47,33.85a140,140,0,0,1-11.83,8.8A94.13,94.13,0,0,1,64.76,269L29.81,283.78"/><path class="cls-6" d="M100.28,237.66A12.68,12.68,0,0,0,98,245.5a4.22,4.22,0,0,1-.39,2.71"/><path class="cls-6" d="M157.12,217.06a6.3,6.3,0,0,0-3.75-1.87,17.35,17.35,0,0,0-4.26,0q-1.79.16-3.57.36a20.94,20.94,0,0,1-4.4.2"/></g><text class="cls-8" transform="translate(293.4 261.54)">THÂN MỜI</text><path class="cls-9" d="M349.05,797a7.3,7.3,0,0,0,3.24,2.81,37.48,37.48,0,0,1,6.16,4.1,14.93,14.93,0,0,1,4.36,5.9c1.55,4.07.65,8.68-.92,12.76a2.48,2.48,0,0,0-.19,2"/><path class="cls-9" d="M361.78,824.81a5,5,0,0,0-3.23-1.36,11.11,11.11,0,0,1-3.49-.7,8.5,8.5,0,0,1-1.94-1.44c-3-2.72-6.18-5.7-7.08-9.66a8,8,0,0,1-.22-2.12,12.85,12.85,0,0,1,.39-2.38c.5-2.24,1-4.48,1.55-6.71a6.75,6.75,0,0,1,.78-2.12c.25-.39.6-.8.5-1.26"/><path class="cls-9" d="M349.2,797.19c.16.92.32,1.84.49,2.76a21.83,21.83,0,0,0,.49,2.27c.92,3.16,3.18,5.72,4.76,8.6,1.29,2.32,2.13,4.86,3.31,7.24.38.79.8,1.55,1.22,2.32l2.22,4"/><path class="cls-10" d="M350.89,819l1.77-.09a14.66,14.66,0,0,1,6.16.58"/><path class="cls-10" d="M363.54,813.84c-1.44,2-3.53,3.44-4.74,5.57"/><path class="cls-10" d="M347,813.78a18.34,18.34,0,0,1,6.65.12,22.87,22.87,0,0,1,3,1"/><path class="cls-10" d="M360.86,806.42a22.73,22.73,0,0,0-3.68,5.93,4.2,4.2,0,0,0-.46,2.07"/><path class="cls-10" d="M346.18,808.29a7.73,7.73,0,0,1,3.73.14,22.36,22.36,0,0,1,3.52,1.34,4.73,4.73,0,0,1,1.47.87"/><path class="cls-10" d="M356.31,802.37a7.92,7.92,0,0,0-1.71,2.37,7.79,7.79,0,0,0-.32,1c-.31,1.21-.6,2.57,0,3.65"/><path class="cls-9" d="M531,878.63a7.22,7.22,0,0,0-3.74,2.08,36.92,36.92,0,0,1-6,4.38,14.89,14.89,0,0,1-7,2.08c-4.36.06-8.38-2.38-11.67-5.24a2.48,2.48,0,0,0-1.81-.87"/><path class="cls-9" d="M500.59,881.06A5,5,0,0,0,503,878.5a11.2,11.2,0,0,1,1.85-3,8.51,8.51,0,0,1,2-1.33c3.59-1.89,7.47-3.85,11.5-3.34a7.78,7.78,0,0,1,2.07.53,12.4,12.4,0,0,1,2.1,1.18c1.93,1.24,3.86,2.48,5.77,3.76a6.75,6.75,0,0,1,1.73,1.46c.28.37.54.83,1,.9"/><path class="cls-9" d="M530.85,878.72l-2.76-.49a22.28,22.28,0,0,0-2.3-.31c-3.28-.23-6.46,1-9.71,1.52-2.62.41-5.3.34-7.94.62-.87.09-1.73.23-2.59.36l-4.55.7"/><path class="cls-10" d="M509.75,872.82c-.18.56-.35,1.13-.53,1.69a14.45,14.45,0,0,1-2.65,5.59"/><path class="cls-10" d="M510.3,886.48c-1.37-2-2-4.5-3.61-6.36"/><path class="cls-10" d="M516,871a18.23,18.23,0,0,1-2.4,6.2,21.19,21.19,0,0,1-2,2.44"/><path class="cls-10" d="M518.18,886.51a23,23,0,0,0-4.3-5.5,4.36,4.36,0,0,0-1.79-1.13"/><path class="cls-10" d="M521.46,872.07a7.7,7.7,0,0,1-1.41,3.47,23.72,23.72,0,0,1-2.46,2.85,5,5,0,0,1-1.32,1.08"/><path class="cls-10" d="M523.54,883.62a8.18,8.18,0,0,0-1.63-2.42,7.87,7.87,0,0,0-.87-.65,5,5,0,0,0-3.44-1.24"/><path class="cls-9" d="M242.5,206.42a7.27,7.27,0,0,0-3.75,2.09,38.55,38.55,0,0,1-6,4.38,15.06,15.06,0,0,1-7,2.07c-4.36.06-8.38-2.37-11.67-5.24a2.56,2.56,0,0,0-1.82-.87"/><path class="cls-9" d="M212,208.86a5,5,0,0,0,2.39-2.56,11.36,11.36,0,0,1,1.85-3.05,8.68,8.68,0,0,1,2-1.33c3.59-1.89,7.47-3.84,11.49-3.34a8.18,8.18,0,0,1,2.07.53,13.22,13.22,0,0,1,2.11,1.18c1.93,1.24,3.86,2.48,5.77,3.76a6.91,6.91,0,0,1,1.72,1.46c.28.37.55.84,1,.9"/><path class="cls-9" d="M242.31,206.51l-2.76-.48a20,20,0,0,0-2.31-.32c-3.27-.22-6.46,1-9.7,1.53-2.63.41-5.3.33-7.95.61-.86.1-1.72.23-2.59.36l-4.55.7"/><path class="cls-10" d="M221.2,200.61c-.17.57-.35,1.13-.52,1.7a14.57,14.57,0,0,1-2.66,5.58"/><path class="cls-10" d="M221.75,214.27c-1.37-2-2-4.49-3.61-6.36"/><path class="cls-10" d="M227.48,198.74a18.26,18.26,0,0,1-2.39,6.21,24.46,24.46,0,0,1-2,2.44"/><path class="cls-10" d="M229.64,214.3a22.69,22.69,0,0,0-4.31-5.49,4.22,4.22,0,0,0-1.79-1.14"/><path class="cls-10" d="M232.91,199.87a7.76,7.76,0,0,1-1.4,3.46,24.74,24.74,0,0,1-2.47,2.85,5,5,0,0,1-1.32,1.08"/><path class="cls-10" d="M235,211.41a8.21,8.21,0,0,0-1.64-2.42,7.87,7.87,0,0,0-.87-.65,4.91,4.91,0,0,0-3.43-1.23"/><path class="cls-11" d="M174.85,112.79a3.78,3.78,0,0,0-1.93,1.08,19.28,19.28,0,0,1-3.06,2.25,7.77,7.77,0,0,1-3.62,1.07,9.38,9.38,0,0,1-6-2.7,1.33,1.33,0,0,0-.94-.45"/><path class="cls-11" d="M159.2,114.05a2.56,2.56,0,0,0,1.23-1.32,5.77,5.77,0,0,1,.95-1.56,4.59,4.59,0,0,1,1-.69c1.84-1,3.84-2,5.91-1.71a3.94,3.94,0,0,1,1.06.27,6.79,6.79,0,0,1,1.08.61c1,.63,2,1.27,3,1.93a3.34,3.34,0,0,1,.88.75c.15.19.28.43.52.46"/><path class="cls-11" d="M174.75,112.84l-1.42-.25c-.39-.06-.78-.13-1.18-.16-1.68-.11-3.32.53-5,.79-1.35.21-2.72.17-4.08.31-.44,0-.89.12-1.33.19l-2.34.36"/><path class="cls-12" d="M163.91,109.81l-.27.87a7.41,7.41,0,0,1-1.37,2.87"/><path class="cls-12" d="M164.19,116.83a34.84,34.84,0,0,0-1.85-3.27"/><path class="cls-12" d="M167.13,108.85A9.25,9.25,0,0,1,165.9,112a11.12,11.12,0,0,1-1,1.25"/><path class="cls-12" d="M168.24,116.85A11.68,11.68,0,0,0,166,114a2.18,2.18,0,0,0-.92-.58"/><path class="cls-12" d="M169.92,109.43a4,4,0,0,1-.72,1.78,11.76,11.76,0,0,1-1.27,1.46,2.56,2.56,0,0,1-.67.56"/><path class="cls-12" d="M171,115.36a4,4,0,0,0-.85-1.24,3.68,3.68,0,0,0-.44-.34,2.54,2.54,0,0,0-1.77-.63"/><path class="cls-13" d="M128,310.25c-1.75.18-3.19,1.38-4.52,2.52a45.75,45.75,0,0,1-7.2,5.28,18,18,0,0,1-8.48,2.51c-5.26.06-10.11-2.87-14.08-6.32a3,3,0,0,0-2.19-1.05"/><path class="cls-13" d="M91.23,313.19a6,6,0,0,0,2.88-3.09,13.55,13.55,0,0,1,2.23-3.67,10.5,10.5,0,0,1,2.44-1.6c4.33-2.28,9-4.64,13.87-4a9.71,9.71,0,0,1,2.49.64,16.64,16.64,0,0,1,2.54,1.42c2.33,1.5,4.66,3,7,4.53a8.25,8.25,0,0,1,2.08,1.77c.34.44.66,1,1.21,1.08"/><path class="cls-13" d="M127.73,310.36l-3.33-.58c-.92-.16-1.84-.32-2.78-.39-4-.26-7.79,1.24-11.71,1.85-3.16.49-6.39.4-9.57.74-1,.11-2.09.27-3.13.43l-5.49.85"/><path class="cls-14" d="M102.27,303.25l-.63,2c-.74,2.4-1.53,4.87-3.2,6.74"/><path class="cls-14" d="M102.94,319.72c-1.65-2.44-2.45-5.42-4.35-7.66"/><path class="cls-14" d="M109.85,301a22,22,0,0,1-2.89,7.48,26.27,26.27,0,0,1-2.41,2.95"/><path class="cls-14" d="M112.45,319.76a27.61,27.61,0,0,0-5.2-6.63,5.14,5.14,0,0,0-2.15-1.37"/><path class="cls-14" d="M116.4,302.35a9.35,9.35,0,0,1-1.7,4.18,28.42,28.42,0,0,1-3,3.43,6,6,0,0,1-1.59,1.31"/><path class="cls-14" d="M118.91,316.28a9.64,9.64,0,0,0-2-2.92,9.94,9.94,0,0,0-1-.79c-1.24-.85-2.66-1.74-4.14-1.49"/><path class="cls-3" d="M141.93,264.19a6,6,0,1,1-6-6A6,6,0,0,1,141.93,264.19Z"/><path class="cls-3" d="M468.2,786.33a6,6,0,1,1-6-6A6,6,0,0,1,468.2,786.33Z"/><path class="cls-3" d="M154,140.21a3,3,0,1,1-3-3A3,3,0,0,1,154,140.21Z"/><path class="cls-3" d="M295.15,175.06a3,3,0,1,1-3-3A3,3,0,0,1,295.15,175.06Z"/><path class="cls-3" d="M324.59,820.58a3,3,0,1,1-3-3A3,3,0,0,1,324.59,820.58Z"/><path class="cls-3" d="M606.39,869.85a3,3,0,1,1-3-3A3,3,0,0,1,606.39,869.85Z"/><path class="cls-3" d="M127.51,829.59a3,3,0,1,1-3-3A3,3,0,0,1,127.51,829.59Z"/><text class="cls-15" transform="translate(344.76 636.5)">15</text><text class="cls-16" transform="translate(262.07 633.57)">JU<tspan class="cls-17" x="28.34" y="0">L</tspan><tspan x="40.1" y="0">Y</tspan></text><text class="cls-18" transform="translate(403.49 633.57)"><tspan class="cls-19">202</tspan><tspan x="42.78" y="0">3</tspan></text><path class="cls-20" d="M335.87,627.7a2,2,0,1,1-2-2A2,2,0,0,1,335.87,627.7Z"/><path class="cls-20" d="M394.12,627.7a2,2,0,1,1-2-2A2,2,0,0,1,394.12,627.7Z"/><text class="cls-21" transform="translate(211.56 663.3)">5:30pm | <tspan class="cls-22" x="89.79" y="0">N</tspan><tspan x="103.68" y="0">hà hàng Hoàng </tspan><tspan class="cls-23" x="254.41" y="0">L</tspan><tspan x="264.94" y="0">ong</tspan></text><text class="cls-24" transform="translate(152.06 692.5)">S<tspan class="cls-25" x="11.18" y="0">ố 2, </tspan><tspan class="cls-26" x="54.27" y="0">L</tspan><tspan class="cls-25" x="64.8" y="0">ê </tspan><tspan class="cls-27" x="82.61" y="0">D</tspan><tspan class="cls-28" x="96.51" y="0">uẩn, </tspan><tspan class="cls-29" x="144.62" y="0">P</tspan><tspan class="cls-25" x="154.09" y="0">. </tspan><tspan class="cls-30" x="167.2" y="0">B</tspan><tspan class="cls-25" x="179.13" y="0">ến Ngh</tspan><tspan class="cls-31" x="246.97" y="0">é</tspan><tspan class="cls-25" x="258" y="0">, </tspan><tspan class="cls-32" x="271.1" y="0">Q</tspan><tspan class="cls-25" x="285.37" y="0">uận 1,</tspan><tspan class="cls-33" x="344.89" y="0"> </tspan><tspan class="cls-28" x="350.83" y="0">T</tspan><tspan class="cls-29" x="361.98" y="0">P</tspan><tspan class="cls-25" x="371.45" y="0">.HCM</tspan></text></g></g></svg>